/* XPM */
static char *P0_resized[] = {
/* columns rows colors chars-per-pixel */
"50 50 174 2 ",
"   c None",
".  c #190D15",
"X  c #170C13",
"o  c #1B111B",
"O  c #120F25",
"+  c #1D1521",
"@  c #1B1B32",
"#  c #231B26",
"$  c #25263E",
"%  c #2F2A39",
"&  c #282639",
"*  c #302C3C",
"=  c #482932",
"-  c #753926",
";  c #643C3C",
":  c #1C2343",
">  c #212746",
",  c #222846",
"<  c #2A2A42",
"1  c #262C4A",
"2  c #282E4C",
"3  c #312E48",
"4  c #2B304E",
"5  c #343449",
"6  c #3A3A4E",
"7  c #393447",
"8  c #2D3350",
"9  c #323753",
"0  c #333956",
"q  c #353B59",
"w  c #383E5B",
"e  c #3B3851",
"r  c #3C425D",
"t  c #3C4565",
"y  c #3F4867",
"u  c #44465A",
"i  c #5D4958",
"p  c #674245",
"a  c #744946",
"s  c #764E4C",
"d  c #754541",
"f  c #755250",
"g  c #434964",
"h  c #494D66",
"j  c #444C6A",
"k  c #484F69",
"l  c #47506F",
"z  c #4B516B",
"x  c #50556E",
"c  c #4C5573",
"v  c #4F5876",
"b  c #545B75",
"n  c #585D74",
"m  c #535C7A",
"M  c #715D69",
"N  c #735C64",
"B  c #6E5A69",
"V  c #56607E",
"C  c #59617E",
"Z  c #70606F",
"A  c #62677D",
"S  c #736272",
"D  c #DA5F09",
"F  c #FE6E01",
"G  c #FF7201",
"H  c #DA5F2D",
"J  c #D97E3E",
"K  c #FF6E2C",
"L  c #FD6F30",
"P  c #FF7231",
"I  c #886E72",
"U  c #81707B",
"Y  c #9A7B78",
"T  c #DC8817",
"R  c #FFA50E",
"E  c #FFA313",
"W  c #FFA913",
"Q  c #B18247",
"!  c #B29268",
"~  c #A3837F",
"^  c #C89344",
"/  c #DCA34C",
"(  c #E18562",
")  c #5A6583",
"_  c #5F6987",
"`  c #5E6A8A",
"'  c #626D8C",
"]  c #686C82",
"[  c #6A7086",
"{  c #65708E",
"}  c #6F7488",
"|  c #75798D",
" . c #7C7B89",
".. c #667291",
"X. c #697594",
"o. c #6E7996",
"O. c #6D7A99",
"+. c #737C96",
"@. c #727E9B",
"#. c #837888",
"$. c #7D8294",
"%. c #76819C",
"&. c #7B849C",
"*. c #7D89A5",
"=. c #8E818B",
"-. c #868A9B",
";. c #898D9D",
":. c #828498",
">. c #A68F8F",
",. c #848DA5",
"<. c #818DA9",
"1. c #8F93A2",
"2. c #8591AC",
"3. c #8B94AC",
"4. c #8F98AF",
"5. c #9094A4",
"6. c #999CAC",
"7. c #9398AA",
"8. c #8D9AB6",
"9. c #929BB2",
"0. c #929FB9",
"q. c #989FB2",
"w. c #9BA0AF",
"e. c #9BA1B3",
"r. c #94A1BB",
"t. c #9CA5BA",
"y. c #BFABA9",
"u. c #AAACBB",
"i. c #A3A8B7",
"p. c #DBB8AC",
"a. c #9DAAC3",
"s. c #93A4C2",
"d. c #A4AFC5",
"f. c #ACB4C4",
"g. c #AEB7CB",
"h. c #B2B7C2",
"j. c #B7BAC4",
"k. c #BDBDC5",
"l. c #B5BDCD",
"z. c #B0BED0",
"x. c #BCC1CC",
"c. c #B4C1D3",
"v. c #BDC4D1",
"b. c #C3C6CE",
"n. c #DAD0CF",
"m. c #C1C7D3",
"M. c #C6CAD3",
"N. c #CBCDD3",
"B. c #C5CCD9",
"V. c #C9CED9",
"C. c #CED0D6",
"Z. c #CDD2DB",
"A. c #D7D5D8",
"S. c #D1C5C5",
"D. c #FEDFD1",
"F. c #FCE6DB",
"G. c #FDE0D2",
"H. c #CFD8E3",
"J. c #D5D9E2",
"K. c #D9DEE5",
"L. c #E1DFE1",
"P. c #DDE0E6",
"I. c #DDE2EA",
"U. c #DFE8F2",
"Y. c #E3E6EB",
"T. c #E5E8EE",
"R. c #E5E7EB",
"E. c #E7EBF1",
"W. c #E9EDF0",
"Q. c #EEF1F4",
"!. c #F2F5F6",
"~. c #F4F7F8",
"^. c #F7F9FA",
"/. c #FDFEFE",
/* pixels */
"                                                                                                    ",
"                                                                                                    ",
"                                                                                                    ",
"                                                                                                    ",
"                                                                                                    ",
"                                                                                                    ",
"                                                                                                    ",
"                                                                                                    ",
"                                                                                                    ",
"                                                                                                    ",
"                                                                                                    ",
"                                            4 4 4 4 4 4 4 8 4                                       ",
"                                          q ) +.5.5.5.5.1.5.1.b                                     ",
"                                      r q b r.K././././././.Q.-.g h                                 ",
"                                  , l &.*.e.I././././././././.K.C.V. ., 1                           ",
"                                  v ' <.2.0.x.m.v.v.v.v.v.K././././.j.+.$.A                         ",
"                                q +.<.X...X.X.X.X.X.X.X...t.W./././.^.^.^.w.u r r                   ",
"                                9 ' @...{ { { ........{ ' O.q.K./././././.Y.x.x.-.2                 ",
"                              1 2 m ..........) c v ) X.X.` X.Z././././././././.b.} g               ",
"                            4 8 q ) X.....X.{ c q q c ' ..' O.B.^././././././././.P.[ 4             ",
"                            2 A u.,.{ ........7.u.j.$.l ) X.X.2.x.~././././././././.M.;.w           ",
"                            1 ] k.,.' X.....X.e.C.N.$.9 m X...` 4.Q./././.W.P.^./././.j.w           ",
"                            4 4 6 C X.' ..{ { h 7 7 < $ m X...' 9.Q./././.l.3.P./././.h.w           ",
"                          0 c 8 @ v ) u 6 h ' w O O O @ m X.X.` 9.Q./././.f.{ :.;.;.;.|             ",
"                        2 q ) c 5 z u + X % ) z $ < $ 4 C X.X.` 9.Q./././.l.' q 1 2 2 2             ",
"                        2 0 ) { V 6 # o . % ) ` ) C C C { { X.' 9.Q./././.V.*.t >                   ",
"                          0 ) O._ % . o . % _ o.o.X.X.X.....{ ` 4.Q./././.E.f.z >                   ",
"                        1 0 ) X._ * o o o * ) X.{ X.{ X.......o.t.!././././.K.n :                   ",
"                        1 0 ) O._ % o $ : 0 _ o...........' O.g.T.^././././.Y.b :                   ",
"                          0 l ) { u 6 y y l ` { ..........' o.Z./././././.A.w.x                     ",
"                            4 l { { { X.X.X.O.X.........{ X.&.Z./././././.7.0                       ",
"                            2 y { X.O.2.2.t.v.9.' ` ' ' ` 2.V.Q./././././.5.2                       ",
"                            2 t ) X.<.0.0.l.~.B.9.9.9.9.4.x./././././.~.V.$.2                       ",
"                                w +.0.0.0.g.Q.^.Q.Q.Q.Q.Q.~./.^.^.^./.C.n 8                         ",
"                                  c X.0.r.a.v.T././././././.!.p.Y Y ~ I e :                         ",
"                                  1 g :.9.0.0.B.W.W.L.n.n.n.S.I p f ; = 3                           ",
"                                  2 7 p #.r.0.a.d.d.#.s a a s #.u.n. .<                             ",
"                                  2 e i B S S S Z M M B i N >.k.E.^.&.1                             ",
"                                  2 t [ f - - - - d U 8.,.f.~././.^.:.1                             ",
"                                  2 t { Q T T D H p.u.*.m.Q./././.^.$.2                             ",
"                                  2 t ' ^ W E G P F.c.%.K./././.Q.v.] 2                             ",
"                                  2 t [ ^ E E F L D.c.*.J./././.J.@.t 2                             ",
"                                  2 t [ ^ R R F K D.z.%.J./././.J.X.t 2                             ",
"                                  1 t { ! / / J ( F.J.t.x.V.V.V.v.e.b 2                             ",
"                                  8 t ' 2.e.6.6.u.T./.T.q.@.%.@.t.Y.$.1                             ",
"                                8 j ) { O.*.0.s.a.c.E./.J.v.m.v.J.~.$.:                             ",
"                              0 t ) X.....O.2.,.&.@.q.V.~././././.^.w.n                             ",
"                            2 g _ ........X.X.v q q q n C./././././.!.x.h                           ",
"                            2 g ..X.......) l q       0 +.h.^././././.A.k :                         ",
"                            8 g ........X.) 0           > | !././././.C.k                           "
};
