/* XPM */
static char *P1_resized[] = {
/* columns rows colors chars-per-pixel */
"50 50 171 2 ",
"   c None",
".  c #160D19",
"X  c #19111E",
"o  c #1B1422",
"O  c #1E1D31",
"+  c #211B29",
"@  c #201E32",
"#  c #27212E",
"$  c #2E2C3E",
"%  c #272435",
"&  c #37313D",
"*  c #382839",
"=  c #5E383B",
"-  c #663C3D",
";  c #6A3B38",
":  c #1D2343",
">  c #202645",
",  c #232847",
"<  c #262C4A",
"1  c #282E4C",
"2  c #2A304E",
"3  c #313042",
"4  c #35354A",
"5  c #3B3546",
"6  c #2F3654",
"7  c #303653",
"8  c #323956",
"9  c #3D3D54",
"0  c #343B5A",
"q  c #383E5A",
"w  c #5C3B41",
"e  c #3D415B",
"r  c #3E4056",
"t  c #3D4562",
"y  c #524151",
"u  c #674144",
"i  c #7C534F",
"p  c #674E58",
"a  c #7B5351",
"s  c #414763",
"d  c #434964",
"f  c #484D66",
"g  c #424A69",
"h  c #494E68",
"j  c #4C526B",
"k  c #4F5267",
"l  c #4B5574",
"z  c #545A74",
"x  c #535D7B",
"c  c #505772",
"v  c #705A64",
"b  c #55607F",
"n  c #5A627B",
"m  c #78636E",
"M  c #60647B",
"N  c #656A7F",
"B  c #776572",
"V  c #766C77",
"C  c #AB4A11",
"Z  c #AC6218",
"A  c #AB4927",
"S  c #FE6E01",
"D  c #FE7002",
"F  c #F37413",
"G  c #FF6D2C",
"H  c #FD6F30",
"J  c #F2723B",
"K  c #9C7451",
"L  c #8D7478",
"P  c #9C7D7B",
"I  c #907679",
"U  c #FFA30D",
"Y  c #FFA213",
"T  c #F5A223",
"R  c #9E807D",
"E  c #AB8077",
"W  c #D6A255",
"Q  c #5B6583",
"!  c #5E6986",
"~  c #5F6B8B",
"^  c #566080",
"/  c #646981",
"(  c #616D8D",
")  c #6B6F89",
"_  c #6D7186",
"`  c #64708F",
"'  c #6B728B",
"]  c #757A8C",
"[  c #667291",
"{  c #697594",
"}  c #6D7997",
"|  c #6D7A98",
" . c #787E93",
".. c #717D9A",
"X. c #76819E",
"o. c #7C859C",
"O. c #7C8092",
"+. c #7684A4",
"@. c #7A86A3",
"#. c #7E89A5",
"$. c #86859A",
"%. c #85899B",
"&. c #898B9D",
"*. c #818597",
"=. c #9D9794",
"-. c #AB8B8C",
";. c #B39386",
":. c #B4A28B",
">. c #838DA6",
",. c #838EA9",
"<. c #8D91A1",
"1. c #8690A8",
"2. c #8B95AD",
"3. c #8E98AE",
"4. c #9294A4",
"5. c #949BAD",
"6. c #989AA8",
"7. c #8A95B0",
"8. c #8D9AB6",
"9. c #8696B6",
"0. c #939BB0",
"q. c #919FBB",
"w. c #A89FA5",
"e. c #9BA2B5",
"r. c #94A1BB",
"t. c #9CA5B9",
"y. c #A2AABC",
"u. c #B1A8B0",
"i. c #ADB0BB",
"p. c #BAB6BD",
"a. c #98A6C1",
"s. c #A6AEC1",
"d. c #A8AFC1",
"f. c #ABB5C8",
"g. c #B1B6C4",
"h. c #B6B9C4",
"j. c #B4BCCB",
"k. c #B8BDC9",
"l. c #B9C0CE",
"z. c #BEC5D3",
"x. c #C5C4C7",
"c. c #C2C5CD",
"v. c #D2C4C3",
"b. c #C5C9D3",
"n. c #CACDD4",
"m. c #C4CCDB",
"M. c #CACFD9",
"N. c #C0C6D2",
"B. c #CDD0D7",
"V. c #CCD1DB",
"C. c #D6D6DA",
"Z. c #EFD5CC",
"A. c #FCDED1",
"S. c #E7E0DF",
"D. c #FEE1D3",
"F. c #D4DAE3",
"G. c #DCDFE3",
"H. c #D0D6E1",
"J. c #DDE0E6",
"K. c #DEE2E8",
"L. c #E2E5EA",
"P. c #E6EAEE",
"I. c #E8EBEF",
"U. c #E5E5E7",
"Y. c #F1EFEE",
"T. c #E9EDF1",
"R. c #EEF1F4",
"E. c #F1F4F5",
"W. c #F4F7F9",
"Q. c #F6F9FB",
"!. c #FDFEFE",
/* pixels */
"                                                                                                    ",
"                                                                                                    ",
"                                                                                                    ",
"                                                                                                    ",
"                                                                                                    ",
"                                                                                                    ",
"                                                                                                    ",
"                                                                                                    ",
"                                                                                                    ",
"                                            , > : : : > : : :                                       ",
"                                            t j z z z z z z z                                       ",
"                                      2 < g @.j.J.J.U.C.J.L.C._ < 2                                 ",
"                                    s Q Q o.m.W.!.!.!.!.!.!.!.h.<.4.M                               ",
"                                  q x 2.7.s.G.T.I.P.P.P.P.E.!.!.!.Q.4.d h d                         ",
"                                0 ' @.....+.,.1.1.1.,.1.>.h.Q.!.!.!.L.B.B.*.<                       ",
"                                8 { #.[ ( [ ( ( [ ( ` ~ ~ >.z.T.!.!.!.!.!.c.] s                     ",
"                                6 x { { [ [ [ ` ~ ~ ` [ [ [ X.V.!.!.!.!.!.!.G.N 6                   ",
"                            2 < 1 x { [ [ [ [ l 0 0 l [ [ ~ } V.!.!.!.!.!.!.Q.B.%.<                 ",
"                            1 d _ [ [ [ [ [ [ ' _ _ / b ~ [ } s.J.Q.!.!.!.!.!.!.c._ d               ",
"                            < O.G.0.( [ [ [ [ h.E.E.6.0 b { [ [ e.E.!.!.!.!.!.!.!.J._ 2             ",
"                            , %.Q.t.` { { [ { N.!.!.6.$ z { [ ~ 8.R.!.!.!.!.!.!.!.!.b.&.q           ",
"                            0 ] p.>.! x c b ` 6.x.x.V # c { [ ( 0.R.!.!.!.I.J.Q.!.!.!.h.q           ",
"                          0 x j 5 n c % + 4 ! k & & # # x { [ ( 0.R.!.!.!.j.2.J.!.!.!.h.q           ",
"                        < 0 Q b e r 3 o . $ n x r r e d ! [ [ ( 0.R.!.!.!.g.` o.&.&.&./ 7           ",
"                          0 Q } ~ 3 X o X $ ! { [ [ { [ [ [ [ ~ 8.R.!.!.!.k.( q , 1 1 1 2           ",
"                          0 ^ } ~ 3 X o X $ ! { [ { [ [ [ [ [ ( 0.R.!.!.!.M.@.t ,                   ",
"                        , 0 Q } ! $ o O O 4 ! { [ [ [ [ [ [ { 0.b.Q.!.!.!.T.j.j >                   ",
"                          0 x [ ~ 5 % 6 6 t ~ [ [ [ [ [ [ ( | V.!.!.!.!.!.W.b.z :                   ",
"                            e l ` n x b ^ Q ~ [ [ [ [ [ [ ~ | V.!.!.!.!.!.i.M                       ",
"                            < t [ [ | @.+.1.t.#.( ( ` ( ~ X.y.K.!.!.!.!.!.<.,                       ",
"                            2 g ( ' +.8.8.f.I.g.| | | | } y.R.!.!.!.!.!.E.<.2                       ",
"                              0 g ..8.r.q.j.Q.P.V.V.M.V.M.K.!.!.!.!.!.L.%.z                         ",
"                                0 ( >.r.q.d.F.W.!.!.!.!.!.!.!.!.Y.v.v.w.q                           ",
"                                  7 c 7.r.r.s.H.Q.!.Q.Q.W.W.Q.!.v.a ; w 4                           ",
"                                  , 9 v &.r.r.f.m.m.u.E P P I L I B y *                             ",
"                                  < 5 w V <.>.$.$.*.B u - u i K L y.! ,                             ",
"                                  < t M p - u w w - m &.) 4.C.S.U.I. .<                             ",
"                                8 t Q @.K Z Z C A P p.z.@.t.!.!.!.!.c.%.d                           ",
"                                6 x @.0.W Y Y S H A.!.T.t.t.P.Q.!.!.!.B.h                           ",
"                                8 x +.5.W Y Y D H D.!.!.P.j.0.H.!.!.!.B.h :                         ",
"                                6 x +.0.W U Y S H D.!.!.!.N.} m.!.!.!.C.h :                         ",
"                                6 x ..8.W Y T F J Z.Q.!.!.b.>.b.W.R.E.c.h                           ",
"                                  q l ..=.:.:.-.-.6.b.!.!.R.V.y.3.0. .M                             ",
"                                  < t ( +.9.a.a.9.{ s.!.!.!.!.l.o.x 0 :                             ",
"                                  1 t ( [ X.8.r.7.[ s.!.!.!.!.!.h.t                                 ",
"                                  1 t ( [ { X.@.} l 5.!.!.!.!.!.c.e                                 ",
"                                  < t ( { [ [ [ Q 8 _ c.b.c.c.n.e.t                                 ",
"                                  < t ( { [ [ [ Q q 8 d d d d g d                                   ",
"                                  < t ( { [ [ x g 0                                                 ",
"                                  1 t ( { [ [ h 1                                                   "
};
