/* XPM */
static char *P2_resized[] = {
/* columns rows colors chars-per-pixel */
"50 50 174 2 ",
"   c None",
".  c #170E1A",
"X  c #19111D",
"o  c #1C1523",
"O  c #1D1929",
"+  c #161C3D",
"@  c #211C2A",
"#  c #282536",
"$  c #292638",
"%  c #2E2C3D",
"&  c #7F381E",
"*  c #7E3727",
"=  c #7F421F",
"-  c #7F4322",
";  c #6D413E",
":  c #1D2443",
">  c #202645",
",  c #242845",
"<  c #262C4A",
"1  c #282E4C",
"2  c #2F2D40",
"3  c #312F41",
"4  c #2B304E",
"5  c #333346",
"6  c #373349",
"7  c #2D3452",
"8  c #303653",
"9  c #323957",
"0  c #393A50",
"q  c #343B59",
"w  c #383F5D",
"e  c #443D46",
"r  c #623D40",
"t  c #3C425E",
"y  c #3C4462",
"u  c #43455D",
"i  c #6F4341",
"p  c #7E4F49",
"a  c #6B525D",
"s  c #765656",
"d  c #454A65",
"f  c #484D66",
"g  c #434C6A",
"h  c #454A65",
"j  c #46506F",
"k  c #4D536D",
"l  c #52566F",
"z  c #5F5162",
"x  c #4C5573",
"c  c #4F5877",
"v  c #535973",
"b  c #535C7A",
"n  c #5A5F76",
"m  c #6D5866",
"M  c #6A5663",
"N  c #775C61",
"B  c #5B6076",
"V  c #59617D",
"C  c #55607F",
"Z  c #6D6971",
"A  c #64697F",
"S  c #7D6D7A",
"D  c #FE6F01",
"F  c #FF7201",
"G  c #E56507",
"H  c #E5642E",
"J  c #FD6E2E",
"K  c #FF7130",
"L  c #8F6966",
"P  c #9A7B78",
"I  c #CD7F66",
"U  c #E68F17",
"Y  c #E89114",
"T  c #FFA30F",
"R  c #FFA313",
"E  c #FFA812",
"W  c #B69C79",
"Q  c #D2844F",
"!  c #C69553",
"~  c #D9A453",
"^  c #D3A259",
"/  c #5B6583",
"(  c #5E6986",
")  c #5E6A8A",
"_  c #566180",
"`  c #656A81",
"'  c #696E82",
"]  c #626E8D",
"[  c #65708E",
"{  c #6D7389",
"}  c #76798C",
"|  c #667291",
" . c #697594",
".. c #6D7997",
"X. c #6E7A9A",
"o. c #707A96",
"O. c #717D9B",
"+. c #7B7F92",
"@. c #847885",
"#. c #76819D",
"$. c #7D8397",
"%. c #7382A3",
"&. c #7F8AA5",
"*. c #7A87A5",
"=. c #938289",
"-. c #968287",
";. c #828799",
":. c #868A9B",
">. c #898D9D",
",. c #878893",
"<. c #AB9799",
"1. c #838CA4",
"2. c #818DA9",
"3. c #8E92A2",
"4. c #8591AD",
"5. c #8D96AD",
"6. c #8F98AF",
"7. c #9194A4",
"8. c #9C9EAB",
"9. c #9198AE",
"0. c #8C99B4",
"q. c #8894B0",
"w. c #949CB2",
"e. c #929EB9",
"r. c #9CA0AE",
"t. c #9BA2B5",
"y. c #95A1BB",
"u. c #9DA6BB",
"i. c #9BA4BA",
"p. c #A2A5B2",
"a. c #A5ADBE",
"s. c #CCBEBD",
"d. c #C0B4B7",
"f. c #CEC0BE",
"g. c #E5C3B7",
"h. c #97A6C3",
"j. c #A2ACC0",
"k. c #ADB4C4",
"l. c #ACB6CA",
"z. c #B2B7C3",
"x. c #B2B9C7",
"c. c #B9BDC6",
"v. c #B3BBCB",
"b. c #B8BFCD",
"n. c #B5BED0",
"m. c #BEC1CA",
"M. c #BDC4D3",
"N. c #C2C4CB",
"B. c #D0C2C1",
"V. c #C2C7D2",
"C. c #C4CAD6",
"Z. c #C8CEDA",
"A. c #CDD2DB",
"S. c #D1D5DC",
"D. c #D7D7DB",
"F. c #FDDFD1",
"G. c #E1D9D8",
"H. c #FFE2D4",
"J. c #D8DBE0",
"K. c #D4D8E1",
"L. c #DDE0E6",
"P. c #DCE3EC",
"I. c #E1E5EC",
"U. c #E7E9EC",
"Y. c #E9ECEF",
"T. c #E0E2E6",
"R. c #EAEDF1",
"E. c #EEF1F4",
"W. c #EEF4F9",
"Q. c #F2F4F6",
"!. c #F4F7F8",
"~. c #F6F9FA",
"^. c #FDFEFE",
"/. c #F8F6F5",
/* pixels */
"                                                                                                    ",
"                                                                                                    ",
"                                                                                                    ",
"                                                                                                    ",
"                                                                                                    ",
"                                                                                                    ",
"                                                                                                    ",
"                                                                                                    ",
"                                            7 8 8 8 8 8 8 9 8                                       ",
"                                      > : w ` 1.p.p.p.p.p.p.r.B + :                                 ",
"                                      d y V j.P.^.^.^.^.^.^.!.3.v v f                               ",
"                                  < k &.2.a.I.^.^.^.^.^.^.^.^.U.L.D.$.< 4                           ",
"                                q b  .1.&.0.l.v.x.x.x.l.x.S.^.^.^.^.N.3.3.'                         ",
"                                q ..2. .[ | | | | | | | ] w.I.~.^.^.^.^.^.p.f                       ",
"                                8 / O.| | | [ | | | | | [ ..6.J.^.^.^.^.^.Y.c.k                     ",
"                              , 4 b  .| | | | _ j j _ | | ]  .A.^.^.^.^.^.^.E.8.A                   ",
"                            1 8 y /  .|  .| [ c t t x ] [ ] ..V.~.^.^.^.^.^.^.^.t.8                 ",
"                            1 ' z.1.] | [ [  .w.m.N.;.g /  . .1.x.Q.^.^.~.^.^.^.p.4                 ",
"                            , :.!.t.]  .[  . .M.^.^.r.5 b  .| ) 6.R.^.^.^.^.^.^.N.{ k               ",
"                            < ;.L.w.] ] [ ]  .c././.,.# x  .| ] w.Q.^.^.^.^.^.~.^.L.A :             ",
"                          9 x n Z  .V 0 6 u ) A Z Z e @ v  .| ] 0.E.^.^.^.^.^.^.^.E.' >             ",
"                        < q / k % f u O . % / h $ $ $ 5 V  .| ] w.E.^.^.^.R.L.~.^.Y.A >             ",
"                        < q / | V 6 @ o X % V [ ( / / ( ]  .| ) w.E.^.^.^.x.5.L.^.U.A >             ",
"                          q _ X.] % . X X % ` .. . . . . .| | ) 6.E.^.^.^.k.[ ;.3.;.v               ",
"                        < q _ ..` 3 X @ O 3 (  .| | | | | [  .O.a.Q.^.^.^.M.] q < 1                 ",
"                        < 9 / ..) 3 O , , q )  .| | | | | [ ..b.R.^.^.^.^.Z.&.y >                   ",
"                          9 g _ ] f t g g x ) | | | | | [ ] ..A.^.^.^.^.^.k.( y                     ",
"                            4 g [ | | .. ...O...| | | | |  .&.S.^.^.^.^.^.3.4                       ",
"                            < g | | O.q.q.u.A.t.] [ ] ] ) 6.S.Q.^.^.^.^.^.7.1                       ",
"                              y b ..4.e.e.n.~.K.i.u.p.u.i.C.^.^.^.^.^.Q.c.} 4                       ",
"                                w o.e.e.e.l.R.~.!.~.~.~.~.~.^.^.~.Q./.N.l <                         ",
"                                  f ] e.i.h.n.I.^.^.^.^.^.^.^.^.G.P L N 0                           ",
"                                  , d o.0.e.e.M.I.I.D.s.s.s.f.B.<.s s s 0                           ",
"                                  7 6 * @.e.w.i.h.h.@.i ; ; ; ; N 7.S.N.f                           ",
"                                7 j l z M m m m M a m L <.=.m -.d.K.~.S.d                           ",
"                                7 b X...s - - & * p ,.M.W.C.%.Z.^.^.^.J.{ h                         ",
"                                7 b %.6.! U U G H g.R.E.^.C.#.Z.^.^.^.~.I.:.4                       ",
"                              y x / %.t.~ E R F K H.^.^.^.L.x.k.C.~.^.^.^.7.4                       ",
"                            1 g [ | %.8.~ R R D J F.^.^.^.^.Q.w.6.E.^.^.^.7.4                       ",
"                            < g | | %.w.~ E R D J F.^.^.^.^.!.w.5.Q.^.^.^.7.4                       ",
"                            1 g |  .X.1.W ^ ^ Q Q a.P.^.^.^.~.V.k.M.k.p.p.} 4                       ",
"                            1 h ( ] ) [ &.t.w.i.w...k.~.^.^.^.^.A.o.g 7 7                           ",
"                              q y y y y ( *.h.h.e. .a.^.^.^.^.^.V.k 1                               ",
"                                < < < 7 x ..&.%.O.9.C.^.^.^.^.^.m.t                                 ",
"                                      7 c  . .g v A.^.^.^.^.^.^.c.t                                 ",
"                                      7 c ..| y l J.^.^.^.^.Q.p.A                                   ",
"                                      7 j ) ] y l J.^.^.^.^.Q.' :                                   ",
"                                        7 y ) g k D.^.~.^.^.R.' >                                   ",
"                                        < q ) _ b $.>.:.:.>.:.n                                     ",
"                                        < y ) X./ q < < < 1 1                                       "
};
