/* XPM */
static char *P4_resized[] = {
/* columns rows colors chars-per-pixel */
"50 50 174 2 ",
"   c None",
".  c #19111E",
"X  c #160D19",
"o  c #1B1422",
"O  c #1E1D31",
"+  c #211B29",
"@  c #201E32",
"#  c #27212E",
"$  c #2E2C3E",
"%  c #272435",
"&  c #37313D",
"*  c #653C3D",
"=  c #6E3F3B",
"-  c #1D2343",
";  c #212746",
":  c #222847",
">  c #252B4A",
",  c #282E4C",
"<  c #2A304E",
"1  c #313042",
"2  c #35354B",
"3  c #3D384A",
"4  c #2E3553",
"5  c #303653",
"6  c #313856",
"7  c #3C3F57",
"8  c #343B5A",
"9  c #393E5A",
"0  c #5D3C43",
"q  c #433B50",
"w  c #3F4159",
"e  c #3E4056",
"r  c #3E4563",
"t  c #654246",
"y  c #744D4C",
"u  c #704746",
"i  c #7A5251",
"p  c #664D57",
"a  c #414763",
"s  c #444A65",
"d  c #484D66",
"f  c #424A69",
"g  c #494F68",
"h  c #4E536C",
"j  c #4F5267",
"k  c #4C5675",
"l  c #4F5978",
"z  c #545B74",
"x  c #545E7C",
"c  c #505772",
"v  c #725C67",
"b  c #55607F",
"n  c #5A627B",
"m  c #62657D",
"M  c #656A7F",
"N  c #796977",
"B  c #756973",
"V  c #AB4A11",
"C  c #AC6218",
"Z  c #AB4927",
"A  c #FE6E01",
"S  c #FE7002",
"D  c #F37413",
"F  c #FF6D2C",
"G  c #FD6F30",
"H  c #F2723B",
"J  c #9B7350",
"K  c #8C7276",
"L  c #9C7D7B",
"P  c #FFA30D",
"I  c #FFA213",
"U  c #F5A223",
"Y  c #9E807D",
"T  c #AB8077",
"R  c #D6A255",
"E  c #576180",
"W  c #5B6583",
"Q  c #5E6986",
"!  c #5F6B8B",
"~  c #636A83",
"^  c #696E83",
"/  c #616D8C",
"(  c #6D7186",
")  c #64708F",
"_  c #6B728B",
"`  c #767B8E",
"'  c #73768A",
"]  c #667291",
"[  c #697594",
"{  c #6D7997",
"}  c #6D7A98",
"|  c #717D9A",
" . c #767D93",
".. c #707FA0",
"X. c #75819D",
"o. c #7C8397",
"O. c #7582A2",
"+. c #7A86A2",
"@. c #7E89A3",
"#. c #86859A",
"$. c #858A9B",
"%. c #898C9E",
"&. c #818597",
"*. c #9F8C91",
"=. c #9C9592",
"-. c #98898E",
";. c #AB8B8C",
":. c #B39386",
">. c #B4A28B",
",. c #848DA6",
"<. c #838EA9",
"1. c #8D92A1",
"2. c #8690A8",
"3. c #8A94AD",
"4. c #8E98AE",
"5. c #9195A5",
"6. c #9696A9",
"7. c #979BA9",
"8. c #8E9AB5",
"9. c #8997B5",
"0. c #939BB0",
"q. c #929FBB",
"w. c #A69CA2",
"e. c #99A1B6",
"r. c #94A1BB",
"t. c #9CA4B9",
"y. c #97A0B5",
"u. c #A3A7B3",
"i. c #A3ABBD",
"p. c #B1A8B0",
"a. c #ADB0BB",
"s. c #B6B3BB",
"d. c #D1C1BF",
"f. c #98A6C2",
"g. c #A6AEC2",
"h. c #ACB3C4",
"j. c #AAB5CA",
"k. c #B1B7C4",
"l. c #B6B9C3",
"z. c #B4BCCB",
"x. c #B9BCC6",
"c. c #BFC5D2",
"v. c #C5C4C7",
"b. c #C1C4CD",
"n. c #D1C4C3",
"m. c #C4C9D4",
"M. c #CBCED5",
"N. c #C4CCDB",
"B. c #CACFD9",
"V. c #D2CED3",
"C. c #CDD0D7",
"Z. c #CCD1DB",
"A. c #D6D8DE",
"S. c #D1D4DB",
"D. c #EFD5CC",
"F. c #FCDED1",
"G. c #FEE1D3",
"H. c #D3DAE5",
"J. c #DBDEE3",
"K. c #D0D6E1",
"L. c #DDE0E6",
"P. c #DEE2E8",
"I. c #E2E5EA",
"U. c #E6E9EE",
"Y. c #E8EBEF",
"T. c #E5E5E7",
"R. c #F1EFEE",
"E. c #E9EDF1",
"W. c #E5EDF5",
"Q. c #EEF1F4",
"!. c #F1F4F6",
"~. c #F4F7F9",
"^. c #F6F9FB",
"/. c #FDFEFE",
/* pixels */
"                                                                                                    ",
"                                                                                                    ",
"                                                                                                    ",
"                                                                                                    ",
"                                                                                                    ",
"                                                                                                    ",
"                                                                                                    ",
"                                                                                                    ",
"                                                                                                    ",
"                                            > - - - ; ; ; - -                                       ",
"                                            r h z z z z z z z                                       ",
"                                      4 > f +.z.L.L.L.A.J.T.S.( > <                                 ",
"                                    a W W o.N.~./././././././.l.1.5.m                               ",
"                                  8 x 3.8.g.J.E.Y.U.Y.U.U.!./././.^.5.s g s                         ",
"                                8 _ +.| } O.<.2.2.2.2.<.,.z.^./././.I.C.C.&.>                       ",
"                                6 [ @.[ ) ) / ) ) / / ! ! ,.c.E./././././.b.` r                     ",
"                                4 x [ ] ] ] ] ) ! ! ) ] ] ) X.Z././././././.J.M 5                   ",
"                            < > 4 l [ ] ] ] ] k 8 8 k [ ] / { Z././././././.^.C.$.>                 ",
"                            , s ( ] ] ] ] ] ] _ ( ( M b / ) { g.L.^././././././.b.( s               ",
"                            > o.L.0./ ] ] ) ] k.!.!.5.8 b [ ) [ e.!./././././././.L.( <             ",
"                            : %.^.e./ [ [ ] [ m././.7.$ c [ ] ! 4.Q././././././././.m.%.9           ",
"                            8 ' s.,.Q n c b ) 7.v.v.B # c [ ] ) 0.Q./././.Y.P.^./././.l.9           ",
"                          8 x h 3 n c % + 2 Q j & & # % c [ ] ! 0.Q./././.z.3.L./././.s.9           ",
"                        > 8 W b w e 1 o X $ Q c e e w d Q [ ] ) 0.!./././.h.] &.%.%.%.`             ",
"                          8 W { ! 1 o o . $ Q [ ] ] ] ] ] ] ] / 0.Q./././.z./ 8 > , , ,             ",
"                          8 E { Q 1 . o . $ Q [ ] [ ] ] ] ] ] / 0.Q./././.Z.+.r ;                   ",
"                        > 8 E } Q 1 o O O 2 ! ] ] ] ] ] ] ] [ 0.m.^./././.Q.z.h ;                   ",
"                          8 x ] ~ 2 % 4 4 r ! ] ] ] ] ] ] / } B./././././.!.m.c -                   ",
"                            w k / W z E E W ! ] ] ] ] ] ] / [ Z./././././.a.n                       ",
"                            > a ] [ } O.+.<.e.@./ / ) / / X.i.P./././././.1.>                       ",
"                            , f / ] O.0.8.j.E.k.} } } { { i.Q./././././.!.%.<                       ",
"                              8 f } q.r.q.z.^.U.Z.Z.Z.B.B.P./././././.I.$.z                         ",
"                                6 / ,.r.q.g.H.^././././././././.R.n.d.w.9                           ",
"                                  4 c 4.r.r.f.K././.^.^.~.~.^./.n.i = t 2                           ",
"                                  : 2 v 1.f.f.j.N.N.p.T L L Y L K N *.-.w                           ",
"                                  8 q 0 N #.#.#.#.#.B t y y 0 u K g.W.S.g                           ",
"                                4 l ! ~ p * * * * * v 6.V.s.' s.T.!./.S.g -                         ",
"                                4 l O.+.J C C V Z L s.H./.N.X.Z./././.U.u.^                         ",
"                              4 w E O.7.R I I A G F./././.B.3.m.!././././.5.,                       ",
"                            , r W ) O.y.R I I S G F./././.!.H.t.i.~./././.1.<                       ",
"                            < f ] ] O.0.R P I A G G././././.^.4.2.!./././.5.<                       ",
"                            , f ] ] ..4.R U U D H D.^./././.!.t.0.I.!.E.Y.1.<                       ",
"                            , f ] [ [ X.=.>.>.;.;.6.m././././.P.m.0. .M M z                         ",
"                            < r l x W ] O.9.f.f.9.[ i./././././.Z.Q 6 ; ;                           ",
"                                4 4 a / [ | 8.0.3.| h./././././.x.a                                 ",
"                                  > r / [ } O./ / h.P./././.~.u.^                                   ",
"                                  > r x E E b 8 h J././././.Q.^ -                                   ",
"                                      6 6 8 6 > h A././././.Q.( ;                                   ",
"                                              - c A././././.Q.( ;                                   ",
"                                              - h A././././.Q.( ;                                   "
};
