/* XPM */
static char *P5_resized[] = {
/* columns rows colors chars-per-pixel */
"50 50 185 2 ",
"   c None",
".  c #170E1A",
"X  c #19111D",
"o  c #1C1523",
"O  c #1D1929",
"+  c #161C3D",
"@  c #211C2A",
"#  c #282536",
"$  c #292638",
"%  c #2E2C3D",
"&  c #7F381E",
"*  c #442732",
"=  c #6C3F3D",
"-  c #7E3727",
";  c #7F421F",
":  c #7F4322",
">  c #6D403D",
",  c #1D2444",
"<  c #202645",
"1  c #242945",
"2  c #2C2C44",
"3  c #252B4A",
"4  c #292F4D",
"5  c #302F42",
"6  c #2B304E",
"7  c #27304F",
"8  c #333346",
"9  c #35354B",
"0  c #3B3044",
"q  c #2F3553",
"w  c #303654",
"e  c #323957",
"r  c #3A3A51",
"t  c #343B59",
"y  c #443D46",
"u  c #613C40",
"i  c #3D435E",
"p  c #3C4361",
"a  c #43455D",
"s  c #5C4E5F",
"d  c #6B4546",
"f  c #784D49",
"g  c #6B525D",
"h  c #7B5A51",
"j  c #434964",
"k  c #484D66",
"l  c #444D6B",
"z  c #494E68",
"x  c #404662",
"c  c #46506F",
"v  c #4D536D",
"b  c #51566F",
"n  c #4C5573",
"m  c #4E5876",
"M  c #535973",
"N  c #535D7B",
"B  c #585D75",
"V  c #6E5866",
"C  c #685563",
"Z  c #715C67",
"A  c #5B6076",
"S  c #59617D",
"D  c #55607F",
"F  c #6D6971",
"G  c #64697F",
"H  c #61667C",
"J  c #786773",
"K  c #7B6166",
"L  c #FE6F01",
"P  c #FF7201",
"I  c #E56507",
"U  c #FD6E2E",
"Y  c #FF7130",
"T  c #E5642E",
"R  c #825E5D",
"E  c #8D6967",
"W  c #95716D",
"Q  c #876C70",
"!  c #E79016",
"~  c #FFA30F",
"^  c #FFA313",
"/  c #FFA812",
"(  c #B69C79",
")  c #D0824D",
"_  c #C69553",
"`  c #D9A453",
"'  c #D3A259",
"]  c #D98A6E",
"[  c #5B6583",
"{  c #5F6986",
"}  c #5E6A8A",
"|  c #566180",
" . c #656A81",
".. c #626E8D",
"X. c #696E82",
"o. c #65708F",
"O. c #6C748C",
"+. c #797A8C",
"@. c #667291",
"#. c #697594",
"$. c #6D7996",
"%. c #6D7A9A",
"&. c #727B95",
"*. c #7A7F92",
"=. c #727E9B",
"-. c #857885",
";. c #847A89",
":. c #7D8294",
">. c #75819D",
",. c #7F8599",
"<. c #7685A6",
"1. c #7F8AA5",
"2. c #7B87A5",
"3. c #828799",
"4. c #8B8F9F",
"5. c #878996",
"6. c #95868E",
"7. c #B69F9D",
"8. c #828BA3",
"9. c #828EA9",
"0. c #8E92A2",
"q. c #8591AD",
"w. c #8D96AC",
"e. c #8F98AE",
"r. c #9B9EAB",
"t. c #9195A7",
"y. c #8C99B4",
"u. c #939CB2",
"i. c #929FB9",
"p. c #989FB1",
"a. c #9CA0AE",
"s. c #9BA2B5",
"d. c #95A1BB",
"f. c #9DA6BB",
"g. c #9BA4BA",
"h. c #B4A1A1",
"j. c #A2A5B2",
"k. c #A4ACBE",
"l. c #C9BAB9",
"z. c #CEC0BE",
"x. c #E5C3B7",
"c. c #97A6C2",
"v. c #A4ADC1",
"b. c #AEB5C5",
"n. c #AEB8CC",
"m. c #B2B6C4",
"M. c #B1B8C7",
"N. c #B9BDC6",
"B. c #B4BBCB",
"V. c #B8BFCD",
"C. c #BEC2CA",
"Z. c #BDC5D3",
"A. c #C2C5CD",
"S. c #CAC8CF",
"D. c #D0C2C1",
"F. c #C1C7D3",
"G. c #C5CAD5",
"H. c #CCCFD6",
"J. c #C8CFDB",
"K. c #C7CDD8",
"L. c #CDD0D7",
"P. c #CDD2DC",
"I. c #D1D5DC",
"U. c #D7D4D7",
"Y. c #FCDED1",
"T. c #FFE4D7",
"R. c #D5DAE3",
"E. c #D8DBE0",
"W. c #E0DEE1",
"Q. c #DDE0E6",
"!. c #DEE3EB",
"~. c #E1E6EC",
"^. c #E7E9EC",
"/. c #E9ECEF",
"(. c #E0E2E6",
"). c #F1F0EF",
"_. c #EBEEF1",
"`. c #E5EDF5",
"'. c #EEF1F4",
"]. c #F3F4F6",
"[. c #F4F7F8",
"{. c #F6F8FA",
"}. c #FDFEFE",
"|. c #F8F7F6",
" X c #F7E7E0",
/* pixels */
"                                                                                                    ",
"                                                                                                    ",
"                                                                                                    ",
"                                                                                                    ",
"                                                                                                    ",
"                                                                                                    ",
"                                                                                                    ",
"                                                                                                    ",
"                                            q q w w w w w e w                                       ",
"                                      1 < t { 8.j.j.j.j.j.j.a.A + ,                                 ",
"                                      j x S v.!.}.}.}.}.}.}.[.0.M M z                               ",
"                                  3 c 1.9.k.~.}.}.}.}.}.}.}.}.^.(.I.:.3 4                           ",
"                                t N @.8.1.y.b.B.M.M.M.M.M.P.}.}.}.}.A.0.0. .                        ",
"                                t &.9.#.@.@.@.@.@.@.@.@...p.~.{.}.}.}.}.}.j.k                       ",
"                                q [ =.@.@.o.@.@.@.@.@.....$.e.R.}.}.}.}.}./.N.v                     ",
"                              1 q N @.@.@.@.@.| c c D #.#...#.P.}.}.}.}.}.}.].r.G                   ",
"                            4 w p [ #.@.o.#.o.m i i m { o.o.$.Z.{.}.}.}.}.}.}.}.s.w                 ",
"                            3  .M.8...@.#.o.#.u.C.A.,.l [ #.#.1.M.].}.}.}.}.}.}.a.6                 ",
"                            1 4.].s...#.#.o.#.Z.}.}.a.6 D #.o.} e._.}.}.}.}.}.}.C.+.v               ",
"                            3 3.Q.u.......} #.M.|.|.6.# m #.o.o.u.].}.}.}.}.}.{.}.Q.G ,             ",
"                          t n B F O.S r 8 a  .X.F F a @ b #.o...y.'.}.}.}.}.}.}.}.'.G <             ",
"                        1 t [ n 2 k a O . % { k # # # 9 S #.@...u.'.}.}.}./.Q.{.}./. .<             ",
"                        3 t | @.S 9 @ o X % { o.S S [ { o.@.@...u.'.}.}.}.B.w.Q.}.^.G <             ",
"                          t [ %...% . X X % S $.#.$.#.#.@.@.@.} e.'.}.}.}.b.@.,.4.3.B               ",
"                        3 t [ $. .5 X O o 5 { #.o.O.@.@.@.@.#.>.k.].}.}.}.C.o.t 3 4                 ",
"                        3 t [ #.} 5 O 1 1 t } @.o.#.@.@.@...#.C._.}.}.}.}.J.2.p <                   ",
"                          e l | ..k i k l m } @.#.@.@.@.@...#.P.}.}.}.}.}.b.{ i                     ",
"                            6 l o.@.#.#.#.%.>.%.o.o.@.@.@.#.1.I.}.}.}.}.}.0.q                       ",
"                            3 l @.#.=.q.q.v.P.g.........} e.R.[.}.}.}.}.}.0.4                       ",
"                              p N #.q.d.i.B.{.P.f.f.f.f.g.Z.}.}.}.}.}.].V.+.6                       ",
"                                t &.i.i.i.n._.{.{.|.{.{.{.{.}.].].).|.S.b 3                         ",
"                                  k ..i.d.c.V.~.}.}.}.}.}.}.{.7.E E W K 9 ,                         ",
"                                  1 x ;.e.d.c.Z.!.~.U.z.z.D.l.Q d R d * 5                           ",
"                                  4 0 u ;.i.p.i.c.f.-.d > > d ;.M.(.+.1                             ",
"                                  3 r s C V V V V g Z J C J h.S.`.{.:.,                             ",
"                                  t n #.h : : & - f 6.v.>.g.}.}.}.{.r.b                             ",
"                                w m %.e._ ! ! I T x.'.Q.q.s.{.}.}.}.].N.k                           ",
"                                q N <.p.` / ^ L U T.}.{.G.b.V.~.}.}.}.I.k ,                         ",
"                                w N <.u.` / ^ L U Y.}.}.}.F.>.K.}.}.}.L.k                           ",
"                                w N <.p.` ^ ^ L U Y.}.}.}.F.>.K.}.}.}.L.z                           ",
"                                q l } 8.( ' ' ) ]  X}.}.}.Z.=.J.}.}.}.I.z ,                         ",
"                                  4 p @.9.p.i.u.v.~.}.}.}.K.8.G.|.'.].A.z                           ",
"                                  3 p } %.2.i.c.c.B.R.}.}.'.P.k.w.w.*.H                             ",
"                                  p n o.@.%.1.2.&.#.b.}.}.}.{.V.y.e.m <                             ",
"                                q N o.@.@.@.@.n q q 0.{.}.}.}.{.{._.*.3                             ",
"                                q | #.@.@.@.@.l 3 3 4.}.}.}.}.}.}.}.:.3                             ",
"                                q | #.@.@.#.@.l 4 4 :.H.].}.}.}.}.{.:.3                             ",
"                                q | @.@.@.@.o.k 4     B H.}.}.{.}.{.:.3                             ",
"                                q p l l l l l p       i A.}.}.}.}.{.:.3                             ",
"                                6 4 4 4 6 6 4         j G.}.}.}.}.{.3.3                             "
};
