/* XPM */
static char *TileSet_copy_2_resized[] = {
/* columns rows colors chars-per-pixel */
"50 50 224 2 ",
"   c None",
".  c #03030E",
"X  c #08070F",
"o  c #040512",
"O  c #080714",
"+  c #070914",
"@  c #0B0A15",
"#  c #060D19",
"$  c #0B0C19",
"%  c #120D15",
"&  c #130E19",
"*  c #0B121D",
"=  c #07101C",
"-  c #171016",
";  c #1A1217",
":  c #14121C",
">  c #1B131B",
",  c #21171C",
"<  c #24191D",
"1  c #2B1D1E",
"2  c #0C1421",
"3  c #0F1726",
"4  c #131523",
"5  c #191524",
"6  c #1B1926",
"7  c #14192B",
"8  c #1C1B2A",
"9  c #131928",
"0  c #1B1F30",
"q  c #241A22",
"w  c #2B1E22",
"e  c #231F2E",
"r  c #211721",
"t  c #1D2333",
"y  c #1F283A",
"u  c #24212D",
"i  c #2E2125",
"p  c #342324",
"a  c #392625",
"s  c #3E2926",
"d  c #352528",
"f  c #3A272A",
"g  c #3D2A2B",
"h  c #34292A",
"j  c #232332",
"k  c #242B3D",
"l  c #2A2B3D",
"z  c #252637",
"x  c #362C33",
"c  c #3C3339",
"v  c #432D2B",
"b  c #412B27",
"n  c #4B322D",
"m  c #493725",
"M  c #50352D",
"N  c #463232",
"B  c #4C3333",
"V  c #4B3836",
"C  c #523732",
"Z  c #553934",
"A  c #5A3C35",
"S  c #5C3D39",
"D  c #543B3A",
"F  c #452E30",
"G  c #603F39",
"H  c #5B4134",
"J  c #64423C",
"K  c #69453D",
"L  c #664639",
"P  c #72483F",
"I  c #735132",
"U  c #232E44",
"Y  c #282E43",
"T  c #263044",
"R  c #2D3143",
"E  c #263148",
"W  c #2C3349",
"Q  c #2F384D",
"!  c #323243",
"~  c #34384A",
"^  c #383C4C",
"/  c #363847",
"(  c #2E3C54",
")  c #323E54",
"_  c #313F58",
"`  c #3C3F50",
"'  c #433A44",
"]  c #394054",
"[  c #35445D",
"{  c #3A445B",
"}  c #37414F",
"|  c #384660",
" . c #3B4964",
".. c #364664",
"X. c #47464F",
"o. c #524445",
"O. c #454C5E",
"+. c #484C5D",
"@. c #444759",
"#. c #584D54",
"$. c #4D525F",
"%. c #6B4740",
"&. c #6D4941",
"*. c #674844",
"=. c #724C43",
"-. c #754F48",
";. c #74514D",
":. c #7D5746",
">. c #634E54",
",. c #715455",
"<. c #675751",
"1. c #7E654A",
"2. c #7C685D",
"3. c #404F6A",
"4. c #404E64",
"5. c #495364",
"6. c #44526D",
"7. c #4D5A6C",
"8. c #475367",
"9. c #465672",
"0. c #4C5770",
"q. c #4B5974",
"w. c #4D5E7C",
"e. c #475874",
"r. c #515D75",
"t. c #525E78",
"y. c #545D6D",
"u. c #6B5E66",
"i. c #705C61",
"p. c #4E607D",
"a. c #5B6375",
"s. c #546279",
"d. c #5D687C",
"f. c #5F646C",
"g. c #656367",
"h. c #75656A",
"j. c #646676",
"k. c #7D6C71",
"l. c #76757B",
"z. c #7B7067",
"x. c #845A38",
"c. c #946737",
"v. c #9E703B",
"b. c #A36E3D",
"n. c #A9723C",
"m. c #B1783F",
"M. c #865B43",
"N. c #946746",
"B. c #846656",
"V. c #946C40",
"C. c #A97646",
"Z. c #B27C44",
"A. c #A77F59",
"S. c #846E65",
"D. c #8B7B63",
"F. c #BA823F",
"G. c #B58448",
"H. c #AB8255",
"J. c #B8915D",
"K. c #B38F5F",
"L. c #978874",
"P. c #A78667",
"I. c #B5976F",
"U. c #C28A46",
"Y. c #C69859",
"T. c #C39D6B",
"R. c #C7A87A",
"E. c #576987",
"W. c #5B6A84",
"Q. c #5D6E8C",
"!. c #526481",
"~. c #5D708F",
"^. c #5E7393",
"/. c #626C81",
"(. c #647083",
"). c #66748B",
"_. c #6A768C",
"`. c #6C7A8B",
"'. c #6A7489",
"]. c #737787",
"[. c #627594",
"{. c #667A9A",
"}. c #697D9D",
"|. c #677893",
" X c #727E95",
".X c #687FA3",
"XX c #6E819E",
"oX c #748193",
"OX c #74839C",
"+X c #7B899E",
"@X c #6D82A2",
"#X c #6E86A9",
"$X c #7186A5",
"%X c #7488A7",
"&X c #7C8BA1",
"*X c #748AAA",
"=X c #788DAC",
"-X c #7E92AC",
";X c #8A868A",
":X c #958A81",
">X c #838696",
",X c #979291",
"<X c #A89885",
"1X c #B4AB9D",
"2X c #B6A48B",
"3X c #858DA1",
"4X c #8394AC",
"5X c #8995A8",
"6X c #869AB6",
"7X c #8C9EB4",
"8X c #869BB9",
"9X c #889DB9",
"0X c #8496B1",
"qX c #929EB1",
"wX c #959DA4",
"eX c #99A2AE",
"rX c #8DA2BD",
"tX c #8EA0B6",
"yX c #92A1B5",
"uX c #91A4BD",
"iX c #9EA7B1",
"pX c #A9ABAD",
"aX c #96AAC2",
"sX c #8FA4C0",
/* pixels */
"                      ( ( _ _ _ _ ( ( ( _ ( ( ( ( ( ( ( ( ) ( ( ) _ [ ) _ _ _                       ",
"                      [ [ [ ) ) _ [ [ .._ ....[ [ [ [ | ..[ [ [ _ ) _ _ _ [ ..                      ",
"                     .9.9. .Q W ) 3.9.9.9.9.9.9.9.9.9.9.9.9.9.9.3.) W Q | 0.6. .                    ",
"                  [  .!.E.6.R z ) w.~.[.~.~.~.).~.~.~.~.~.~.[.~.w.) z ! 6.E.!.3._                   ",
"                [ | e.Q.{.0.l e ` ).$X*X%X$X%X$X$X$X$X$X#X%X%X%XQ.) e R q.^.Q.e. .[                 ",
"              [ 6.w.E.{.{.0.l u @.}.8XrX9X9X9X9X9X9X9X9X9X9X9X9X X@.e Y 0.{.{.E.q.6.[               ",
"            _  .w.^.{.@X{.0.l j 5.OXuXaXsX9XsX9XuXuXrXrXuXsXaXsX+X+.j l 0.{.@X}.^.w. .[             ",
"          |  .e.E.}.#X=XOXr.l e ^ (.3X&X&X&X3X&X+X+X&X+X&X&X3X&X(.` 8 l r.$X=X%X}.E.9. .|           ",
"        ..9.w.E.^.}.=X9X4XW.! 4 t ` O.4.O.O.O.O.4.+.O.O.4.+.5.O.` j 4 R d.4X8X=X@X^.E.q.9.|         ",
"      _  .q.).{..X.X=X9X4XW.l $ O : 4 4 4 4 4 4 4 4 4 4 4 4 4 4 * o @ R W.0X6X=X@X.X}.^.q.| (       ",
"      _ | w.{.$X%X.X X$X_.8.j O . . . . . . . . . . . . . . . . . . o z 5.).OX@X@X@X@X{.p. ._       ",
"      _ ..!.{.%X*X$X~.r.` z 4 o . . . . . . . . . . . . . . . . . . o : z ^ 9.Q.@X#X#X{.p. ._       ",
"      ( [ q.Q.}.}.{.t.W 4 O o o o o o o o o o o o o o O o o o o o o o o @ 4 ~ s.}.$XXX).q.[ )       ",
"      k W { 6.q.r.r.) 0 o . . o o o o . o X o o O o o o o o o . o . o o % i o.z.:X;X].a.4.W k       ",
"      6 8 z l R ! Y e 4 o . o o o o o o o o o o X o o o o o o . o o o : p Z M.H.J.P.B.>.V z 7       ",
"    : 5 6 6 5 6 5 5 : $ O o o o o o o o o o o X o o o o o o O @ @ % % q B =.N.G.U.C.N.&.N u 6 %     ",
"    6 u z z j j 8 4 : $ o o o o o o o o o o o o o o o . o O > w f f f F G -.x.c.b.n.b.c.H x t *     ",
"    k ~ ` } ` ~ R t 7 $ o . o o O X X o o o o . . o o o o O i B G G S K &.=.P G L c.m.m.1.X.~ y     ",
"    } 8.7.e.8.4.) R 0 2 o o o o o o o o o o o o O & & & & q F J =.=.=.K &.K D B H M.G.J.L.f.8.}     ",
"    7.).`.|.Q.t. .( k 4 O o o o o o o . o . o o & w g v v F S =.=.K G A A A B ! } <.L.L.;XoX).7.    ",
"    (.4X0X4X}.Q.q.| U 7 # o o o o o o o O o o o q F G K %.J %.=.K A n v v F N ~ { y.`.+X4X7X4Xd.    ",
"    `.tXuX9X*X[.p. .E 7 O o o o o o O & > > > r f S =.-.%.%.%.%.S F a 1 1 i l Q ..p.^.*X9XuXyX`.    ",
"    oX7XuX9X*X[.!. .E 7 # o o o . o $ q v B B B S %.=.&.G A Z Z n p , ; ; , j Q  .p.^.#X9XuXtX`.    ",
"    `.7XuX9X#X[.w. .E 7 O o O $ o o : g S &.%.%.%.&.%.G n b b b a r $ O o @ 7 E  .p.^.*X6XrX7X`.    ",
"    `.7XrX6X%X[.w...Y 7 o $ r r w q d C &.-.&.K K K G C a w 1 w r & O o o o 7 E  .p.[.%X6XuX7X`.    ",
"    `.7XuX6X%X[.!...U 7 O > f C ' B S K =.=.G Z M Z n f < & & > 2 $ O o o # 7 U  .p.[.%X6XyX7X_.    ",
"    `.7XrX6X%X[.t. .Y e : i Z %.=.P =.=.&.G C b s s a < & O o o # o o o o # 7 E ..w.[.%X6XrX7X].    ",
"    `.7XsX8X%X|.!.#.' F f F J -.=.%.G G G Z b w < < < > $ o o o o # o o o o 7 U ..w.^.%X9XuX7X`.    ",
"    `.9XrX8X%X|.u.>.*.' S G =.=.G Z M M n b q & $ 2 $ $ O o o o o o o o X + 9 E ..w.[.%X9XuX7X`.    ",
"    l.eXeX5XOX'.u.,.&.&.&.P =.G A v a a a w > O O o o # o o o o o # o o . # 0 } 5.a.).$X0XsX7X`.    ",
"    D.I.<X:Xk.u.,.-.=.G G G A Z v w , , r > $ o o o # o o # # o o o o o . + h L B.S.h.].>X7X7X`.    ",
"    v.Y.Y.A.B.,.-.M.G Z n n n v w ; % O $ $ O o o o o o # o o # o o o o o @ m c.G.C.B.i.>XqXtX`.    ",
"    c.F.U.C.N.x.=.K A v a p p 1 ; @ X o X o o o o o + o O O o o o o o o & r A b.U.Z.N.N.;XqX7X X    ",
"    I c.n.C.m.b.x.G v p > ; ; ; % X X . o . . o o o o o o o o o o o o 2 q F G c.C.m.Z.A.<XeX9X_.    ",
"    M P N.C.U.G.x.M p ; X X X % X X . X . o o o o o + o o o O O $ o $ 5 F J P P M.C.U.Y.2XiX9X_.    ",
"    o.i.S.P.T.J.M.N < @ X . . . . . . X o X X o o o o o o o & 5 r r q f S -.P P &.N.J.R.1XiX9X_.    ",
"    g.>X,XwX1X,Xg./ 6 % X . . . . . . X X X X . o o o . . @ q v B B B ' =.M.G A H h.<X1XpXaXuX X    ",
"    d.4X7XiXyX>Xf.l 9 : X . . . X . . X X . . X o X o o O : f S &.&.%.%.P %.A n V u.>XqXaXsX5X(.    ",
"    5.d.)._.).t.} k 9 * @ # X @ X X . X X X X . . . . % , d Z %.-.=.J J G G B a h X.t.'.).(.j.+.    ",
"    z c / ^ ~ ! z 6 : * * * * * = X . . . . . X . . + , v D %.=.=.J C C M n g w q j ! ^ ~ ~ c j     ",
"    6 u u u 8 6 > 6 : 9 3 3 3 * = X X . . X . . X O > d A =.=.=.J B b a a a w r 5 4 6 6 u j u 6     ",
"    / @.@.~ l e 0 6 9 * * * * * = X . . . . . . % , a C %.=.=.J C s 1 , < < r 5 6 8 e l ~ @.@./     ",
"    a.OXoXd.O.~ k t 7 3 * * * * @ X X . . . . . ; v S %.=.&.L M s 1 % % @ % 4 6 z k ~ O.d.oXoXa.    ",
"    `.tXtXOXs. .} T t 9 * * * * # + X @ % - % ; p A =.=.&.J M b 1 - O o o + 2 0 U )  .s.OXtXyX`.    ",
"    oXuXaX-X{.p. .} y 9 2 * * 2 # # * w d g g v C %.-.&.L M v < - @ X . . o 3 y }  .s.|.-XuXuXoX    ",
"    `.tXuX0XXXQ.e.| E t 9 * 2 2 2 2 6 x S %.J J %.&.&.J m s 1 - O X o . o + 7 U [ e.E.$X0XrX7X`.    ",
"    j.>X3X>X`.l.s. .} t 3 2 2 3 9 8 x V %.=.=.K K K J C s 1 ; X . . X . . + 7 E  .!.[.%X9XrX7X`.    ",
"    #.h.k.k.h.g.<.#.' h 2 = * 2 i c D *.=.=.G A Z Z n s 1 ; X X . . X . o + 7 E ..p.[.%X6XyX7X`.    ",
"    Z -.;.;.;.;.-.&.H u : = = : h H &.-.=.K Z v v b b 1 ; X . . X . X . . + 7 U  .w.[.*X6XuX7X`.    ",
"    M K P P P =.-.=.D h * # = : x L =.:.=.J C v s s a < % . . . . X . . . + 7 W  .w.^.#X6XuX7X`.    "
};
