/* XPM */
static char *TileSet_copy_resized[] = {
/* columns rows colors chars-per-pixel */
"50 50 114 2 ",
"   c None",
".  c #04040E",
"X  c #050513",
"o  c #080714",
"O  c #070813",
"+  c #080916",
"@  c #0A0C19",
"#  c #120F1D",
"$  c #0B121C",
"%  c #12111E",
"&  c #0D1422",
"*  c #0F1826",
"=  c #131523",
"-  c #191624",
";  c #121A27",
":  c #1B1926",
">  c #15192A",
",  c #1C1C2B",
"<  c #1B1F30",
"1  c #221F2F",
"2  c #1B2333",
"3  c #23202F",
"4  c #232433",
"5  c #252937",
"6  c #242638",
"7  c #232B3C",
"8  c #2A2B3D",
"9  c #242D43",
"0  c #2B2E40",
"q  c #263045",
"w  c #2D3143",
"e  c #273148",
"r  c #2A3449",
"t  c #2F384F",
"y  c #333343",
"u  c #363845",
"i  c #31394A",
"p  c #383A4B",
"a  c #2E3C54",
"s  c #323E54",
"d  c #3C3F50",
"f  c #313F58",
"g  c #37414F",
"h  c #3A4154",
"j  c #35445D",
"k  c #384158",
"l  c #384660",
"z  c #3A4963",
"x  c #444759",
"c  c #454C5E",
"v  c #484D5E",
"b  c #404E64",
"n  c #404F6A",
"m  c #475062",
"M  c #495466",
"N  c #45526C",
"B  c #49566B",
"V  c #4E5A6D",
"C  c #465672",
"Z  c #4C5770",
"A  c #475874",
"S  c #4B5974",
"D  c #4D5F7C",
"F  c #515D74",
"G  c #505F7A",
"H  c #4E607E",
"J  c #5B6475",
"K  c #52627A",
"L  c #5E677A",
"P  c #5D687D",
"I  c #526481",
"U  c #576987",
"Y  c #5B6B85",
"T  c #5D6F8B",
"R  c #5D708F",
"E  c #5E7291",
"W  c #606C80",
"Q  c #657083",
"!  c #697387",
"~  c #65768C",
"^  c #6A768B",
"/  c #6C7A8A",
"(  c #707E8F",
")  c #617594",
"_  c #667893",
"`  c #6B7C92",
"'  c #667A9A",
"]  c #697E9D",
"[  c #727F95",
"{  c #707F99",
"}  c #6D819E",
"|  c #748195",
" . c #75859C",
".. c #78879E",
"X. c #7A899F",
"o. c #6D82A2",
"O. c #7186A5",
"+. c #7388A7",
"@. c #7B8BA2",
"#. c #748AA9",
"$. c #788DAC",
"%. c #7E91AB",
"&. c #7F94B1",
"*. c #8394AC",
"=. c #8397B2",
"-. c #869AB6",
";. c #8C9EB4",
":. c #879CB9",
">. c #889DB9",
",. c #8EA0B6",
"<. c #8EA2BC",
"1. c #91A4BD",
"2. c #94A8C2",
"3. c #98ADC6",
/* pixels */
"                      a a f f f f a a a a a a a a a a a a a a f f f f f f f f                       ",
"                      l j j s s f l l l j l j l j j j j j j j j f f f s f j l                       ",
"                    z C C l t r f z C C C C C Z A C C A A A A A n s r t b C N z                     ",
"                  j z I U N w 6 s D R E R R R R R R R R R R E R G s 6 0 N U I n f                   ",
"                j z A T _ Z 8 3 h ~ O.#.O.O.O.O.O.O.O.O.O.O.#.O.Q f 3 0 Z ) R A z j                 ",
"              j N S U ' ' Z 8 3 x { :.>.>.>.:.-.>.>.>.-.:.:.<.>.{ x 3 0 Z ' ' U S N l               ",
"            f z D E ' o.' Z 8 3 m @.1.1.1.1.1.1.1.1.<.1.<.2.2.2...m 4 8 Z ' o.] E D z j             ",
"          l z A U ] +.$.O.F 8 1 d W @.*.*.[ @.@.@.@.@...@.@.@.+.Q p 1 8 F o.$.+.] U A z l           ",
"        l C D U ) o.$.:.*.P w = 4 p c v b v c c v v c b c v m b d 2 = y Y *.-.$.o.E U D C l         ",
"      f z S R ' ] ] $.>.=.Y w @ o & = = = = = = = = = = = = - = @ X @ 8 W *.-.$.o.] ] E S l a       ",
"      f z D ' O.O.o.O. .^ M 4 X . . . . . . . . . . . . . . . . . . o 4 M ^  .O.o.O.O.' H z a       ",
"      f z D ' +.#.o.) Z p 6 = X . . . . . . . . . . . . . . . . . . o $ 5 d Z ) o.#.+.' H z j       ",
"      a j S ) ' ] ' G i = o X X X X X X X X X X X . X X . X X . . X X X o = r G ' o.] E S j a       ",
"      7 r k N Z G Z f < X . . X X . X X X X . X X X X X X X X X X X X . . o < d A S S N k r 7       ",
"      : , 6 8 0 w 0 3 # X . . X X X X . . X X X X X . X X X X X X X X . . X # 4 0 w 0 8 4 1 ,       ",
"    % - : : : : : - # @ X X X X . X X X X X X X . X X X X . X X X X X X X X @ # - : : : : - - %     ",
"    ; 3 6 6 4 3 , - % @ X X X X X X X X o X X X X X X X X X X X X X X X X X @ % > , 4 6 6 4 4 :     ",
"    5 u p g d i 0 2 > @ X X X X X X X . X X X X X X X X . X X X X X X X X X @ > 2 0 i p g g i 5     ",
"    g M S V B b s q 2 = X X X X X X X X X X X X . X X X X . . X X X X X X X & < q k b B V V M g     ",
"    V ~ ` _ T G z s 2 & o . X X X . X X X X X X X X X . X O X X X X X X X X * 6 t z K Y _ ` / V     ",
"    Q *.=.$.] T S j 9 > o X X X X X X X X X X X X X X X X X X . X X X X X X > e j S R } %.=.*.P     ",
"    / ,.2.-.+.) I z e > o X X X X X X X X X X X X X o X X X X X X X X X X X > e z H ) +.>.1.,./     ",
"    | ;.2.-.#.E I z e > o X X X X X X X X X X X X X X X X X X o X X X X X + > e z H ) $.>.2.,./     ",
"    / ;.2.:.#.E I z e > o X X X X o o X X X X X o X X X X X X o X X X X X X > e z H ) +.-.<.;./     ",
"    / ;.<.-.+.) I l e > o X X X X + + + X + + X X X + + X + + X + + X X X + > e l I ) +.=.1.;./     ",
"    / ;.1.-.+.) D z e > o X X X + + + X + + + + + X + + + + + + + + + X X + > e z S ) +.-.<.;./     ",
"    / ;.<.-.+.) D z q > o X X X + + + + + + + + X X + X X + + X + X + X X @ > e z D ) +.-.1.;.^     ",
"    / ;.1.-.+.) D l q > o X X X X X X + + X + X X X + + + + + + + + X X X X > e z H ) +.-.1.;./     ",
"    / ;.1.-.+.) H z e > X . X X X X X X + + + + + + + + + + + + X + + X X + > e z D E +.-.1.;./     ",
"    / ;.1.-.+.) D z q > o . X X X X X X X + X + + X + X + X + X X X + X X + > e z D ) +.-.1.;./     ",
"    / ;.<.-.+.) H l q > X . X X X X X X X + X X X + + + + + + + X X X X X X > e l D ) +.-.<.;./     ",
"    / ;.1.-.+.) H l q ; X . X X X X X X X X X X X X + + X + X + X X X X X o > e l I ) +.-.1.;./     ",
"    / ;.1.-.O.) D z r > X . . . O . . . . O O . O o o X X o X X X o o X X o > e z I ) #.:.<.>.^     ",
"    / ;.1.-.O.) D z 9 > O . . . . . . O . O . O . O X X X X X X X o X X X o > e j I E O.-.<.;.^     ",
"    / ;.1.-.+.) D z e > . . . . O . . O . . O O X X X X X X X X X X X X X o > e l I R O.-.1.;./     ",
"    / ;.2.<.=.{ K j 9 & O . . . . . . . O . . . . X X X X X X X X X X X X o > 9 j I ' &.2.2.;.(     ",
"    | ,.1.3.,.@.K g 2 % . . . . O . . . O . . . o X X X X . X X X + + X X + & < s G @.1.3.3.,.[     ",
"    ! *.1.1.;.*.K w : $ O . . . . . O . . . O O X . X X X o X X X X X + X X @ > y F ..,.<.,.*.W     ",
"    v L P / ! L h 5 ; $ @ @ O O O . . O . . . . . o . O . o X X X X X X X X & * 6 h J ! / ! L v     ",
"    4 8 p p u 8 5 : % % $ $ $ % $ O . . . O O . . . . . X . . X X X X X X X @ # 1 4 y p u u 8 4     ",
"    - 3 3 3 : : % % - % * * & $ O O . . . . O . . . . . . O O . X X X X X o @ # # - : , 3 3 3 :     ",
"    u x x g 5 4 3 , ; $ $ & & $ $ O . . . . . . . O . O . . . . . X . X X X @ = - 1 3 5 p x x u     ",
"    J | | L z u 7 2 < ; $ $ $ $ O O . . . . . . O . . . . . . O X X . X . X % > 4 8 t c L | | J     ",
"    | ;.;...K z i w 2 ; $ $ $ $ $ O O O O . . . . . . . O . . O X . X X X o & 2 q i j P  .,.;.|     ",
"    | 1.2.&.E K l j 9 2 * $ $ & $ $ $ $ $ $ O . . . . O O . . . . O . X . X * 2 g j H ~ %.1.1.|     ",
"    | ;.2.&.} R C j e 2 * $ & * & & $ $ $ $ O O . O . . . . O . . . X . X + > 9 j H R o.&.1.;./     ",
"    P ,.<.&.O.E H l r 2 * $ $ * ; $ $ ; $ $ $ . . . O . . O . . . . . . . + ; e z H _ #.,.1.;./     ",
"    | ,.2.&.#.} H z e 2 * $ $ $ & $ $ $ $ $ O . O . O . . O . . . . . . X + > e z H E #.&.,.;./     ",
"    / ,.<.-.+.) H z r 2 $ + $ $ $ $ O $ $ $ O . . . . . O . . . . . . . . + , 9 z D ) +.>.<.;./     ",
"    / ,.1.-.+.E H z r 2 $ $ $ $ $ O $ $ $ O O . . . . . . . . . O . . . . + > r z D ) +.-.1.;.^     "
};
