/* XPM */
static char *M2_resized[] = {
/* columns rows colors chars-per-pixel */
"40 33 173 2 ",
"   c None",
".  c #2B1E21",
"X  c #3F1722",
"o  c #361E24",
"O  c #252725",
"+  c #292625",
"@  c #252827",
"#  c #282827",
"$  c #262C29",
"%  c #2C2C2B",
"&  c #36272B",
"*  c #3C242B",
"=  c #322A2B",
"-  c #2F302E",
";  c #30302F",
":  c #3C2D30",
">  c #2E3430",
",  c #343432",
"<  c #3B3635",
"1  c #373936",
"2  c #383836",
"3  c #3C3C3A",
"4  c #421B26",
"5  c #451E29",
"6  c #4E1A29",
"7  c #541D2D",
"8  c #5B1B2E",
"9  c #561628",
"0  c #620F28",
"q  c #66142C",
"w  c #6B152E",
"e  c #62192E",
"r  c #72122F",
"t  c #710E30",
"y  c #6F1630",
"u  c #631D31",
"i  c #6B1A31",
"p  c #751330",
"a  c #7B1531",
"s  c #7C1933",
"d  c #43232B",
"f  c #4B222D",
"g  c #4C292E",
"h  c #54372F",
"j  c #59362E",
"k  c #432E33",
"l  c #492B33",
"z  c #532431",
"x  c #542B36",
"c  c #5D2C3A",
"v  c #592433",
"b  c #423235",
"n  c #423D3C",
"m  c #4C3837",
"M  c #503D37",
"N  c #593D32",
"B  c #72332F",
"V  c #632334",
"C  c #652B34",
"Z  c #6C2F38",
"A  c #692B33",
"S  c #742333",
"D  c #7B2B37",
"F  c #74353E",
"G  c #59512C",
"H  c #41413F",
"J  c #7D602E",
"K  c #434342",
"L  c #4C4B4C",
"P  c #454845",
"I  c #5A484F",
"U  c #525355",
"Y  c #56585A",
"T  c #704F42",
"R  c #775649",
"E  c #5D5D60",
"W  c #67686B",
"Q  c #776865",
"!  c #726069",
"~  c #6A6D70",
"^  c #756970",
"/  c #78787D",
"(  c #747378",
")  c #811732",
"_  c #841B34",
"`  c #8B1C34",
"'  c #931E36",
"]  c #862137",
"[  c #882432",
"{  c #8D2D31",
"}  c #872338",
"|  c #892539",
" . c #822939",
".. c #942136",
"X. c #9B2237",
"o. c #922E32",
"O. c #962338",
"+. c #9E2438",
"@. c #9E293A",
"#. c #8A3130",
"$. c #923331",
"%. c #94303E",
"&. c #A02438",
"*. c #A63D36",
"=. c #A5343F",
"-. c #875B36",
";. c #A44532",
":. c #AC5431",
">. c #AA5F33",
",. c #B95C33",
"<. c #AA6933",
"1. c #BB6731",
"2. c #B67632",
"3. c #CE7532",
"4. c #D17E33",
"5. c #9D3C43",
"6. c #AA3C43",
"7. c #8D5342",
"8. c #9D5B4A",
"9. c #915342",
"0. c #AB444C",
"q. c #B64648",
"w. c #BA534D",
"e. c #BF5956",
"r. c #976C5F",
"t. c #936457",
"y. c #A96554",
"u. c #995564",
"i. c #846F69",
"p. c #847573",
"a. c #847B7C",
"s. c #B56467",
"d. c #B87767",
"f. c #C86655",
"g. c #D16B5A",
"h. c #C6705A",
"j. c #D2705B",
"k. c #C17766",
"l. c #CE7564",
"z. c #C87A67",
"x. c #CB7C6C",
"c. c #D57664",
"v. c #D67965",
"b. c #D37B6B",
"n. c #CD7F70",
"m. c #DC7E70",
"M. c #C98A33",
"N. c #DA8432",
"B. c #CC9232",
"V. c #C99B33",
"C. c #DD9632",
"Z. c #D7A732",
"A. c #DDAC32",
"S. c #D98171",
"D. c #7A7B80",
"F. c #8B8283",
"G. c #86888D",
"H. c #87858A",
"J. c #93898C",
"K. c #988E91",
"L. c #908C92",
"P. c #949095",
"I. c #949299",
"U. c #9A989F",
"Y. c #9E9EA5",
"T. c #B2A5A7",
"R. c #B0AFB8",
"E. c #DE8E80",
"W. c #CD9083",
"Q. c #E29486",
"!. c #BEBEC8",
"~. c #BBBDC6",
"^. c #CAC4CB",
/* pixels */
"                                        % % % % % % %                           ",
"                      % = % % ,           , , , 2 3 3 % ,                       ",
"                      ; , , 2 3 ; ,         % % , 2 2 1 3 1 ,                   ",
"                        $ % , 1 2 3 ; , ,       $ , , 1 2 2 3 1                 ",
"                            % 1 2 2 2 3 2 , 3 2 7 7 7 v z : 1 3 2               ",
"                              % , 2 1 1 2 3 3 n c a ' ` r S D V 3 2             ",
"                              % % & 8 x 2 2 2 2 2 m F X.' X.&...V n %           ",
"                              % , , v p i i y i b < n F &.` ..+.' V =           ",
"% =                           % 7 r r ` +._ ' a O.| V Z &.X.) ' _ X.S $         ",
"& e %                       % k l r s X.&.+.+._ +.+.O.&.X.' o.*.;.#.S &         ",
"& u , %                     % y r a ) ` &.+.+.+.&.' _ ' _ #.B.A.Z.2.#.9         ",
"& i : %                     * w a ` &.&.+.&.+.....,.;.t p 1.A.A.V.-.1.B G       ",
"& r 8 , , >               % 8 p a ` ` &.+.+.` a :.B.<.$.t ,.C.C.M.-.,.:.J       ",
"& w u 3 2 ,               $ q p a ` ..+.&.&.' a ;.4.<.{ y { 3.N.4.<.o.[ j       ",
"  f w l 3 ,               5 r r r ` +.+.+.X.&...' $.[ s ' ' o.$.o.o.' ' ] g     ",
"  * r q l 3 ,     % %   % , b b b q a a ' &.+.&.+.` a _ _ O.' ' ' ' +.' ` g $   ",
"  & q p q l n = % 2 2 ; 1 1 2 2 2 < < A +.+.X.X...%.j.x.v.5.] } _ } _ 5.x.0.d - ",
"    d i y p q k 1 , , 2 2 2 2 2 2 2 3 x _ | [ | %.j.d.T R y.W.S.Q.z.S.7.F.u.* H ",
"% % % - f u e 6 = , 2 1 1 2 2 2 2 3 3 6 %.j.v.y.v.W.Q / T.( I.L Y.U K.h J.E O 2 ",
"% , 2 2 , - - ; 1 1 2 2 2 2 2 3 3 2 8 r ) q.v.M S.G.( Y.~ Y O % O L D.h N O % % ",
"  % , , 1 2 2 2 1 1 1 2 2 3 n 2 < 8 p p p ' f.m k.+ L ! X X 5 % d O P I.U       ",
"        % ; , 3 n n n K K 2 1 7 8 p p p r ) 6.8.z.L D.. 9 0 4 = d 4 K !.G.      ",
"              , , , , , 1 %   d p q p p p p ..g.h.i.R.W ^ o P.H # I J.r.s.f     ",
"                              = e d p p p p a =.g.d.F.p.p.N ^.L H !.J.8.q.g     ",
"                                = * p p p p p a @.6.l.S.l.7.P.L.R t.l.e.C       ",
"                                  & y q q p p p p s +.@.+.w.b.m.v.w.@.A         ",
"                                    d f 7 p p 9 p p p y u ` ' ' O. .7           ",
"                                      % f 8 p & p p p 7 > c V V c 2             ",
"                                          % f & p a p 7 , H P P 2               ",
"                                                d 6 f * % H P K %               ",
"                                                        % 1 K 1                 ",
"                                                          % 1 %                 ",
"                                                            % %                 "
};
