/* XPM */
static char *M3_resized[] = {
/* columns rows colors chars-per-pixel */
"40 32 170 2 ",
"   c None",
".  c #2E2E2D",
"X  c #3D262C",
"o  c #332D2E",
"O  c #3C2A2E",
"+  c #2D302E",
"@  c #31302F",
"#  c #3A312E",
"$  c #3C2E31",
"%  c #343432",
"&  c #3B3435",
"*  c #363836",
"=  c #383837",
"-  c #3B3B39",
";  c #481A26",
":  c #4D1C2A",
">  c #571729",
",  c #5E172B",
"<  c #551829",
"1  c #5B1B2D",
"2  c #60172C",
"3  c #661A2F",
"4  c #641E31",
"5  c #6C1C32",
"6  c #741A33",
"7  c #7C1C34",
"8  c #46252E",
"9  c #4B232E",
"0  c #42292F",
"q  c #48282F",
"w  c #44372F",
"e  c #4D2630",
"r  c #472B31",
"t  c #4B2C34",
"y  c #522430",
"u  c #5B2332",
"i  c #532C34",
"p  c #5C2B32",
"a  c #453436",
"s  c #4B3137",
"d  c #413738",
"f  c #4A3439",
"g  c #423D3C",
"h  c #59333C",
"j  c #622434",
"k  c #6A2335",
"l  c #652C38",
"z  c #6A2B38",
"x  c #722236",
"c  c #7F2638",
"v  c #792C37",
"b  c #6E373E",
"n  c #613239",
"m  c #3E403E",
"M  c #41403F",
"N  c #4B3D40",
"B  c #523840",
"V  c #5A3B42",
"C  c #434442",
"Z  c #494947",
"A  c #484748",
"S  c #48494A",
"D  c #504846",
"F  c #574B48",
"G  c #5C4B51",
"H  c #595457",
"J  c #57585B",
"K  c #5E5B5D",
"L  c #6D4B42",
"P  c #774C42",
"I  c #725148",
"U  c #795548",
"Y  c #634D55",
"T  c #6E5A55",
"R  c #795F56",
"E  c #745B56",
"W  c #6F6360",
"Q  c #666568",
"!  c #676769",
"~  c #746F6F",
"^  c #7B6A66",
"/  c #727175",
"(  c #79797E",
")  c #821F36",
"_  c #852236",
"`  c #8A2237",
"'  c #852A34",
"]  c #862639",
"[  c #8D2338",
"{  c #8B2B3B",
"}  c #842F3A",
"|  c #922D37",
" . c #952539",
".. c #99273A",
"X. c #942B3C",
"o. c #9E293B",
"O. c #8E313E",
"+. c #803233",
"@. c #923A34",
"#. c #91303E",
"$. c #A0293B",
"%. c #A3363A",
"&. c #934834",
"*. c #A44B34",
"=. c #AA5334",
"-. c #9D7238",
";. c #A86936",
":. c #AD7D35",
">. c #BC7C35",
",. c #B97437",
"<. c #C26A34",
"1. c #C87936",
"2. c #923340",
"3. c #A73441",
"4. c #AF3E45",
"5. c #A63643",
"6. c #AD4245",
"7. c #AC4348",
"8. c #A04D48",
"9. c #A34546",
"0. c #B04046",
"q. c #B5464A",
"w. c #A55F4E",
"e. c #B85957",
"r. c #85685E",
"t. c #856256",
"y. c #AE6857",
"u. c #AD695B",
"i. c #B46454",
"p. c #BB6757",
"a. c #817879",
"s. c #A8786B",
"d. c #B57161",
"f. c #B87768",
"g. c #C35C53",
"h. c #CD6C5B",
"j. c #C6685C",
"k. c #C96F63",
"l. c #CA7262",
"z. c #C97C6F",
"x. c #D37B65",
"c. c #AA8137",
"v. c #B88E36",
"b. c #C68536",
"n. c #DC8535",
"m. c #CE9236",
"M. c #D89635",
"N. c #DEA835",
"B. c #BE8173",
"V. c #CF8174",
"C. c #CE897D",
"Z. c #D1887A",
"A. c #D48679",
"S. c #E7846D",
"D. c #857D80",
"F. c #85858B",
"G. c #89868A",
"H. c #8B8E95",
"J. c #968D91",
"K. c #95949A",
"L. c #A5808B",
"P. c #B38A83",
"I. c #A3A6B0",
"U. c #A9AAB2",
"Y. c #BAB0B5",
"T. c #DB8D80",
"R. c #D29589",
"E. c #C2A7AA",
"W. c #B3B6C1",
"Q. c #C2C0C9",
/* pixels */
"                                          % @ @ @ % %                           ",
"                        % % % % *         % * * - - - % *                       ",
"                        % % * - - * *       + + % - - - g - -                   ",
"                              % - g = * - @ + + . % % - - - - -                 ",
"                              % - - - - g - C M p 4 k j u a - g -               ",
"                                o % & d - - - - N x X.[ 6 X.X.j g *             ",
"                                + % r k s s s s - - V X... .o. .z *             ",
"                                $ t i 5 ) ) 7 7 z n f b $.`  . .` z             ",
"                              % & j 6 ` o... ._  .o.] { o...7  .)  .e           ",
"                              O j 5 6 ) o.o.$. .o...[ o.` ' >.b.v.&.4 o         ",
"                              $ 6 6 [ ..o.o.o.....%.X.6 6 1.N.v.c.N.v w         ",
"                              O 6 )  .o.o.o...) @.m.;.' 6 1.N.c.;.M.@.:.@       ",
"                              e 6 7 ) ..o.o. .6 =.1.;.@.6 =.n.1.,.<.' &.+       ",
"                            o 1 6 ) ..$.$.o.o. .[ *.@.7 [ ` &.*.*.| ` _ p       ",
"                          @ * r s u 7 7 ) $.$.$.$.) 6 7 _ X. .[ ) o.o.` k +     ",
"                        % = - - - - a f  .........2.j.l.k.#.] [ ] ] { p.e.p +   ",
"                      % - - - - - - - C x { { { O.h.f.U t.u.A.Z.A.z.i.R L.p - * ",
"    @ % % %       % % - - - = - - - m r } p.i.y.l.R.^ a.Y.! G.Q / F.T E G.. - % ",
"    % = - - % % % - - = - = - - C m t 5 X.8.y.L d.a.( K.! C . . . / Z w.. . .   ",
"O e . % % % - - - - - - - - C m - t 5 6 7 0.S.I d.# S Y ; ; 8 O 0 + J.u.o       ",
"O j - * * - % % - C C C C C * r 4 5 6 6 6 [ g.L d.a : > 2 2 2 9 9 O H.G @       ",
"$ 5 i a - C @ o $ & $ $ & o o O 6 6 6 6 6 7 q.P d.g h > 1 1 < 1 1 X C U.%       ",
"o 1 5 3 t s i 5 6 6 6 6 6 1 9 O 4 6 6 6 6 6 ` g.x.W I.Z h y H O : G F E.s       ",
"  X 1 6 6 6 6 6 6 6 6 3 y O .   e 1 4 6 6 6 7 7.h.s.K.G.~ D Q.. J W.r.h.v +     ",
"    O e 4 6 6 6 6 5 9 X         O O u 6 6 6 6 ) 6.e.f.V.d.U I.K ^ P.d.9.i       ",
"        X $ 0 0 0 O               . u 6 3 6 6 6 7 _ 4.q.7.i.C.Z.p.6.6.i         ",
"                                    $ u 8 6 6 4 5 6 7 6 6 o.3.3.5.] q           ",
"                                      o O 4 5 9 3 6 6 y * l k k h *             ",
"                                          + e $ 4 7 6 y * C S C =               ",
"                                                e y y O % C S m                 ",
"                                                        + - C *                 ",
"                                                          % = o                 "
};
