/* XPM */
static char *M5_resized[] = {
/* columns rows colors chars-per-pixel */
"40 34 178 2 ",
"   c None",
".  c #26292A",
"X  c #2E2E2D",
"o  c #272524",
"O  c #3D262C",
"+  c #342D2E",
"@  c #3C2B2E",
"#  c #2B302E",
"$  c #30302F",
"%  c #3B2D30",
"&  c #2F3230",
"*  c #343432",
"=  c #383031",
"-  c #393937",
";  c #3C3C3A",
":  c #4C1B28",
">  c #561C2C",
",  c #5C192C",
"<  c #5E1F30",
"1  c #631B2F",
"2  c #60172C",
"3  c #641D31",
"4  c #6C1B31",
"5  c #741A33",
"6  c #7B1D34",
"7  c #701633",
"8  c #42252D",
"9  c #49232D",
"0  c #41292F",
"q  c #4E282E",
"w  c #53212F",
"e  c #472730",
"r  c #4C2630",
"t  c #462A31",
"y  c #492C33",
"u  c #532431",
"i  c #5C2332",
"p  c #532C36",
"a  c #5C2A34",
"s  c #443236",
"d  c #4E3037",
"f  c #463538",
"g  c #4C3339",
"h  c #403A3A",
"j  c #4A3B3D",
"k  c #4B3A30",
"l  c #632233",
"z  c #692134",
"x  c #6B2538",
"c  c #692A33",
"v  c #7D2335",
"b  c #762637",
"n  c #633239",
"m  c #79353D",
"M  c #3E403D",
"N  c #40403F",
"B  c #5B443D",
"V  c #513E40",
"C  c #424341",
"Z  c #484947",
"A  c #4B4A4B",
"S  c #45484A",
"D  c #514041",
"F  c #4D4E50",
"G  c #4D5051",
"H  c #56585A",
"J  c #614944",
"K  c #62524D",
"L  c #755149",
"P  c #7C5246",
"I  c #67575A",
"U  c #775D53",
"Y  c #6C615F",
"T  c #76615B",
"R  c #5E6063",
"E  c #766A68",
"W  c #757174",
"Q  c #797378",
"!  c #811E36",
"~  c #8A1F38",
"^  c #881F36",
"/  c #842236",
"(  c #8B2137",
")  c #8D2238",
"_  c #812839",
"`  c #8B2C3A",
"'  c #862F34",
"]  c #942539",
"[  c #99273A",
"{  c #972E3D",
"}  c #9D293B",
"|  c #883537",
" . c #933B34",
".. c #92323F",
"X. c #9B313F",
"o. c #923536",
"O. c #A02C3D",
"+. c #994133",
"@. c #905F38",
"#. c #A54B34",
"$. c #AD5C36",
"%. c #A25435",
"&. c #B35E35",
"*. c #866735",
"=. c #9E6E38",
"-. c #9A6832",
";. c #AA6534",
":. c #BA6039",
">. c #C57235",
",. c #C97235",
"<. c #C57E37",
"1. c #D27A35",
"2. c #9C3542",
"3. c #903840",
"4. c #9A3C46",
"5. c #AB3A43",
"6. c #A83A43",
"7. c #9E404A",
"8. c #8B5749",
"9. c #8A5B4C",
"0. c #865345",
"q. c #9B5B4A",
"w. c #995148",
"e. c #905F53",
"r. c #A94B4C",
"t. c #A54647",
"y. c #B14046",
"u. c #B54648",
"i. c #AB4C50",
"p. c #AC5F52",
"a. c #9A6356",
"s. c #906258",
"d. c #AA6857",
"f. c #BD6655",
"g. c #B56C58",
"h. c #B8715D",
"j. c #8E6B64",
"k. c #8D7169",
"l. c #897874",
"z. c #B96665",
"x. c #A0766D",
"c. c #B7796A",
"v. c #CD5F56",
"b. c #C26D5D",
"n. c #CF6F5F",
"m. c #C66054",
"M. c #C87967",
"N. c #D57766",
"B. c #B28937",
"V. c #C18734",
"C. c #D28535",
"Z. c #DB8935",
"A. c #C89936",
"S. c #DE9F35",
"D. c #DCAB35",
"F. c #DFB035",
"G. c #B2877F",
"H. c #CB8476",
"J. c #D98A7D",
"K. c #E18067",
"L. c #787A81",
"P. c #9C8683",
"I. c #8B8B90",
"U. c #9B8590",
"Y. c #8E9096",
"T. c #9F9596",
"R. c #B88B87",
"E. c #9297A1",
"W. c #AFA3A8",
"Q. c #A2A2A9",
"!. c #ACADB6",
"~. c #ABAEB8",
"^. c #B1B2BB",
"/. c #CFA59F",
"(. c #CBB6BA",
"). c #EAB3AC",
"_. c #BEBEC7",
"`. c #C4C3CB",
/* pixels */
"      * *                               + & * * $ *                             ",
"      * N -       * * $ * * * *         * * * - ; N * * *                       ",
"      * ; C * * * ; ; * * - ; ; - *       X X * - ; ; M ; - -                   ",
"      * ; y p a p s M * X + * ; M ; * ; *     X * * - - ; ; M *                 ",
"    * t a 4 5 5 5 3 s *     * - - ; ; ; - N M d < a l i y - M M *               ",
"    * p 7 5 5 5 5 7 p * X X X * * ; ; - ; ; M V x ) ] 5 v ` b f ; *             ",
"  * t 4 5 4 5 5 5 5 4 s - C * X * 8 z f h ; h ; ; V { ] [ } } v V &             ",
"  & p 5 3 @ > 5 5 5 5 y - *   * s f z 6 6 5 5 a j f V { ] ( } ] v y             ",
"  & d 6 e   = 3 5 5 5 3 y *   % 3 5 ! [ [ ( ( ^ } / n } } ( ~ ~ ^ ` +           ",
"  * p 5 e     @ 4 5 5 5 3 g % p l 5 ( [ } } ] ] } ] } } ( o.$.&.%.' 9           ",
"  * p 5 e     + > 5 5 5 5 3 t 5 5 6 ^ [ } } O.O.} ~ ~ ! ` V.F.B.D.;.3 X         ",
"  & p 6 e       @ 4 5 5 5 r > 5 / } O.O.} } ] ! $.<.v 5  .S.D.*.B.C.| *.        ",
"    t 6 e         u 5 5 4 @ 4 5 5 6 ] O.O.] 5 +.C.=.:.5  .C.Z.-.<.,. .-..       ",
"    8 4 e           u 5 4 8 5 5 / [ [ O.} } ) 6 &.>.' 5 6 #.1.>.,.' 6 c *       ",
"      9 8           + 9 @ u z z 4 ( [ [ } } } } ) v 5 ] ] ] v / / [ [ ] l       ",
"      9 8           X * * - ; - s i l ! } O.} } ] ` 4.7.2.~ ) ~ ( ) ] 4.m =     ",
"      8 @           $ - ; ; ; ; ; ; M _ ( ( / ( ..n.h.h.d.t.r.r.r.r.t.c.z.w * * ",
"+ $ $ # #       + * - ; ; - ; - ; h ; l t.r.r.r.n.h.E U P.G.R./.x.R.0.W U.O C * ",
"# - - * * X + $ - - ; ; - ; ; ; M ; u ` f.8.d.q.).Y ~.E ^.S S H C ^.j j.A X *   ",
"  * ; - - - - - ; - - ; ; ; M C ; u 5 ! 5.b.e.9.j.; _.C Z X X . + F J q..       ",
"    $ $ - - - ; ; ; ; M ; C N = u 5 5 5 X.N.a.s.L . M + + + + + + C (.8.X       ",
"        $ $ * N N C C N M * t 4 5 5 5 5 6 y.9.e.L . O , , , 9 : O ; L.A X       ",
"              # + $ $ # + # @ 5 5 5 5 5 5 O.w.g.L R u : 2 : : e > o R !.o       ",
"                            @ l 4 5 5 5 5 ! u.K.L `.H W : I H O r Q T R.q       ",
"                              t i , 5 5 5 5 { m.f.W.I Q.k T.Y.. Y.^.9.m.c       ",
"                              @ + i 5 5 5 5 5 { y.z.M.H.q.l.Y.K k.c.b.| s       ",
"                                # i 5 1 5 5 5 5 6 { 5.5.y.M.J.J.m.5.3.0         ",
"                                  + i @ 5 5 4 3 5 5 6 4 v O.O.O.2.z +           ",
"                                    + + l 4 i u 5 5 5 + g c x x j *             ",
"                                        # 0 8 u 5 5 4 * M Z Z C *               ",
"                                            # t u u u $ ; Z Z -                 ",
"                                                      # * C h *                 ",
"                                                          - *                   ",
"                                                          $ $                   "
};
