/* XPM */
static char *tile000_resized[] = {
/* columns rows colors chars-per-pixel */
"20 20 55 1 ",
"  c None",
". c #914807",
"X c #914907",
"o c #924907",
"O c #934A07",
"+ c #934B08",
"@ c #954D08",
"# c #964E08",
"$ c #9B5109",
"% c #995209",
"& c #9C5409",
"* c #9F5409",
"= c #9F5509",
"- c #9F590B",
"; c #A05A0B",
": c #A15B0B",
"> c #A4590A",
", c #A75E0B",
"< c #AD6B0F",
"1 c #AF6D0F",
"2 c #B3660D",
"3 c #B3670D",
"4 c #BE710E",
"5 c #B27010",
"6 c #B47411",
"7 c #B67611",
"8 c #B77712",
"9 c #B87812",
"0 c #BD7B12",
"q c #BC7D13",
"w c #BD7E13",
"e c #C0720F",
"r c #CA7E11",
"t c #BF8114",
"y c #C08214",
"u c #C08314",
"i c #C18314",
"p c #C28515",
"a c #CE8E16",
"s c #D78E15",
"d c #D49B1A",
"f c #D59B1A",
"g c #DC9918",
"h c #D89F1B",
"j c #DAA31B",
"k c #DDA41B",
"l c #DDA51C",
"z c #E0AA1D",
"x c #E6B01E",
"c c #E9B01E",
"v c #ECB41F",
"b c #E9B520",
"n c #EBB620",
"m c #EBB720",
"M c #EDBA21",
/* pixels */
"                    ",
"                    ",
"                    ",
"                    ",
"              --    ",
"             <zz<   ",
"   X....o++o8jMMj7  ",
"  5pitip032$uvggvyX ",
" .9fhmldae4*ucsscy. ",
"   @;k1+###Owxnnxq. ",
"    &r,X    %6bb6%  ",
"     >=      :<<:   ",
"                    ",
"                    ",
"                    ",
"                    ",
"                    ",
"                    ",
"                    ",
"                    "
};
