/* XPM */
static char *P0_resized[] = {
/* columns rows colors chars-per-pixel */
"50 50 174 2 ",
"   c None",
".  c #190D15",
"X  c #170C13",
"o  c #1B111B",
"O  c #120F25",
"+  c #1D1521",
"@  c #1B1B32",
"#  c #231B26",
"$  c #25263E",
"%  c #2F2A39",
"&  c #282639",
"*  c #302C3C",
"=  c #482932",
"-  c #753926",
";  c #643C3C",
":  c #1C2343",
">  c #212746",
",  c #222846",
"<  c #2A2A42",
"1  c #262C4A",
"2  c #282E4C",
"3  c #312E48",
"4  c #2B304E",
"5  c #343449",
"6  c #3A3A4E",
"7  c #393447",
"8  c #2D3350",
"9  c #323753",
"0  c #333956",
"q  c #353B59",
"w  c #383E5B",
"e  c #3B3851",
"r  c #3C425D",
"t  c #3C4565",
"y  c #3F4867",
"u  c #44465A",
"i  c #5D4958",
"p  c #674245",
"a  c #744946",
"s  c #764E4C",
"d  c #754541",
"f  c #755250",
"g  c #434964",
"h  c #494D66",
"j  c #444C6A",
"k  c #484F69",
"l  c #47506F",
"z  c #4B516B",
"x  c #50556E",
"c  c #4C5573",
"v  c #4F5876",
"b  c #545B75",
"n  c #585D74",
"m  c #535C7A",
"M  c #715D69",
"N  c #735C64",
"B  c #6E5A69",
"V  c #56607E",
"C  c #59617E",
"Z  c #70606F",
"A  c #62677D",
"S  c #736272",
"D  c #DA5F09",
"F  c #FE6E01",
"G  c #FF7201",
"H  c #DA5F2D",
"J  c #D97E3E",
"K  c #FF6E2C",
"L  c #FD6F30",
"P  c #FF7231",
"I  c #886E72",
"U  c #81707B",
"Y  c #9A7B78",
"T  c #DC8817",
"R  c #FFA50E",
"E  c #FFA313",
"W  c #FFA913",
"Q  c #B18247",
"!  c #B29268",
"~  c #A3837F",
"^  c #C89344",
"/  c #DCA34C",
"(  c #E18562",
")  c #5A6583",
"_  c #5F6987",
"`  c #5E6A8A",
"'  c #626D8C",
"]  c #686C82",
"[  c #6A7086",
"{  c #65708E",
"}  c #6F7488",
"|  c #75798D",
" . c #7C7B89",
".. c #667291",
"X. c #697594",
"o. c #6E7996",
"O. c #6D7A99",
"+. c #737C96",
"@. c #727E9B",
"#. c #837888",
"$. c #7D8294",
"%. c #76819C",
"&. c #7B849C",
"*. c #7D89A5",
"=. c #8E818B",
"-. c #868A9B",
";. c #898D9D",
":. c #828498",
">. c #A68F8F",
",. c #848DA5",
"<. c #818DA9",
"1. c #8F93A2",
"2. c #8591AC",
"3. c #8B94AC",
"4. c #8F98AF",
"5. c #9094A4",
"6. c #999CAC",
"7. c #9398AA",
"8. c #8D9AB6",
"9. c #929BB2",
"0. c #929FB9",
"q. c #989FB2",
"w. c #9BA0AF",
"e. c #9BA1B3",
"r. c #94A1BB",
"t. c #9CA5BA",
"y. c #BFABA9",
"u. c #AAACBB",
"i. c #A3A8B7",
"p. c #DBB8AC",
"a. c #9DAAC3",
"s. c #93A4C2",
"d. c #A4AFC5",
"f. c #ACB4C4",
"g. c #AEB7CB",
"h. c #B2B7C2",
"j. c #B7BAC4",
"k. c #BDBDC5",
"l. c #B5BDCD",
"z. c #B0BED0",
"x. c #BCC1CC",
"c. c #B4C1D3",
"v. c #BDC4D1",
"b. c #C3C6CE",
"n. c #DAD0CF",
"m. c #C1C7D3",
"M. c #C6CAD3",
"N. c #CBCDD3",
"B. c #C5CCD9",
"V. c #C9CED9",
"C. c #CED0D6",
"Z. c #CDD2DB",
"A. c #D7D5D8",
"S. c #D1C5C5",
"D. c #FEDFD1",
"F. c #FCE6DB",
"G. c #FDE0D2",
"H. c #CFD8E3",
"J. c #D5D9E2",
"K. c #D9DEE5",
"L. c #E1DFE1",
"P. c #DDE0E6",
"I. c #DDE2EA",
"U. c #DFE8F2",
"Y. c #E3E6EB",
"T. c #E5E8EE",
"R. c #E5E7EB",
"E. c #E7EBF1",
"W. c #E9EDF0",
"Q. c #EEF1F4",
"!. c #F2F5F6",
"~. c #F4F7F8",
"^. c #F7F9FA",
"/. c #FDFEFE",
/* pixels */
"                                                                                                    ",
"                                                                                                    ",
"                                                                                                    ",
"                                                                                                    ",
"                                                                                                    ",
"                                                                                                    ",
"                                                                                                    ",
"                                                                                                    ",
"                                                                                                    ",
"                                                                                                    ",
"                                                                                                    ",
"                                      4 4 4 4 4 4 4 4 4                                             ",
"                                    b 1.5.5.5.5.5.5.+.V w                                           ",
"                                k g :.Q././././././.K.r.m q t                                       ",
"                          , , | N.C.P././././././././.I.e.*.%.k <                                   ",
"                        A $.$.h././././.J.v.v.v.v.m.m.x.0.2.<.' c                                   ",
"                  r r r 6.^.^.^./././.W.t...X.X.X.X.X.X.....X.2.O.q                                 ",
"                2 -.b.x.Y./././././.K.0.O...{ { ....{ ........@._ 8                                 ",
"              g } b././././././././.C.o.` ....) v v ) ..........m 8 ,                               ",
"            4 [ P./././././././././.B.o.{ ..' c q q c ........X.V r 8 4                             ",
"          w ;.M.^./././././././.!.x.3.X...) l &.j.j.7.X.......' ,.u.A 1                             ",
"          w j./././.^.I.T./././.Q.4.` ..X.m 8  .N.N.e.....X.....,.k.[ <                             ",
"          w h./././.P.3.l./././.Q.9.' ..X.m , & 7 5 z { ..{ ....C 6 4 8                             ",
"            | ;.-.;.:.{ f./././.Q.9.` ..X.m & O O O w ] h 6 r ) v @ 9 l 0                           ",
"            2 2 2 1 q ' l./././.Q.9.{ ....V 4 $ $ $ k ) % X + u z 5 c ) 0 1                         ",
"                  , t *.B./././.Q.9.' ..{ { ) ) C C ' ) % . o # 7 m { ) 0 1                         ",
"                  > z f.T./././.Q.4.` { ......X.X.X.X._ % o o . * ' X.) 0                           ",
"                  : n A././././.Q.t.o.X.........X.{ X._ * o o o < ` X.) 0 2                         ",
"                  : n Y././././.^.T.h.O.............X._ 0 $ $ + % _ O.) 0 1                         ",
"                    x i.A./././././.Z.o.' ............` z y t e u ' ) c 0                           ",
"                      q 7./././././.Z.*...........{ X.o.X.....{ ' ..j 8                             ",
"                      1 1./././././.Q.B.2.` ' ' ' ' r.v.t.2.*.%.....j 2                             ",
"                      4 $.N.~./././././.x.4.4.4.4.4.N.~.l.0.0.<.X.) t 1                             ",
"                        8 n C./.^.^.^./.~.Q.Q.!.!.!.^.Q.g.0.0.0.+.w                                 ",
"                        : 5 I >.Y Y p.^././././././.E.c.a.r.r.X.c                                   ",
"                          < = ; s p S S.n.n.n.Y.W.E.B.r.0.9.:.g 1                                   ",
"                            <  .A.u. .s a a f =.d.d.a.0.0.#.p 7 2                                   ",
"                            1 :.^.E.k.>.N i Z S B S S S S B i e 2                                   ",
"                            1 $.^././.^.u.,.3.S d - - - - f ' y 2                                   ",
"                            1 $.^./././.Q.m.*.u.p.H D T T Q [ t 1                                   ",
"                            2 ] v.Q./././.K.%.c.F.P F E W ^ ' t 2                                   ",
"                            2 t @.J./././.J.*.c.D.L F E E ^ [ t 1                                   ",
"                            2 t X.J./././.J.%.z.D.K F R R ^ [ t 2                                   ",
"                            2 b e.v.V.N.V.x.t.J.F.( J / / ! [ t 1                                   ",
"                            1 $.Y.t.@.%.+.0.T./.E.u.6.q.e.2.{ t 4                                   ",
"                            : $.~.K.v.m.m.J./.T.z.a.s.0.*.O...) k 8                                 ",
"                            n e.^././././.!.V.q.@.@.<.2.O.......) t 0                               ",
"                          h b.!./././././.N.n w w w v X.........' _ j 2                             ",
"                        : h Z././././.^.h.| q       q l _ ......X...j 2                             ",
"                          k C././././.!.| >           0 ) X.....X.' j 2                             "
};
