/* XPM */
static char *P1_resized[] = {
/* columns rows colors chars-per-pixel */
"50 50 171 2 ",
"   c None",
".  c #190E16",
"X  c #160A11",
"o  c #1B111B",
"O  c #1E1B2D",
"+  c #201A28",
"@  c #2F2A39",
"#  c #282538",
"$  c #312E3D",
"%  c #382839",
"&  c #5E383B",
"*  c #663C3D",
"=  c #6A3B38",
"-  c #1D2343",
";  c #202645",
":  c #232847",
">  c #262C4A",
",  c #282E4C",
"<  c #2B2D46",
"1  c #2A304E",
"2  c #373445",
"3  c #353449",
"4  c #393046",
"5  c #2F3654",
"6  c #303653",
"7  c #323956",
"8  c #3E3B51",
"9  c #343B5A",
"0  c #383E5A",
"q  c #5C3B41",
"w  c #3D425D",
"e  c #3E4055",
"r  c #3D4562",
"t  c #524151",
"y  c #674144",
"u  c #7C534F",
"i  c #674E58",
"p  c #7B5351",
"a  c #414763",
"s  c #434964",
"d  c #484D67",
"f  c #424A69",
"g  c #494E68",
"h  c #4D536D",
"j  c #4B5574",
"k  c #555B74",
"l  c #535D7B",
"z  c #515770",
"x  c #705A64",
"c  c #56607F",
"v  c #5B627C",
"b  c #78636E",
"n  c #60647B",
"m  c #656A7F",
"M  c #776572",
"N  c #796977",
"B  c #73727F",
"V  c #AB4A11",
"C  c #AC6218",
"Z  c #AB4927",
"A  c #FE6E01",
"S  c #FE7002",
"D  c #F37413",
"F  c #FF6D2C",
"G  c #FD6F30",
"H  c #F2723B",
"J  c #9C7451",
"K  c #8D7478",
"L  c #9C7D7B",
"P  c #907679",
"I  c #FFA30D",
"U  c #FFA213",
"Y  c #F5A223",
"T  c #9E807D",
"R  c #AB8077",
"E  c #D6A255",
"W  c #5B6583",
"Q  c #5E6886",
"!  c #5F6B8B",
"~  c #566080",
"^  c #626A86",
"/  c #626E8D",
"(  c #666B85",
")  c #6D7186",
"_  c #64708F",
"`  c #6B728B",
"'  c #757A8D",
"]  c #667291",
"[  c #697594",
"{  c #6D7997",
"}  c #6D7A98",
"|  c #787E93",
" . c #717D9A",
".. c #76819E",
"X. c #7C859C",
"o. c #7C8092",
"O. c #7684A4",
"+. c #7A86A3",
"@. c #7E89A5",
"#. c #86859A",
"$. c #85899B",
"%. c #898B9D",
"&. c #818597",
"*. c #9D9794",
"=. c #AB8B8C",
"-. c #B39386",
";. c #B4A28B",
":. c #838DA6",
">. c #838EA9",
",. c #8D91A1",
"<. c #8690A8",
"1. c #8B95AD",
"2. c #8E98AE",
"3. c #9294A4",
"4. c #949BAD",
"5. c #9899A7",
"6. c #8A95B0",
"7. c #8D9AB6",
"8. c #8696B6",
"9. c #939BB0",
"0. c #919FBB",
"q. c #999FB0",
"w. c #A89FA5",
"e. c #9BA2B5",
"r. c #94A1BB",
"t. c #9CA5B9",
"y. c #A2AABC",
"u. c #B1A8B0",
"i. c #ADB0BB",
"p. c #BDB6BB",
"a. c #95A5C2",
"s. c #9DA9C0",
"d. c #A6AEC1",
"f. c #A8AFC1",
"g. c #ABB5C8",
"h. c #B1B6C4",
"j. c #B6B9C3",
"k. c #B4BCCB",
"l. c #B8BDC9",
"z. c #B9C0CE",
"x. c #BEC5D3",
"c. c #C2C5CC",
"v. c #D2C4C3",
"b. c #C5C9D3",
"n. c #CACDD4",
"m. c #C4CCDB",
"M. c #CACFD9",
"N. c #C0C6D2",
"B. c #CDD0D7",
"V. c #CCD1DB",
"C. c #D6D6DA",
"Z. c #EFD5CC",
"A. c #FCDED1",
"S. c #E7E0DF",
"D. c #FEE1D3",
"F. c #D4DAE3",
"G. c #DCDFE3",
"H. c #D0D6E1",
"J. c #DDE0E6",
"K. c #DEE2E8",
"L. c #E2E5EA",
"P. c #E6EAEE",
"I. c #E8EBEF",
"U. c #E5E5E7",
"Y. c #F1EFEE",
"T. c #E9EDF1",
"R. c #EEF1F4",
"E. c #F1F4F5",
"W. c #F4F7F9",
"Q. c #F6F9FB",
"!. c #FDFEFE",
/* pixels */
"                                                                                                    ",
"                                                                                                    ",
"                                                                                                    ",
"                                                                                                    ",
"                                                                                                    ",
"                                                                                                    ",
"                                                                                                    ",
"                                                                                                    ",
"                                                                                                    ",
"                                      - - - - ; - - ; :                                             ",
"                                      k k k k k k k h r                                             ",
"                                , > ) C.J.U.G.G.J.J.l.@.f > 1                                       ",
"                              n ,.,.j.!.!.!.!.!.!.!.W.m.X.v W a                                     ",
"                        s g d 3.Q.!.!.!.R.L.I.P.P.P.T.J.d.7.1.l 9                                   ",
"                      > &.B.B.L.!.!.!.!.k.:.<.>.<.<.<.<.O.}  .+.` 9                                 ",
"                    r ' c.!.!.!.!.!.I.x.:.! / / _ _ / / / _ [ @.[ 7                                 ",
"                  6 m G.!.!.!.!.!.!.V...] ] ] _ ! ! / ] ] ] ] [ l 5                                 ",
"                , $.n.Q.!.!.!.!.!.!.V.{ / [ ] j 9 9 j ] ] ] ] [ l 5 : 1                             ",
"              s ) b.!.!.!.!.!.!.Q.G.f.{ ] Q c n ` ) ` ] ] ] ] ] ` ` f ,                             ",
"            1 ) J.!.!.!.!.!.!.!.E.e.[ ] [ c 0 5.E.E.h.[ ] ] ] / 4.J.o.>                             ",
"          0 %.b.Q.!.!.!.!.!.!.!.R.6.! ] [ l < q.!.!.x.` ] [ [ _ t.W.$.:                             ",
"          0 j.!.!.!.Q.J.P.!.!.!.E.9./ ] [ j # ) c.c.e._ l z k Q :.j.' 9                             ",
"          0 j.!.!.!.J.1.k.!.!.!.R.9./ ] [ l # # 2 2 h ^ 2 + # z v 8 h c 9                           ",
"          6 ( %.$.%.&._ h.!.!.!.R.9.! ] [ Q g r w a l v # X o $ e w W W 7 >                         ",
"          1 , , , > 9 / l.!.!.!.E.9./ ] ] ] ] ] ] ] [ ^ @ . o . $ ^ { ~ 9                           ",
"                  : r +.m.!.!.!.R.6./ ] ] ] ] ] [ ] [ W @ . o . $ Q { ~ 9                           ",
"                  ; h k.R.!.!.!.W.b.9.[ ] ] ] ] ] ] [ W 3 O + o $ ^ } W 9 >                         ",
"                  - z n.W.!.!.!.!.!.M.} / ] ] ] ] ] [ / r 5 5 # 3 Q ] l 9                           ",
"                      v i.!.!.!.!.!.V.{ / ] ] ] ] ] ] ! ~ ~ ~ l v / j 0                             ",
"                      : ,.!.!.!.!.!.J.y.../ / / _ / @.e.>.+.O.} [ ] f >                             ",
"                      1 ,.E.!.!.!.!.!.E.y.{  .} } } h.I.g.9.7...] / f ,                             ",
"                        k $.L.!.!.!.!.!.J.M.M.M.M.M.T.Q.k.0.0.0. .f 9                               ",
"                          0 w.v.v.Y.!.!.!.!.!.!.!.!.W.F.g.0.0.:.( 7                                 ",
"                          3 q = u v.!.Q.Q.Q.Q.Q.!.!.H.s.0.0.2.k 6                                   ",
"                            % t M P P L L L L u.m.m.g.a.0.%.x q >                                   ",
"                            > W y.K u u y * y M #.#.$.$.:.m q 4 ,                                   ",
"                            > | P.U.U.S.3.` $.b * * y y * i n r ,                                   ",
"                          f #.c.!.!.!.!.t.+.x.p.L Z V C C J ..W f 5                                 ",
"                          g B.!.!.!.Q.P.t.e.T.!.A.G A U U E 4.O.l 5                                 ",
"                        - h B.!.!.!.H.9.k.I.!.!.A.G S U U E q.O.l 5                                 ",
"                        - g B.!.!.!.n.} x.!.!.!.D.G S U I E r.O.l 7                                 ",
"                          g c.E.E.Q.b.:.M.!.!.Q.Z.H D Y Y E 4. .l 5                                 ",
"                            n o.6.6.y.V.T.!.!.b.5.=.-.-.;.*. .j 9                                   ",
"                            - 9 l X.z.!.!.!.!.y.{ 8.a.a.8.O.! r >                                   ",
"                                a p.!.!.!.!.Q.i.{ 8.r.6. .[ / r ,                                   ",
"                                a c.!.!.!.!.!.q.g { +...[ ] / r ,                                   ",
"                                w e.n.c.b.n.c.) 5 W [ ] ] [ _ r ,                                   ",
"                                  a s s s a a 7 9 W [ ] ] [ / r >                                   ",
"                                                7 f l ] ] [ / r ,                                   ",
"                                                  5 f ] ] [ / r >                                   "
};
