/* XPM */
static char *P2_resized[] = {
/* columns rows colors chars-per-pixel */
"50 50 170 2 ",
"   c None",
".  c #180D15",
"X  c #160A11",
"o  c #1C121B",
"O  c #1D1522",
"+  c #161C3D",
"@  c #201721",
"#  c #2E2A38",
"$  c #292638",
"%  c #302D3C",
"&  c #7F381E",
"*  c #7E3727",
"=  c #7F421F",
"-  c #7F4322",
";  c #6D413E",
":  c #1D2443",
">  c #202645",
",  c #242845",
"<  c #292A42",
"1  c #262C4A",
"2  c #282E4C",
"3  c #2B304E",
"4  c #373448",
"5  c #2D3452",
"6  c #303653",
"7  c #343956",
"8  c #343B59",
"9  c #383B57",
"0  c #623D40",
"q  c #3C425E",
"w  c #3C4462",
"e  c #434458",
"r  c #6F4341",
"t  c #7E4F49",
"y  c #6B525D",
"u  c #765656",
"i  c #444A65",
"p  c #484D66",
"a  c #434C6A",
"s  c #454A65",
"d  c #46506F",
"f  c #4D536D",
"g  c #52566F",
"h  c #5F5162",
"j  c #4C5573",
"k  c #4F5877",
"l  c #535A74",
"z  c #535C7A",
"x  c #5A5F76",
"c  c #6D5866",
"v  c #6A5663",
"b  c #775C61",
"n  c #59617D",
"m  c #58607B",
"M  c #64697F",
"N  c #6D6C7A",
"B  c #7D6D7A",
"V  c #FE6F01",
"C  c #FF7201",
"Z  c #E56507",
"A  c #E5642E",
"S  c #FD6E2E",
"D  c #FF7130",
"F  c #8F6966",
"G  c #9A7B78",
"H  c #CD7F66",
"J  c #E68F17",
"K  c #E89114",
"L  c #FFA30F",
"P  c #FFA313",
"I  c #FFA812",
"U  c #B69C79",
"Y  c #D2844F",
"T  c #C69553",
"R  c #D9A453",
"E  c #D3A259",
"W  c #5B6584",
"Q  c #5F6986",
"!  c #5E6A8A",
"~  c #566180",
"^  c #656A81",
"/  c #696D83",
"(  c #626E8D",
")  c #6C7186",
"_  c #65708E",
"`  c #6D748C",
"'  c #76798C",
"]  c #667291",
"[  c #697594",
"{  c #6D7997",
"}  c #6E7A9A",
"|  c #707A96",
" . c #717D9B",
".. c #7B7F92",
"X. c #847885",
"o. c #76819D",
"O. c #7D8397",
"+. c #7382A3",
"@. c #7F8AA5",
"#. c #7A87A5",
"$. c #938289",
"%. c #968287",
"&. c #828799",
"*. c #868A9B",
"=. c #8A8D9C",
"-. c #808495",
";. c #AB9799",
":. c #838CA4",
">. c #818DA9",
",. c #8E92A2",
"<. c #8591AD",
"1. c #8D96AD",
"2. c #8F98AF",
"3. c #9194A4",
"4. c #949AAE",
"5. c #8C99B4",
"6. c #8894B0",
"7. c #949CB2",
"8. c #929EB9",
"9. c #9DA0AD",
"0. c #9BA2B5",
"q. c #95A1BB",
"w. c #9DA6BB",
"e. c #9BA4BA",
"r. c #A2A5B2",
"t. c #A5ADBE",
"y. c #CCBEBD",
"u. c #C0B4B7",
"i. c #CEC0BE",
"p. c #E5C3B7",
"a. c #97A6C3",
"s. c #A2ACC0",
"d. c #ADB4C4",
"f. c #ACB6CA",
"g. c #B2B7C3",
"h. c #B2B9C7",
"j. c #B9BDC6",
"k. c #B3BBCB",
"l. c #B8BFCD",
"z. c #B5BED0",
"x. c #BEC1CA",
"c. c #BDC4D3",
"v. c #C2C4CB",
"b. c #D0C2C1",
"n. c #C2C7D2",
"m. c #C4CAD6",
"M. c #C8CEDA",
"N. c #CDD2DB",
"B. c #D1D5DC",
"V. c #D7D7DB",
"C. c #E1D9D8",
"Z. c #FDDFD1",
"A. c #FFE2D4",
"S. c #D5D9E1",
"D. c #D8DBE0",
"F. c #D1D7E1",
"G. c #DDE0E6",
"H. c #DCE3EC",
"J. c #E1E5EC",
"K. c #E7E9EC",
"L. c #E9ECEF",
"P. c #E0E2E7",
"I. c #EAEDF1",
"U. c #EEF1F4",
"Y. c #EEF4F9",
"T. c #F2F4F6",
"R. c #F4F7F8",
"E. c #F6F9FA",
"W. c #FDFEFE",
"Q. c #F8F6F5",
/* pixels */
"                                                                                                    ",
"                                                                                                    ",
"                                                                                                    ",
"                                                                                                    ",
"                                                                                                    ",
"                                                                                                    ",
"                                                                                                    ",
"                                                                                                    ",
"                                      6 6 6 6 6 6 6 6 3                                             ",
"                                : + x 9.r.r.r.r.r.r.:.Q q : ,                                       ",
"                              p l g ,.T.W.W.W.W.W.W.J.s.n w i                                       ",
"                          2 1 O.V.G.L.W.W.W.W.W.W.W.W.J.w.>.@.j ,                                   ",
"                        / 3.,.x.W.W.W.W.N.h.h.h.h.h.k.f.5.>.>.` z 8                                 ",
"                      p r.W.W.W.W.W.E.J.8._ ] ] ] ] ] ] ] _ [ >.| 8                                 ",
"                    f j.L.W.W.W.W.W.D.2.} _ _ ] ] ] ] _ ] ] ]  .W 5                                 ",
"                  M 4.T.W.W.W.W.W.W.N.{ ! ] ] ~ d d ~ ] ] ] ] ] z 5 ,                               ",
"                6 r.W.W.W.W.W.W.W.E.n.} _ ] ! k w w l ] ] ] ] [ W w 6 3                             ",
"                3 0.W.W.W.W.W.W.T.h.@.[ ] W w *.v.x.7.] ] ] ] ( :.h.M 2                             ",
"              f ` v.W.W.W.W.W.W.I.2.! ] [ z 4 4.W.W.n.[ ] [ [ ( 0.R.*.,                             ",
"            : M G.W.W.W.E.W.W.W.U.7.( ] [ l $ =.R.T.h.] ( ( ( ( 7.P.O.2                             ",
"            , ^ I.W.W.W.W.W.W.W.U.7.( ] [ l $ e N N ) ^ e 4 4 m ` N n j 8                           ",
"            : ^ I.W.E.G.L.W.W.W.U.5.( ] [ ~ 7 < < < a W # X o e p 3 l W 8 1                         ",
"            , M K.W.G.2.k.W.W.W.U.2.( ] ] ] Q W Q W _ Q # . o @ 4 z ] ~ 8 ,                         ",
"              l &.,.&.( d.W.W.W.U.2.! ] ] ] [ [ [ [ [ Q # . o . # ( } W 8                           ",
"                2 , 8 ] c.W.W.W.T.t. .[ ] ] ] ] ] ] [ Q # o O o % Q { W 8 ,                         ",
"                  , w @.M.E.W.W.E.U.l.{ ( ] ] ] ] ] ] ! 8 1 < O % ^ { ~ 8 2                         ",
"                    w ^ h.W.W.W.W.W.N.{ ( ] ] ] ] ] ] ! j a a q p ( W a 6                           ",
"                      5 ,.W.W.W.W.W.N.:.[ ] ] _ ] ] { o.} { [ ] ] ( a 2                             ",
"                      2 3.W.W.W.W.W.T.S.2.( ( ( ] ! 0.N.w.<.6.} ] ] a 2                             ",
"                      3 ' j.T.W.W.W.W.W.n.w.w.w.w.w.N.E.c.8.q.<.} z w                               ",
"                        2 f m.Q.T.E.W.W.E.E.E.E.E.E.W.I.f.8.q.5.| 8                                 ",
"                          6 u F G C.W.W.W.W.W.W.W.W.H.z.w.q.q._ a                                   ",
"                          7 u u u ;.b.v.y.y.b.V.J.H.c.a.q.2.' e ,                                   ",
"                          p v.B.3.b * r r r r X.s.w.8.8.q.X.0 4 5                                   ",
"                          i B.E.F.u.%.c $.;.B c y v c c c v h g d 6                                 ",
"                        s ` D.W.W.W.N.o.m.Y.z.X.F * & - - t | } z 6                                 ",
"                      3 *.J.E.W.W.W.M.o.m.W.Y.I.y.A Z J J T 4.+.z 6                                 ",
"                      3 3.W.W.W.R.m.d.k.H.W.W.W.Z.S V P P R 7.+.Q j w                               ",
"                      3 3.W.W.W.U.2.7.T.W.W.W.E.Z.S V P L R 4.+.] _ a 2                             ",
"                      3 3.W.W.W.U.1.2.R.W.W.W.W.Z.S V L L R 7.+.] _ w 5                             ",
"                      3 ' r.r.d.c.d.n.R.W.W.W.H.t.H Y E E U >.} [ ] a 2                             ",
"                          6 5 a | N.W.W.W.W.E.d...2.0.7.7.>._ ! ( ( w 5                             ",
"                              2 f n.W.W.W.W.W.t.{ 5.a.8.@.! w w w w 8                               ",
"                                q x.W.W.W.W.W.m.7. .#.>.} j 5 , 2 ,                                 ",
"                                q j.W.W.W.W.W.W.B.g a [ [ z 5                                       ",
"                                  / r.T.W.W.W.W.V.g w _ [ j 5                                       ",
"                                  : / T.W.W.W.W.D.f w _ ! j 5                                       ",
"                                  , ) I.W.W.E.W.B.f a ( w 5                                         ",
"                                    x &.=.*.*.=.O.z ~ ! 8 ,                                         ",
"                                      2 2 2 2 , 8 Q { ! w 2                                         "
};
