/* XPM */
static char *P3_resized[] = {
/* columns rows colors chars-per-pixel */
"50 50 171 2 ",
"   c None",
".  c #190D15",
"X  c #170C13",
"o  c #1B111B",
"O  c #120F25",
"+  c #1D1521",
"@  c #1B1B32",
"#  c #231B26",
"$  c #25263E",
"%  c #2F2A39",
"&  c #282639",
"*  c #302C3C",
"=  c #753926",
"-  c #1D2343",
";  c #212746",
":  c #222846",
">  c #292941",
",  c #262B4A",
"<  c #282E4C",
"1  c #2B304E",
"2  c #34344A",
"3  c #3A3A4E",
"4  c #373647",
"5  c #2E3451",
"6  c #323753",
"7  c #333956",
"8  c #343B59",
"9  c #383E5B",
"0  c #3C425D",
"q  c #3E4664",
"w  c #44465A",
"e  c #754B49",
"r  c #754844",
"t  c #654D57",
"y  c #704D50",
"u  c #725450",
"i  c #674449",
"p  c #434964",
"a  c #494D66",
"s  c #444C69",
"d  c #484F6C",
"f  c #47506F",
"g  c #4B516B",
"h  c #50556E",
"j  c #4C5473",
"k  c #4F5A7A",
"l  c #555B73",
"z  c #525C7A",
"x  c #585D74",
"c  c #6D5966",
"v  c #60596E",
"b  c #755D65",
"n  c #57607E",
"m  c #59617E",
"M  c #73616D",
"N  c #7F696E",
"B  c #64697E",
"V  c #62677D",
"C  c #736272",
"Z  c #DA5F09",
"A  c #FE6F01",
"S  c #FF7201",
"D  c #D95F2C",
"F  c #D07536",
"G  c #FF6D2C",
"H  c #FC6E30",
"J  c #FF7130",
"K  c #9C7C78",
"L  c #D37856",
"P  c #DB8716",
"I  c #FFA30D",
"U  c #FFA313",
"Y  c #FFA811",
"T  c #BE8E52",
"R  c #BD9D72",
"E  c #DCA24B",
"W  c #DAA453",
"Q  c #5A6583",
"!  c #5F6986",
"~  c #5E6A8A",
"^  c #626D8D",
"/  c #686C81",
"(  c #64708F",
")  c #6D7286",
"_  c #757A8D",
"`  c #7C7E8D",
"'  c #667291",
"]  c #697594",
"[  c #6E7996",
"{  c #6D7998",
"}  c #737C96",
"|  c #727E9B",
" . c #707FA0",
".. c #857885",
"X. c #7D8194",
"o. c #7B849D",
"O. c #73809E",
"+. c #7382A3",
"@. c #7B87A3",
"#. c #7F8AA3",
"$. c #8E818B",
"%. c #998183",
"&. c #828497",
"*. c #868A9B",
"=. c #898B9D",
"-. c #A78C89",
";. c #AC928F",
":. c #848DA4",
">. c #818DA9",
",. c #8E92A3",
"<. c #8590AC",
"1. c #8B94AB",
"2. c #8F98AF",
"3. c #9094A4",
"4. c #9399AA",
"5. c #9A9EAC",
"6. c #9599A7",
"7. c #939CB1",
"8. c #929FB9",
"9. c #989FB1",
"0. c #9BA0AF",
"q. c #9BA2B3",
"w. c #94A1BB",
"e. c #9CA5BA",
"r. c #B3A3A5",
"t. c #A1A5B2",
"y. c #A2AABD",
"u. c #AAAEBA",
"i. c #A5A9B5",
"p. c #BCB9BF",
"a. c #D9B6AB",
"s. c #99A6C2",
"d. c #A4AFC5",
"f. c #ADB4C4",
"g. c #ADB6CA",
"h. c #B3B7C3",
"j. c #B6B9C3",
"k. c #B5BDCD",
"l. c #BBBDC6",
"z. c #BCC1CC",
"x. c #BDC4D1",
"c. c #C4C5CE",
"v. c #D8CFCE",
"b. c #DAD0CF",
"n. c #C1C7D4",
"m. c #C6CAD3",
"M. c #CACCD2",
"N. c #C3CBDA",
"B. c #C9CED9",
"V. c #CED3DC",
"C. c #CED0D6",
"Z. c #D8D7DA",
"A. c #E5DFDE",
"S. c #FCDED1",
"D. c #F9E2D8",
"F. c #DADEE5",
"G. c #D6DBE3",
"H. c #E1DFE1",
"J. c #DEE1E6",
"K. c #DEE3EA",
"L. c #E1E4E7",
"P. c #E5E9EE",
"I. c #E8EBEF",
"U. c #E2E4E8",
"Y. c #E7EBF1",
"T. c #EAEDF1",
"R. c #EFF1F4",
"E. c #F2F4F6",
"W. c #F3F7F9",
"Q. c #F6F8FA",
"!. c #FDFEFE",
/* pixels */
"                                                                                                    ",
"                                                                                                    ",
"                                                                                                    ",
"                                                                                                    ",
"                                                                                                    ",
"                                                                                                    ",
"                                                                                                    ",
"                                                                                                    ",
"                                                                                                    ",
"                                                                                                    ",
"                                                                                                    ",
"                                      1 1 1 1 1 1 1 1 1                                             ",
"                                    l ,.3.3.3.3.3.3.} z 9                                           ",
"                                a p &.E.!.!.!.!.!.!.K.e.z 9 0                                       ",
"                          , ; _ M.C.J.!.!.!.!.!.!.!.Q.K.w.@.o.d :                                   ",
"                        V X.X.h.!.!.!.!.G.x.x.x.n.x.n.x.9.<.>.^ j                                   ",
"                  0 0 0 0.Q.Q.Q.!.!.!.T.e.' ] ] ] ] ] ] ] ' ] >.} 7                                 ",
"                < *.c.z.L.!.!.!.!.!.F.9.| ^ ^ ' ' ' ( ' ( ' ' | ~ 5                                 ",
"              p ) c.!.!.!.!.!.!.!.!.V.] ~ ] ] Q j j Q ' ' ' ' ] z 5 ,                               ",
"            < ) J.!.!.!.!.!.!.!.!.!.N.{ ( ' ^ j 9 9 j ' ] ' ' ' Q 9 1 <                             ",
"          9 =.m.Q.!.!.!.!.!.!.!.W.z.<.] ' Q f X.l.l.6.' ' ' ' ( :.u.V ,                             ",
"          9 j.!.!.!.Q.J.P.!.!.!.R.2.~ ' ] z 1 ` M.M.q.' ' ' ' ( :.l.) ,                             ",
"          9 h.!.!.!.J.1.k.!.!.!.R.7.~ ' ] z > $ 4 4 a ' ' ( ' ' m 3 < 5                             ",
"            _ =.*.=.o.' f.!.!.!.R.7.^ ' ] z & O O O 9 ^ a 3 0 Q k @ 2 f 8                           ",
"            < < < , 9 ^ k.!.!.!.R.7.^ ' ] m 1 $ $ $ a Q * X + w g 2 j Q 8 ,                         ",
"                  : q @.N.!.!.!.R.7.^ ' ' ^ m Q m m ^ Q % . o # 4 x ' Q 8 ,                         ",
"                  ; g f.Y.!.!.!.R.2.~ ' ' ' ] ] ] ] [ Q % . o . * ^ ] Q 7                           ",
"                  - l F.!.!.!.!.E.e.[ ' ' ' ' ' ' ' ] ! * o + o > ~ ] Q 8 :                         ",
"                  - x U.!.!.!.!.Q.P.h.{ ' ' ' ' ' ' ' ~ 7 $ $ + * ! { Q 8 <                         ",
"                    h t.Z.!.!.!.!.!.V.[ ^ ' ' ' ' ' ' ~ g s q 3 w ~ Q j 8                           ",
"                      7 6.!.!.!.!.!.V.@.' ' ' ' ' ' ] } ] ' ' ^ ( ( s 5                             ",
"                      , ,.!.!.!.!.!.R.N.<.~ ^ ^ ~ ^ 8.x.e.<.<.{ ' ' s <                             ",
"                      1 X.M.W.!.!.!.!.!.z.2.7.7.2.4.N.Q.k.8.8.>.] Q q ,                             ",
"                        5 x C.!.Q.!.!.!.W.R.R.E.R.R.Q.R.g.8.8.8.} 9                                 ",
"                          2 K K -.H.!.!.!.!.!.!.!.!.Y.x.d.8.8.] j                                   ",
"                          1 i i u r.b.v.v.v.b.H.T.Y.x.w.8.7.&.g 7                                   ",
"                        - p l.c.=.b r e e r e $.d.d.s.8.w...i x k 5                                 ",
"                        / t.T.W.B.r.-.;.;.%.M c c C C C C c t / ~ j 9                               ",
"                      a t.!.!.!.!.!.W.Y.Q.T.g...r = = = = u [ ] ' ' f 7                             ",
"                    l l.I.!.!.!.!.!.G.9.V.!.T.J.a.D Z P P T 1.| ' ' ~ z 8                           ",
"                  - l U.!.!.!.!.!.V.f.y.F.!.!.!.D.H S U Y W 9.+.' ' ] Q 8 ,                         ",
"                  - l J.!.!.!.Q.J.7.e.W.!.!.!.!.S.H A U U W 9.+.' ' ' Q 8 ,                         ",
"                  - l U.!.!.!.z._ f.P.!.!.!.!.!.S.G A U I W 9.+.' ' ] Q 8 ,                         ",
"                    h i.j.j.j.&.9 6.Z.Q.!.!.!.!.D.L F E E R <.( k z z j 8                           ",
"                      9 9 9 9 9   5 _ E.!.!.!.!.U.*.X.9.q.,.( q 5 5 5 5                             ",
"                                  - ) W.!.!.!.!.K.@.+.s.s.| s 5                                     ",
"                                  ; B c.T.!.!.!.T.e.#.@.o.! 5                                       ",
"                                      g j.!.!.!.!.E.4.9 8 9                                         ",
"                                      6 i.!.!.!.!.!.5.1 -                                           ",
"                                      7 u.!.!.!.!.!.5.5                                             "
};
