/* XPM */
static char *P4_resized[] = {
/* columns rows colors chars-per-pixel */
"50 50 175 2 ",
"   c None",
".  c #190E16",
"X  c #160A11",
"o  c #1B111B",
"O  c #1E1B2D",
"+  c #201A28",
"@  c #2F2A39",
"#  c #282538",
"$  c #312E3D",
"%  c #653C3D",
"&  c #6E3F3B",
"*  c #1D2343",
"=  c #212746",
"-  c #222847",
";  c #252B4A",
":  c #282E4C",
">  c #2B2D46",
",  c #2A304E",
"<  c #35344A",
"1  c #393548",
"2  c #2E3553",
"3  c #303653",
"4  c #313856",
"5  c #343B5A",
"6  c #393E5A",
"7  c #3C3D52",
"8  c #5D3C43",
"9  c #433B50",
"0  c #3D425D",
"q  c #3E4055",
"w  c #3E4562",
"e  c #654246",
"r  c #744D4C",
"t  c #704746",
"y  c #7A5251",
"u  c #664D57",
"i  c #414763",
"p  c #444A65",
"a  c #424A69",
"s  c #494E69",
"d  c #484D67",
"f  c #4E536D",
"g  c #4C5675",
"h  c #4F5978",
"j  c #555B74",
"k  c #545D7B",
"l  c #515770",
"z  c #725C67",
"x  c #55607F",
"c  c #5B627C",
"v  c #62657D",
"b  c #656A7F",
"n  c #796977",
"m  c #766470",
"M  c #73727F",
"N  c #AB4A11",
"B  c #AC6218",
"V  c #AB4927",
"C  c #FE6E01",
"Z  c #FE7002",
"A  c #F37413",
"S  c #FF6D2C",
"D  c #FD6F30",
"F  c #F2723B",
"G  c #9B7350",
"H  c #8C7276",
"J  c #9C7D7B",
"K  c #FFA30D",
"L  c #FFA213",
"P  c #F5A223",
"I  c #9E807D",
"U  c #AB8077",
"Y  c #D6A255",
"T  c #576180",
"R  c #5B6582",
"E  c #5E6886",
"W  c #5F6B8B",
"Q  c #616B87",
"!  c #696E83",
"~  c #616D8D",
"^  c #606780",
"/  c #6D7186",
"(  c #64708F",
")  c #6B728B",
"_  c #757A8D",
"`  c #72748B",
"'  c #667291",
"]  c #697594",
"[  c #6D7997",
"{  c #6D7A98",
"}  c #717D9A",
"|  c #767D93",
" . c #707FA0",
".. c #75819D",
"X. c #7C849A",
"o. c #7C8092",
"O. c #7582A2",
"+. c #7A86A2",
"@. c #7E89A3",
"#. c #98898E",
"$. c #86859A",
"%. c #858A9B",
"&. c #898C9E",
"*. c #818597",
"=. c #9F8C91",
"-. c #9C9592",
";. c #AB8B8C",
":. c #B39386",
">. c #B4A28B",
",. c #848DA6",
"<. c #838EA9",
"1. c #8D92A1",
"2. c #8690A8",
"3. c #8A94AD",
"4. c #8E98AE",
"5. c #9195A5",
"6. c #9696A9",
"7. c #969AA9",
"8. c #8E9AB5",
"9. c #8997B5",
"0. c #939BB0",
"q. c #929FBB",
"w. c #999FB0",
"e. c #A69CA2",
"r. c #99A1B6",
"t. c #94A1BB",
"y. c #9CA4B9",
"u. c #97A0B5",
"i. c #A3A7B3",
"p. c #A3ABBD",
"a. c #B1A8B0",
"s. c #ADB0BB",
"d. c #B6B2BA",
"f. c #D1C1BF",
"g. c #95A5C2",
"h. c #9DA9C0",
"j. c #A6AEC2",
"k. c #ACB3C4",
"l. c #AAB5CA",
"z. c #B1B7C4",
"x. c #B6B9C3",
"c. c #B4BCCB",
"v. c #B9BCC6",
"b. c #BFC5D2",
"n. c #C3C5CC",
"m. c #D1C4C3",
"M. c #C4C9D4",
"N. c #CBCED5",
"B. c #C4CCDB",
"V. c #CACFD9",
"C. c #D2CED3",
"Z. c #CDD0D7",
"A. c #CCD1DB",
"S. c #D6D8DE",
"D. c #D1D4DB",
"F. c #EFD5CC",
"G. c #FCDED1",
"H. c #FEE1D3",
"J. c #D3DAE5",
"K. c #DBDEE3",
"L. c #D0D6E1",
"P. c #DDE0E6",
"I. c #DEE2E8",
"U. c #E2E5EA",
"Y. c #E6E9EE",
"T. c #E8EBEF",
"R. c #E5E5E7",
"E. c #F1EFEE",
"W. c #E9EDF1",
"Q. c #E5EDF5",
"!. c #EEF1F4",
"~. c #F1F4F6",
"^. c #F4F7F9",
"/. c #F6F9FA",
"(. c #FDFEFE",
/* pixels */
"                                                                                                    ",
"                                                                                                    ",
"                                                                                                    ",
"                                                                                                    ",
"                                                                                                    ",
"                                                                                                    ",
"                                                                                                    ",
"                                                                                                    ",
"                                                                                                    ",
"                                      * * * * = * * = -                                             ",
"                                      j j j j j j j f w                                             ",
"                                : ; / D.R.P.P.K.P.P.v.+.a ; ,                                       ",
"                              v 1.1.x.(.(.(.(.(.(.(.^.B.X.R R i                                     ",
"                        p s d 5./.(.(.(.!.Y.T.Y.T.Y.W.P.j.9.3.k 5                                   ",
"                      ; *.N.Z.R.(.(.(.(.c.,.<.2.2.<.3.,.O.} } +.) 5                                 ",
"                    w _ n.(.(.(.(.(.T.b.,.W ~ ~ ' ~ ~ ~ ~ ~ ' ,.] 4                                 ",
"                  3 b K.(.(.(.(.(.(.A.} ( ' ' ~ ~ ~ ~ ' ' ' ' ] k 2                                 ",
"                : %.Z./.(.(.(.(.(.(.A.} ~ ' ' g 5 5 g ' ' ' ' ] k , ; 2                             ",
"              p / n.(.(.(.(.(.(./.P.j.[ ( ~ x ^ / / ) ' ' ' ' ' ] / d >                             ",
"            , / P.(.(.(.(.(.(.(.~.r.] ' ] x 6 7.~.~.z.' ( ' ' ~ 0.K.o.;                             ",
"          6 &.M.(.(.(.(.(.(.(.(.!.6.W ' ] h > 7.(.(.M.] ' ] ] ' y.^.%.-                             ",
"          6 x.(.(.(./.P.W.(.(.(.!.8.~ ' ] h # / n.n.w.( k l j E 2.x._ 5                             ",
"          6 x.(.(.(.P.3.c.(.(.(.!.0.W ' ] k # # 1 1 l R $ + # l c 7 g k 5                           ",
"            _ &.%.&.*.' k.(.(.(.!.0.~ ' ] E s w 0 0 k c @ X o $ q 0 x R 5 ;                         ",
"            : : : ; 5 ~ c.(.(.(.!.4.W ' ' ' ' ' ' ' ] E @ . o . $ E [ R 5                           ",
"                  = w +.V.(.(.(.!.8.~ ' ' ' ' ' ' ] ] R @ . o . $ E [ T 5                           ",
"                  = f c.Q.(.(.(.^.M.0.] ' ' ' ' ' ' ] E < O + o @ E [ R 4 ;                         ",
"                  * l N./.(.(.(.(.(.V.} ~ ' ' ' ' ' ] W w 2 2 # 1 W ] k 4                           ",
"                      c s.(.(.(.(.(.A.[ ~ ' ' ' ' ' ' ~ R T T k x ( g 6                             ",
"                      - 1.(.(.(.(.(.P.p...W ~ ~ ~ ~ @.t.<.O.O.[ ] ' p ;                             ",
"                      , 1.!.(.(.(.(.(.~.p.[ } [ [ } z.T.l.8.0.O.' ~ a :                             ",
"                        j %.R.(.(.(.(.(.P.V.A.V.V.A.T./.c.t.t.8.} a 5                               ",
"                          6 e.m.m.~.(.(.(.(.(.(.(.(.^.J.k.q.q.<.Q 4                                 ",
"                          < e & y m.(./././.^./.(.(.L.h.t.t.4.h 4                                   ",
"                          6 #.=.n H J I J J J a.B.B.l.g.g.&.z 7 -                                   ",
"                          s A.Q.j.H t % r r t m $.$.$.$.$.m 8 9 5                                   ",
"                        * s Z.(.!.R.d.` d.Z.6.z % % % % % u v Q k 2                                 ",
"                        ! i.T.(.(.(.L...B./.J.d.U V N B B G +.O.k 2                                 ",
"                      , 5.(.(.(.(.!.M.3.A.(.(.(.G.D C L L Y u.O.k 5 2                               ",
"                      : 5.(.(.(.~.p.y.J.~.(.(.(.H.D Z L L Y w.O.~ R a :                             ",
"                      , 5.(.(.(.^.2.3./.(.(.(.(.G.S C L L Y 0.O.] ' a :                             ",
"                      , &.T.T.~.U.0.y.^.(.(.(./.F.F A P P Y 0. .' ' a :                             ",
"                        j ! b | r.b.R./.(.(.(.M.6.;.:.>.>.-.} [ ] ' a :                             ",
"                          * * 5 R D.(.(.(.(.(.p.] 9.g.g.9.O.' R h k w :                             ",
"                                i v.(.(.(.(.(.k.} 3.q.8.} ] ~ w 2 2                                 ",
"                                  ! i.~.(.(.(.U.k.Q Q O.[ ] ' w ;                                   ",
"                                  * ! !.(.(.(.(.S.f 5 k T T k w ;                                   ",
"                                  = / !.(.(.(.(.S.l ; 5 4 4 4                                       ",
"                                  = / !.(.(.(.(.S.f *                                               ",
"                                  - / !.(.(.(.(.S.l *                                               "
};
