/* XPM */
static char *P5_resized[] = {
/* columns rows colors chars-per-pixel */
"50 50 181 2 ",
"   c None",
".  c #180D15",
"X  c #160A11",
"o  c #1C121B",
"O  c #1D1522",
"+  c #161C3D",
"@  c #201721",
"#  c #2E2A38",
"$  c #292638",
"%  c #302D3C",
"&  c #7F381E",
"*  c #442732",
"=  c #6C3F3D",
"-  c #7E3727",
";  c #7F421F",
":  c #7F4322",
">  c #6D403D",
",  c #1D2444",
"<  c #202645",
"1  c #242844",
"2  c #292A43",
"3  c #252B4A",
"4  c #292F4D",
"5  c #302E47",
"6  c #2B314E",
"7  c #27304F",
"8  c #373447",
"9  c #2F3553",
"0  c #303654",
"q  c #343956",
"w  c #343B59",
"e  c #393852",
"r  c #613C40",
"t  c #3D425D",
"y  c #3C4361",
"u  c #434459",
"i  c #5C4E5F",
"p  c #6B4546",
"a  c #784D49",
"s  c #6B525D",
"d  c #7B5A51",
"f  c #424864",
"g  c #484D66",
"h  c #444D6B",
"j  c #494E68",
"k  c #404662",
"l  c #46506F",
"z  c #4D536C",
"x  c #51566F",
"c  c #4C5573",
"v  c #4E5876",
"b  c #535A75",
"n  c #535D7B",
"m  c #585D75",
"M  c #6E5866",
"N  c #685563",
"B  c #715C67",
"V  c #59617D",
"C  c #58607B",
"Z  c #64697F",
"A  c #6D6C7A",
"S  c #61667C",
"D  c #786773",
"F  c #7B6166",
"G  c #FE6F01",
"H  c #FF7201",
"J  c #E56507",
"K  c #E5642E",
"L  c #FD6E2E",
"P  c #FF7130",
"I  c #825E5D",
"U  c #8D6967",
"Y  c #95716D",
"T  c #876C70",
"R  c #E68F17",
"E  c #E89114",
"W  c #FFA30F",
"Q  c #FFA313",
"!  c #FFA812",
"~  c #B69C79",
"^  c #D0824D",
"/  c #C69553",
"(  c #D9A453",
")  c #D3A259",
"_  c #D98A6E",
"`  c #5B6583",
"'  c #5F6986",
"]  c #5E6A8A",
"[  c #566180",
"{  c #656A81",
"}  c #626E8D",
"|  c #686D82",
" . c #65708F",
".. c #6B738B",
"X. c #797A8C",
"o. c #667291",
"O. c #697594",
"+. c #6D7997",
"@. c #6D7A9A",
"#. c #727B95",
"$. c #7A7F92",
"%. c #727E9B",
"&. c #857885",
"*. c #847A89",
"=. c #7D8294",
"-. c #75819D",
";. c #7F8599",
":. c #7685A6",
">. c #7F8AA5",
",. c #7B87A5",
"<. c #828799",
"1. c #8C8E9D",
"2. c #838798",
"3. c #95868E",
"4. c #B69F9D",
"5. c #828BA3",
"6. c #828EA9",
"7. c #8E92A2",
"8. c #8591AD",
"9. c #8D96AC",
"0. c #8F98AE",
"q. c #9499A9",
"w. c #8C99B4",
"e. c #939CB2",
"r. c #929FB9",
"t. c #989FB1",
"y. c #9DA0AD",
"u. c #9BA2B5",
"i. c #95A1BB",
"p. c #9DA6BB",
"a. c #9BA4BA",
"s. c #B4A1A1",
"d. c #A2A5B2",
"f. c #A4ACBE",
"g. c #C9BAB9",
"h. c #CEC0BE",
"j. c #E5C3B7",
"k. c #97A6C2",
"l. c #A4ADC1",
"z. c #AEB5C5",
"x. c #AEB8CC",
"c. c #B2B6C4",
"v. c #B1B8C7",
"b. c #B9BDC6",
"n. c #B4BBCB",
"m. c #B8BFCD",
"M. c #BEC2CA",
"N. c #BDC5D3",
"B. c #C2C5CD",
"V. c #CAC8CF",
"C. c #D0C2C1",
"Z. c #C1C7D3",
"A. c #C5CAD5",
"S. c #CCCFD6",
"D. c #C8CFDB",
"F. c #C7CDD8",
"G. c #CDD0D7",
"H. c #CDD2DC",
"J. c #D1D5DC",
"K. c #D7D4D7",
"L. c #FCDED1",
"P. c #FFE4D7",
"I. c #D5DAE3",
"U. c #D8DBE0",
"Y. c #E0DEE1",
"T. c #DDE0E6",
"R. c #DEE3EB",
"E. c #E1E6EC",
"W. c #E7E9EC",
"Q. c #E9ECEF",
"!. c #E0E2E7",
"~. c #F1F0EF",
"^. c #EBEEF1",
"/. c #E5EDF5",
"(. c #EEF1F4",
"). c #F3F4F6",
"_. c #F4F7F8",
"`. c #F6F8FA",
"'. c #FDFEFE",
"]. c #F8F7F6",
"[. c #F7E7E0",
/* pixels */
"                                                                                                    ",
"                                                                                                    ",
"                                                                                                    ",
"                                                                                                    ",
"                                                                                                    ",
"                                                                                                    ",
"                                                                                                    ",
"                                                                                                    ",
"                                      0 0 0 0 0 0 0 0 6                                             ",
"                                , + m y.d.d.d.d.d.d.5.` t < 1                                       ",
"                              g m x 7.).'.'.'.'.'.'.E.l.V y f                                       ",
"                          7 3 =.J.T.Q.'.'.'.'.'.'.'.'.E.p.6.>.c 3                                   ",
"                        | 7.7.M.'.'.'.'.H.v.v.v.v.v.n.z.w.6.>.O.n q                                 ",
"                      g d.'.'.'.'.'.`.E.e.} o.o.o.o.o.o.o.o.O.6.#.q                                 ",
"                    z b.Q.'.'.'.'.'.U.0.+.o.o.o.o.o.o.} o.o.o.%.` 0                                 ",
"                  Z t.).'.'.'.'.'.'.H.+.} o.o.[ l l [ o.o.o.o.o.n 7 3                               ",
"                0 d.'.'.'.'.'.'.'.`.Z.+.} o.] v t y b o.o.o.o.o.` k 0 7                             ",
"                6 u.'.'.'.'.'.'.).v.5.O.O.` h ;.M.B.t.o.o.o.o.} 5.c.| 3                             ",
"              z ..B.'.'.'.'.'.'.(.9.] o.O.n 8 q.'.'.Z.O.o.O.O.} u._.2.1                             ",
"            < Z !.'.'.'.`.'.'.'.(.e.} o.O.v $ 1.).`.v.o.} } } } e.T.<.4                             ",
"            < Z Q.'.'.'.'.'.'.'.(.e.} o.O.n $ u A A | } u 5 8 V o.A V c w                           ",
"            < { ~.'.`.T.Q.'.'.'.(.w.] o.O.V q 2 $ 2 z V # X o u g 8 c ` w 3                         ",
"            < S Q.'.T.9.n.'.'.'.(.e.} o.o.} ] ` ' '  .' % . o @ 8 n o.` w 3                         ",
"              m <.1.;.o.z.'.'.'.(.0.] o.o.o.O.O.O.O.O.' # . o . # } @.[ w                           ",
"                4 3 w  .m.'.'.'.).f.%.o.o.o.o.o.o.o.O.' # O O o % ' +.` w 3                         ",
"                  1 y >.D.'.'.'.'.(.m.+.} o.o.o.o.o.o.] w 1 2 O % ' +.[ w 3                         ",
"                    y { z.'.'.'.'.'.H.+.} o.o.o.o.o.o.] c h h t g ] ` h 0                           ",
"                      7 7.'.'.'.'.'.J.>.O.o.o.o.o.o.+.-.@.+.O. .o.O.f 7                             ",
"                      4 7.'.'.'.'.'.).I.0.] } }  . .u.H.p.8.8.@.O.o.f 4                             ",
"                      9 X.b.).'.'.'.'.'.A.p.p.p.a.p.H.`.N.r.i.8.+.n y                               ",
"                        4 z V.].~.~.).'.`.`.`.`._._.'./.x.r.i.r.#.w                                 ",
"                        , e F Y U U 4.`.'.'.'.'.'.'.R.x.a.i.r. .h                                   ",
"                          5 * p I a T g.C.C.h.K.E.E.N.i.i.0.*.u 1                                   ",
"                            2 X.Y.v.*.p = = p &.p.p.i.r.r.&.r 8 7                                   ",
"                            , =.`./.V.s.D N D M s N M M M N i e 4                                   ",
"                            x t.`.'.'.'.p.:.k.3.I - & : ; d O.c w                                   ",
"                          g b.(.'.'.'.`.u.6.R.(.j.K J R E / 9.+.v 9                                 ",
"                        , g J.'.'.'.E.m.z.A.`.'.L.L G Q ! ( t.:.[ 9                                 ",
"                          j G.'.'.'.S.-.N.'.'.'.L.L G Q Q ( t.:.n 9                                 ",
"                          j G.'.'.'.F.-.Z.'.'.'.L.L G W Q ( t.:.n 9                                 ",
"                        , j J.'.'.'.D.%.N.'.'.'.[._ ^ ) ) ~ 5.] l 9                                 ",
"                          g B.).(.(.A.5.S.'.'.'.E.l.e.e.t.6. .y 7                                   ",
"                            S $.9.9.f.J.^.'.'.I.x.k.k.r.,.@.} y 3                                   ",
"                            < c 0.e.m.`.'.'.'.z.+.%.,.6.+.O.} c y                                   ",
"                            3 $.^.`._.'.'.'.`.7.9 9 c o.O.o.o.o.n 9                                 ",
"                            3 <.'.'.'.'.'.'.'.1.3 1 h  .o.o.o.O.n 9                                 ",
"                            3 =.`.'.'.'.'.).S.=.4 4 h o.O.o.o.O.[ 9                                 ",
"                            3 =.`.'.'.'.'.S.m     7 h  .o.o.o.O.n 0                                 ",
"                            3 =.`.'.'.'.'.B.t       y h h h h h y 9                                 ",
"                            3 =.`.'.'.'.'.A.f         4 4 6 4 7 4 4                                 "
};
