/* XPM */
static char *M0_resized[] = {
/* columns rows colors chars-per-pixel */
"40 33 174 2 ",
"   c None",
".  c #272827",
"X  c #2E2728",
"o  c #262929",
"O  c #2E2E2D",
"+  c #3E242B",
"@  c #342D2E",
"#  c #3C2B2F",
"$  c #30302F",
"%  c #3A2D30",
"&  c #2F3230",
"*  c #333332",
"=  c #3B3334",
"-  c #383937",
";  c #373B38",
":  c #3B3B39",
">  c #373936",
",  c #4D1E2B",
"<  c #5D172B",
"1  c #521B2A",
"2  c #5A1B2D",
"3  c #531728",
"4  c #5C1F30",
"5  c #621B2F",
"6  c #60172C",
"7  c #641E31",
"8  c #6B1B32",
"9  c #741A33",
"0  c #7B1C34",
"q  c #44252C",
"w  c #4B242E",
"e  c #42292F",
"r  c #482A2D",
"t  c #54212F",
"y  c #472730",
"u  c #4D2630",
"i  c #442A30",
"p  c #4C2C33",
"a  c #532531",
"s  c #5B2231",
"d  c #532B35",
"f  c #5A2A35",
"g  c #433336",
"h  c #493337",
"j  c #433A3B",
"k  c #4B3B3C",
"l  c #483737",
"z  c #59323C",
"x  c #622233",
"c  c #6B2B33",
"v  c #6B2538",
"b  c #672735",
"n  c #7D2234",
"m  c #762838",
"M  c #71323A",
"N  c #3E413E",
"B  c #49432F",
"V  c #40403E",
"C  c #5C433A",
"Z  c #60443D",
"A  c #754431",
"S  c #453F42",
"D  c #5A3C46",
"F  c #703940",
"G  c #434341",
"H  c #484846",
"J  c #4D4E4F",
"K  c #594E4A",
"L  c #4D5154",
"P  c #575759",
"I  c #6A4940",
"U  c #735148",
"Y  c #735345",
"T  c #605A5D",
"R  c #5E5E60",
"E  c #656569",
"W  c #69676A",
"Q  c #766764",
"!  c #6E6F72",
"~  c #787577",
"^  c #831E36",
"/  c #842236",
"(  c #8A2237",
")  c #852B33",
"_  c #852238",
"`  c #8D2338",
"'  c #852A3A",
"]  c #8A2A3B",
"[  c #942539",
"{  c #99263A",
"}  c #942A3B",
"|  c #9D293B",
" . c #912C36",
".. c #8A3433",
"X. c #8B343B",
"o. c #95313A",
"O. c #A1293B",
"+. c #A3313F",
"@. c #9C4334",
"#. c #9D4D34",
"$. c #974334",
"%. c #855D39",
"&. c #A94239",
"*. c #A55535",
"=. c #8E6838",
"-. c #947132",
";. c #AD6C37",
":. c #BB6C35",
">. c #BC6534",
",. c #B97736",
"<. c #C56D34",
"1. c #963841",
"2. c #A53441",
"3. c #AB3C43",
"4. c #B13F48",
"5. c #8A594B",
"6. c #93574A",
"7. c #9C5B4A",
"8. c #925B4C",
"9. c #AB4246",
"0. c #AE4F4C",
"q. c #B34348",
"w. c #A75F4E",
"e. c #AA574D",
"r. c #B0524E",
"t. c #B55652",
"y. c #8B6458",
"u. c #966155",
"i. c #A26050",
"p. c #B36353",
"a. c #BC6954",
"s. c #BB655A",
"d. c #B36C5B",
"f. c #916D64",
"g. c #88746F",
"h. c #9D6B77",
"j. c #887270",
"k. c #937C77",
"l. c #B66A65",
"z. c #BB7968",
"x. c #C85D55",
"c. c #D26B5B",
"v. c #C37363",
"b. c #CE7565",
"n. c #C27A6C",
"m. c #D77B64",
"M. c #C77E70",
"N. c #BF8535",
"B. c #DD8635",
"V. c #DC8F35",
"C. c #C89336",
"Z. c #DA9D35",
"A. c #D39836",
"S. c #DBAB35",
"D. c #B68176",
"F. c #CF806F",
"G. c #C78477",
"H. c #D38B7E",
"J. c #7C7E83",
"K. c #8E8585",
"L. c #8B8A91",
"P. c #949399",
"I. c #BD8980",
"U. c #B08F92",
"Y. c #BB9F9F",
"T. c #9499A1",
"R. c #9D9DA5",
"E. c #A7A6AE",
"W. c #B3A0A1",
"Q. c #B2B3BC",
"!. c #D48D81",
"~. c #DA9184",
"^. c #E79787",
"/. c #BDBCC5",
/* pixels */
"                                                                                ",
"                          > * * * * O                             > *           ",
"                    - * - j : > * >         * - > * > $         - V $           ",
"                - - V : : : > $       O & - ; j - * * @       O j : > > *       ",
"              > V N : : : * $ $ * O > : - : : - *             - j d x u - *     ",
"            > j j j s 8 9 8 8 k G V : : : : - > O       $ *   > a 8 9 9 a - *   ",
"          * G f ( | _ _ { m z N : : : : h - O &         * G - j x 9 9 7 7 a *   ",
"          * z ` O.[ { | F V ; h d h p b 7 = * O         * : : d 8 9 7 $ i 7 s   ",
"          c ( ` [ ( { o.j f M n ^ 0 ( ^ x f u @           $ : f 9 9 r     a 9 # ",
"        @ ` ( { ( ` | } ' { O._ { [ | { ^ 9 p -       *   * ; f 9 9 @     s 9 # ",
"        s ..C.C.C.#.0 { { ( | { | O.| [ 0 9 v s @   O : * * g 8 9 8 #     a 9 # ",
"      B c ,.%.S.S.S...9 / &.| [ | | | | | ^ 9 8 @   O V - > d 9 9 2 @   @ s 5 @ ",
"      -.$.:.=.Z.Z.V...9 #.C.:.n ^ O.| O.[ ` 0 9 a & * ; : p 8 9 9 #     r 9 e   ",
"      A ) *.;.B.B.>.n n *.,.<.) ^ O.| | [ _ 9 9 4 i d f f 8 9 9 9 #   # 4 2 #   ",
"    d / ` ` @.o.@.{ ` ( n @.o.` | | | O.| ` 9 9 8 w 7 9 9 9 9 9 9 #   @ r #     ",
"  O f _ [ | ` ` ^ | ( / 9 0 { | | O.{ 0 0 8 p h h * @ 7 9 9 9 9 8 #             ",
"& y 0.c.1.1.1.` ] ] s.b.b.r.` { { [ { m : g : : : ; - = 7 9 9 9 y               ",
"G y h.~ 6.M.z.~.!.z.f.U y.m.0.o.] 1.' f N : : : - : : : = 5 7 7 r               ",
"- O E j.z R.L J.W R /.Q P.f.^.i.a.i.t.x g N : : : : : : : * * O O   * * * *     ",
"    . 6.K ! * o O O ! P /.L I.I d.6.9./ x g V G : : - : : : - * - * : : - *     ",
"      5.Y.N @ y # , , d P o u.U n.c.[ 9 9 x = - G V : : : : : : : - * * *       ",
"      k L.S , y < < < < 3 + u.U p.3.0 9 9 9 8 s * : G G G G G : $ *             ",
"      P.W X 2 1 1 < 6 3 f V u.5.e.[ 9 9 9 9 9 7 @ $ * $ $ * *                   ",
"    e U.Q T , , J D , T E E.5.m.2.9 9 9 9 9 9 s                                 ",
"    f c.5.Q.J.o P.K.l E.W W.a.x.} 9 9 9 9 t 7 @                                 ",
"    h X.s.z.k.K T.j.7.G.z.l.q.} 9 9 9 9 9 e i                                   ",
"      i 1.4.p.F.!.z.9.q.q.| 0 9 9 9 8 8 9 i                                     ",
"        # v 1.2.2.2.n 9 9 9 9 5 9 9 x w a                                       ",
"          * k v v v l % 9 9 9 y 7 7 s O                                         ",
"            * V H H : % 9 9 9 i w @                                             ",
"              - H H - @ u a u e                                                 ",
"              * : G *                                                           ",
"                - *                                                             "
};
