/* XPM */
static char *M1_resized[] = {
/* columns rows colors chars-per-pixel */
"40 33 172 2 ",
"   c None",
".  c #2E2F2E",
"X  c #332C2D",
"o  c #392C2F",
"O  c #36272B",
"+  c #2D302E",
"@  c #30302F",
"#  c #3D2D31",
"$  c #2E3330",
"%  c #343432",
"&  c #3A3334",
"*  c #373937",
"=  c #393937",
"-  c #3C3C3A",
";  c #3D3739",
":  c #4A1D29",
">  c #531929",
",  c #5B192C",
"<  c #631B2F",
"1  c #66172E",
"2  c #651E32",
"3  c #6C1B32",
"4  c #741A33",
"5  c #7B1C34",
"6  c #701633",
"7  c #44252D",
"8  c #49222D",
"9  c #42292F",
"0  c #50222F",
"q  c #59202F",
"w  c #45352B",
"e  c #472730",
"r  c #4B2630",
"t  c #462930",
"y  c #4C2B33",
"u  c #522430",
"i  c #5C2131",
"p  c #522A34",
"a  c #5A2C35",
"s  c #463237",
"d  c #433638",
"f  c #483438",
"g  c #443C3D",
"h  c #4A383A",
"j  c #493237",
"k  c #523138",
"l  c #642234",
"z  c #6D2436",
"x  c #662835",
"c  c #742436",
"v  c #7B2235",
"b  c #69323A",
"n  c #76363C",
"m  c #3F403E",
"M  c #41403F",
"N  c #5E453F",
"B  c #62433A",
"V  c #72493B",
"C  c #786531",
"Z  c #4B3D40",
"A  c #583E41",
"S  c #3F4343",
"D  c #434442",
"F  c #484846",
"G  c #494C4C",
"H  c #46484A",
"J  c #564041",
"K  c #5F4B44",
"L  c #4F5254",
"P  c #57575A",
"I  c #5B585C",
"U  c #7D4E42",
"Y  c #6F5148",
"T  c #765147",
"R  c #625C5B",
"E  c #715A56",
"W  c #6B615E",
"Q  c #695860",
"!  c #6F6A6D",
"~  c #74686A",
"^  c #757376",
"/  c #841E36",
"(  c #8A1F36",
")  c #842236",
"_  c #8A2137",
"`  c #852538",
"'  c #8E2338",
"]  c #862C39",
"[  c #932439",
"{  c #9A273A",
"}  c #922B3C",
"|  c #9E293B",
" . c #912237",
".. c #87383F",
"X. c #863937",
"o. c #97313E",
"O. c #A0293B",
"+. c #A3313F",
"@. c #894133",
"#. c #964035",
"$. c #9C4334",
"%. c #855B36",
"&. c #A34E34",
"*. c #A85734",
"=. c #986838",
"-. c #B56136",
";. c #BB6435",
":. c #BB6B36",
">. c #B96338",
",. c #A57B37",
"<. c #BF7135",
"1. c #CC7535",
"2. c #C17A37",
"3. c #9D3541",
"4. c #963841",
"5. c #9E3F45",
"6. c #AC3B44",
"7. c #A43742",
"8. c #8C4F46",
"9. c #89584B",
"0. c #945C4B",
"q. c #915543",
"w. c #A3444C",
"e. c #A74D4B",
"r. c #B5494A",
"t. c #AE524D",
"y. c #A85A4F",
"u. c #BD514D",
"i. c #AF4F51",
"p. c #B25354",
"a. c #B85F50",
"s. c #B1545D",
"d. c #8B645C",
"f. c #A36A5B",
"g. c #A96655",
"h. c #B56958",
"j. c #876C65",
"k. c #8A727B",
"l. c #987B75",
"z. c #B8786A",
"x. c #C95653",
"c. c #CA6757",
"v. c #CA7967",
"b. c #D77965",
"n. c #D07D6B",
"m. c #D48635",
"M. c #DB8935",
"N. c #CA9435",
"B. c #DBAB35",
"V. c #D9A335",
"C. c #A38078",
"Z. c #DF8068",
"A. c #C68273",
"S. c #D88C7F",
"D. c #AD7F82",
"F. c #848488",
"G. c #948483",
"H. c #888D96",
"J. c #91949A",
"K. c #AE8881",
"L. c #BA9690",
"P. c #9C9CA3",
"I. c #979AA1",
"U. c #AAA6AD",
"Y. c #B2ABAF",
"T. c #A6A9B3",
"R. c #AEACB4",
"E. c #B0AFB8",
"W. c #B5B4BD",
"Q. c #D3AFAB",
"!. c #E2B9B6",
"~. c #C9C8D2",
/* pixels */
"                          % % + @ @ @                                           ",
"                    * % % M - * * * %         % % % % % X             % % %     ",
"                % * - - - - * % . .       % = - m * % %             % - g y u r ",
"              % m M - - - % % .     . - % * g * * @           + - % * g q 3 u u ",
"            % - m - s i l i i a m - * - - - - - %               * M d q 4 0 X   ",
"          @ m h c ] v 4 ' ' c M - M - - ; - * @                 + D s 4 3 9     ",
"          $ Z c { | { { } J d - d ; d ; l r % .             @ % % D f 4 q       ",
"          t v [ | _  .O.A g h a 5 c 5 5 3 f s &               - g D f 4 u       ",
"        + ] ' / ' ) | | b ) | ' ) ' [ | / 4 2 t $             @ D - s 5 0       ",
"        9 v *.-.-.o.) { O.' | [ [ | | | _ 4 l p #             X D ; p 4 u       ",
"      . q *.,.B.B.N.X./ ) ' { O.| | | | ' ) 4 5 e       % * % . ; p 3 4 u       ",
"      C @.:.%.V.B.V.&.6 v 2.:./ ' O.| | | | ) 4 e + + . = D * * r 4 4 4 u       ",
"      %.$.-.%.m.M.M.&.6 *.=.m.&.4 [ | | { v 5 4 < X = ; d g y l 4 4 4 4 u       ",
"      x v ) ;.1.1.*.5 5 5 1.;.v _ | | | | { _ 4 4 7 2 3 3 3 4 4 4 4 4 1 7       ",
"    p ' { | ) ) _  .{ _ 4 4 ` | | O.| [ [ ' 3 l l i o 2 4 4 4 4 4 4 3 8         ",
"  # n w.} ( _ ( _ _ o.e.w.o.[ O.O.O.3.) l i s - * - % & 2 4 4 4 4 3 7           ",
"* y s.z.e.i.s.i.s.e.y.f.h.b.5.) / ( / ) g - - ; - - - * # i 5 3 u 7             ",
"D X k.F.V K.j.Q.C.L.C.j.~ f.b.t.i.i.t.z - g * - - - - - - # e 7       X @ + X   ",
"% + S d.B T.H L m H P.^ E.R !.y.0.q.g.| q - M - - * - * - * * @ X . @ * * = @   ",
"      U T F % . . . g - W.D E f.9.v.7.) 5 i - D m - - - - - - - * - * - - %     ",
"      M R.P O : 7 , , , s . J g.T u.) 4 4 4 i o g D M - - - m - - * * + @       ",
"      J.T.* > e : > < > u I K z.8.7.4 4 4 4 4 4 e + - M M M M M % . X           ",
"    7 K.j.! y : G R : ~ G ~.T b.u./ 4 4 4 3 6 l 9 + . . . . @ .                 ",
"    i x.0.T.I.. ^ Y.w J.Q R.h.c.+.5 4 4 4 2 q 0                                 ",
"    t n c.z.l.Y H.G.q.v.v.z.r.3.4 4 4 4 4 l X 9                                 ",
"      o ..7.g.n.S.v.r.6.6.3.5 4 4 4 4 < 4 i +                                   ",
"        # l o.7.7.7.` 3 4 5 4 3 < 4 4 9 i o                                     ",
"          @ h z z z p % l 4 4 i u 3 l o X                                       ",
"            % - F F M % 2 4 5 i e e +                                           ",
"              * F F - % r u u r +                                               ",
"                - F * X                                                         ",
"                % * +                                                           ",
"                @ @                                                             "
};
