/* XPM */
static char *M2_resized[] = {
/* columns rows colors chars-per-pixel */
"40 33 178 2 ",
"   c None",
".  c #2E2E2D",
"X  c #2D2626",
"o  c #392328",
"O  c #332E2E",
"+  c #3C2B2F",
"@  c #2C302E",
"#  c #30302F",
"$  c #3A2E30",
"%  c #343433",
"&  c #3D3536",
"*  c #363936",
"=  c #393937",
"-  c #3F3738",
";  c #3B3B39",
":  c #471F2A",
">  c #471E2A",
",  c #5B1E2F",
"<  c #531B2B",
"1  c #661A2F",
"2  c #69192F",
"3  c #62162C",
"4  c #641D31",
"5  c #6C1C32",
"6  c #6F1633",
"7  c #711733",
"8  c #741A33",
"9  c #7B1D34",
"0  c #44242D",
"q  c #442A2F",
"w  c #4A272E",
"e  c #51202D",
"r  c #4B2630",
"t  c #442C31",
"y  c #4C2D33",
"u  c #552331",
"i  c #5B2231",
"p  c #532A34",
"a  c #5D2B38",
"s  c #443236",
"d  c #4B3037",
"f  c #453538",
"g  c #433D3D",
"h  c #4C373B",
"j  c #5B3B33",
"k  c #56303A",
"l  c #593738",
"z  c #632334",
"x  c #6B2034",
"c  c #632A36",
"v  c #6B2F37",
"b  c #652939",
"n  c #7E2137",
"m  c #752A36",
"M  c #752536",
"N  c #67313A",
"B  c #6D333B",
"V  c #773436",
"C  c #3E413E",
"Z  c #41413F",
"A  c #53403A",
"S  c #5A4033",
"D  c #5C5330",
"F  c #7E6131",
"G  c #763740",
"H  c #743941",
"J  c #444442",
"K  c #474946",
"L  c #494947",
"P  c #4D4D4E",
"I  c #514E4F",
"U  c #4F4F51",
"Y  c #5C4C53",
"T  c #555658",
"R  c #555657",
"E  c #715246",
"W  c #7C5C50",
"Q  c #606063",
"!  c #6A6B6E",
"~  c #776967",
"^  c #74646C",
"/  c #6D6F72",
"(  c #776C73",
")  c #76767A",
"_  c #7A7B7F",
"`  c #821E36",
"'  c #842137",
"]  c #882137",
"[  c #872C33",
"{  c #842438",
"}  c #8D2438",
"|  c #852A3B",
" . c #882B3B",
".. c #932539",
"X. c #9A273A",
"o. c #93293A",
"O. c #9E293B",
"+. c #8B3334",
"@. c #873633",
"#. c #913534",
"$. c #933934",
"%. c #A1293B",
"&. c #875939",
"*. c #A24737",
"=. c #A54139",
"-. c #A34B34",
";. c #AB5734",
":. c #B85E39",
">. c #B75E34",
",. c #876039",
"<. c #AC6336",
"1. c #A46E36",
"2. c #BA6134",
"3. c #BA7034",
"4. c #B17E36",
"5. c #CD7535",
"6. c #D07D36",
"7. c #933540",
"8. c #9A3E43",
"9. c #A93F46",
"0. c #A43842",
"q. c #9D4148",
"w. c #9C4144",
"e. c #8C5444",
"r. c #9D5C4C",
"t. c #905444",
"y. c #AD464B",
"u. c #BB4B4C",
"i. c #BC574F",
"p. c #B7514D",
"a. c #BE5B57",
"s. c #936559",
"d. c #A96555",
"f. c #985866",
"g. c #986D61",
"h. c #85706C",
"j. c #847674",
"k. c #847C7D",
"l. c #B56668",
"z. c #B77668",
"x. c #C76656",
"c. c #D06D5B",
"v. c #C5705B",
"b. c #CD7464",
"n. c #CC7C6C",
"m. c #C67967",
"M. c #D57564",
"N. c #D67965",
"B. c #D47969",
"V. c #CE7F70",
"C. c #DC7E70",
"Z. c #C88936",
"A. c #D98335",
"S. c #CB9235",
"D. c #C89B36",
"F. c #DC9535",
"G. c #DCAB35",
"H. c #D6A635",
"J. c #D98170",
"K. c #7C7E83",
"L. c #888081",
"P. c #8B868A",
"I. c #888A8F",
"U. c #948B8D",
"Y. c #988E91",
"T. c #908C91",
"R. c #95939A",
"E. c #959094",
"W. c #9C9AA1",
"Q. c #9FA0A7",
"!. c #B2A6A8",
"~. c #B1B1B9",
"^. c #DD8E80",
"/. c #CD9083",
"(. c #E29486",
"). c #BFBFC9",
"_. c #BCBDC7",
"`. c #CAC4CC",
/* pixels */
"                          % % % # # O .                                         ",
"                      * % ; ; = * = *           % % O % #                       ",
"                  * = Z = = ; * # .         = * Z = = = %                       ",
"                = J = = ; * * @       * * % g ; = * . .                         ",
"              ; J = - p a i u p ; ; = = C ; = ; = .                             ",
"            ; g b m m 6 ` ..9 l g J g ; ; ; ; % %                               ",
"          @ J b ..%.O...X.H h ; ; = ; ; p i & . .                               ",
"          O z ..%.X.` %.H g ; f x x x x 8 p & = %                               ",
"        @ m o.` ..` X.%.B c } o.9 ..` O.] 8 5 u O                           + # ",
"        + m #.=.=.+...X.O.X.O.O.' O.O.O.X.9 8 y s .                       % i + ",
"        e +.4.H.G.S.@.` ..` ..%.%.O.O.%.} n 9 8 5 O                     . * z + ",
"      D V 3.,.D.G.G.3.7 7 *.:.o.} O.O.O.O.O.] 8 5 +                     % t 4 + ",
"      ,.;.>.&.Z.F.F.2.7 $.1.S.;.9 ] O.O.O.} ] 9 8 , O               % = * i 5 + ",
"      j [ +.<.6.A.5.@.6 @.;.6.-.9 ..O.O.O...} 9 8 z @               * ; C z 2 + ",
"    p [ } ..#.#.$.#.....` [ $.} ..O.O.O.O.O.] 8 8 5 0               * C y 5 r   ",
"  @ y ' } O...........' n 9 ] O.%.O.O...9 9 1 d f s & @   # #     * C y 4 8 +   ",
"@ q y.n.8.n n 7.7.n 8.B.B.v.7.o.X.X.X.X.N ; s ; ; ; ; = % ; ; % % g y 4 8 1 +   ",
"J q f.L.e.V.n.(.n.^.d.W E z.M.#. .| | ' k C ; ; ; ; ; = ; % * = s 1 8 8 5 q     ",
"; . Q U.l R.T W.U R.) !.k.~ /.b.d.N.c.w.e ; C ; ; ; ; ; = ; % % e i 4 r % % % . ",
". @ . j j K.U X @ . Q / W.) I.J.S N.y.9 8 i ; Z C = ; ; ; ; ; = % % % * = ; * . ",
"      T R.U X 0 . : : o ^ P X m.A x.} 8 8 8 i = ; J g = ; = ; ; ; ; ; = % % %   ",
"      I.).J o 0 . > 3 < X K.I m.r.9.9 8 8 8 8 i u = ; J J J J Z Z % % %         ",
"    r l.g.U.Y . K R.o ( ! ~.h.v.c...9 8 8 8 2 8 t   % * * * = = *               ",
"    p u.r.U._.J U `.l j.j.P.z.x.%.n 8 8 8 8 0 4 O                               ",
"      N a.b.s.E T.Y.e.b.J.b.y.O.9 8 8 8 8 8 q O                                 ",
"        v O.i.B.C.B.p.O.O.O.n 8 7 8 8 4 5 5 +                                   ",
"          u | o...X.{ z x 8 8 8 , 8 9 u r 0                                     ",
"            C a b b k % u 8 8 8 + 5 i r @                                       ",
"              C K K J * u 9 8 8 + r .                                           ",
"              @ K L Z # + r r r                                                 ",
"                = K = O                                                         ",
"                # = %                                                           ",
"                # #                                                             "
};
