/* XPM */
static char *M4_resized[] = {
/* columns rows colors chars-per-pixel */
"40 32 166 2 ",
"   c None",
".  c #2E2F2D",
"X  c #3E262D",
"o  c #332D2E",
"O  c #3B2A2E",
"+  c #2C302E",
"@  c #31302F",
"#  c #3A322E",
"$  c #3D2E31",
"%  c #343432",
"&  c #3B3233",
"*  c #363837",
"=  c #383837",
"-  c #363838",
";  c #3B3C3A",
":  c #5D192C",
">  c #551C2C",
",  c #651E31",
"<  c #6C1B32",
"1  c #721733",
"2  c #741A33",
"3  c #7B1B34",
"4  c #44242D",
"5  c #4C222E",
"6  c #422A2F",
"7  c #52212F",
"8  c #4B2630",
"9  c #462930",
"0  c #4A2D34",
"q  c #532431",
"w  c #5C2332",
"e  c #532C35",
"r  c #5E2B37",
"t  c #512F39",
"y  c #5D2D39",
"u  c #423135",
"i  c #483136",
"p  c #433638",
"a  c #433B3B",
"s  c #4A373C",
"d  c #56363C",
"f  c #632435",
"g  c #6C2B35",
"h  c #6E2F3B",
"j  c #652C3A",
"k  c #742135",
"l  c #7E2334",
"z  c #79283A",
"x  c #6A3238",
"c  c #77303A",
"v  c #7F303A",
"b  c #3E403E",
"n  c #40403E",
"m  c #654A31",
"M  c #774E3E",
"N  c #434341",
"B  c #494645",
"V  c #494947",
"C  c #444748",
"Z  c #484A4C",
"A  c #534F4F",
"S  c #555456",
"D  c #595C5F",
"F  c #6F4E46",
"G  c #704E45",
"H  c #62524D",
"J  c #785348",
"K  c #7C5C55",
"L  c #6C615F",
"P  c #6D6768",
"I  c #6B6768",
"U  c #766661",
"Y  c #831E36",
"T  c #852236",
"R  c #8B2137",
"E  c #842B33",
"W  c #8B2D35",
"Q  c #8E2238",
"!  c #8D2C3C",
"~  c #852D3C",
"^  c #912A37",
"/  c #932539",
"(  c #9A273A",
")  c #932C3D",
"_  c #9D293B",
"`  c #8E3634",
"'  c #81343E",
"]  c #823333",
"[  c #9B303C",
"{  c #953739",
"}  c #A0293B",
"|  c #964334",
" . c #A74539",
".. c #AD5038",
"X. c #B45B34",
"o. c #946E38",
"O. c #916438",
"+. c #AC6634",
"@. c #B36A35",
"#. c #AC7C37",
"$. c #B47634",
"%. c #C46C35",
"&. c #C67435",
"*. c #D17C35",
"=. c #973741",
"-. c #953845",
";. c #983946",
":. c #A63942",
">. c #9B4044",
",. c #8D584C",
"<. c #965B4C",
"1. c #95574A",
"2. c #8E5E52",
"3. c #915F53",
"4. c #A04347",
"5. c #A7484D",
"6. c #AA4C4D",
"7. c #A74548",
"8. c #B04347",
"9. c #B44349",
"0. c #AA544B",
"q. c #B4534D",
"w. c #BE4F50",
"e. c #BE5251",
"r. c #BD5F53",
"t. c #9E6252",
"y. c #9F6D5F",
"u. c #AA6555",
"i. c #A86C5D",
"p. c #A96653",
"a. c #B56F5C",
"s. c #B8705D",
"d. c #8A746D",
"f. c #91756F",
"g. c #9D7871",
"h. c #A57366",
"j. c #A97E76",
"k. c #BD7170",
"l. c #C15854",
"z. c #D26F5C",
"x. c #C67869",
"c. c #D27361",
"v. c #D37B66",
"b. c #C28635",
"n. c #CB8335",
"m. c #DE8F35",
"M. c #C59536",
"N. c #D89835",
"B. c #DDA835",
"V. c #BC877C",
"C. c #7A7C81",
"Z. c #87898F",
"A. c #86868B",
"S. c #8F8D93",
"D. c #B59F9F",
"F. c #9D9DA6",
"G. c #A29DA6",
"H. c #A3A0A7",
"J. c #A2A2AA",
"K. c #ABA8AF",
"L. c #B5B2B9",
"P. c #BFB6BD",
"I. c #C58F85",
"U. c #C69E98",
"Y. c #CBA29D",
"T. c #DFAFAA",
/* pixels */
"                          % % % % @ .                                           ",
"                    * % % n = * % * @         = % * % @                         ",
"                  = ; ; ; ; = %       . o = = ; * % %                           ",
"                b a ; ; ; % # o @ o * ; = ; ; = o                               ",
"              ; n a e , k 2 < d N N ; ; ; ; = *                                 ",
"            ; s k _ Q l / ~ y n ; ; = ; i = % +                                 ",
"            p z ( _ / } v N ; p e e e f f & % @                                 ",
"          i l R ( T / _ d y z z Y 3 Q T f w 8 .                                 ",
"          e / ^ [ E ( ( ! / } Y / ( _ _ 3 2 0 =                                 ",
"        o k +.M.N.b.E R ( Y _ _ _ } _ / 3 2 2 q                                 ",
"        m | B.o.M.B.+.2 2 .. .Y ( _ _ _ } R 3 w +                               ",
"      # $.{ m.O.b.m.X.1  .#.n.` l ( _ _ / T 2 , O % @   * * @                   ",
"      # ] l X.&.n.&.W 2 ` @.%.E T _ _ _ / Q 3 2 5 9 & = ; n %                   ",
"    o g / / ^ W W W / / 3 E W ( _ _ _ ( ( Y < 2 , 6 w , e a %                   ",
"    # ' ) / Q Q Q Q ) ;.-.! / _ _ _ ( 2 f w u ; ; % $ , 2 < 9 %                 ",
"% * g k.u.4.5.5.5.7.6.a.a.c.{ R R R R c ; ; ; ; ; ; = $ , 2 , 0 %               ",
"* ; 8 G.H y.g.U.j.Y.f.d.U i.c.6.6.6.>.q ; ; ; ; ; ; ; = & 5 < < 9 + + . +       ",
"  % . S ,.I A.C ; Z C.A.J.I T.1.p.J u.T 0 n ; ; ; ; ; ; ; = & 6 O % = = % o     ",
"      % u.A - . + . * * G.C K 2.<.M e.Q < 0 b N ; ; ; = = ; = = = = = = %       ",
"      % x.F.. X o O X X % . G 2.i.c._ 2 2 < 8 9 N n b n n n n * * & $ *         ",
"      # G S O 4 4 : : : 5 X G 2.t.e.T 2 2 2 2 w + = ; ; ; ; ; q q , j ; % %     ",
"      - Z.% 4 > : : : : : 6 G 3.<.[ 2 2 2 2 2 w +             9 7 < 2 f j f 7 o ",
"      a P.n 0 : 9 s : e n J.J v.8.T 2 2 2 2 2 w                   O O : : 5 O   ",
"    + ~ x.d.F.; ; L.O S.I L.t.z.:.3 2 2 2 : , o                       o o       ",
"      g q.h.D.L D K.M j.h.V.l.:.3 2 2 2 2 6 8                                   ",
"        x e.0.p.I.V.0.e.l.7.Y 3 2 2 2 < 2 9                                     ",
"          q ^ 9.9.8.) 3 3 3 2 < < 2 , q q                                       ",
"            p j k 2 j & , 1 2 q , < w o                                         ",
"              ; B B N % , 3 2 q 5 O o                                           ",
"              @ N V N % 9 q q 8 +                                               ",
"                = N = .                                                         ",
"                @ = %                                                           "
};
