/* XPM */
static char *Floor_resized[] = {
/* columns rows colors chars-per-pixel */
"50 50 138 2 ",
"   c #3B3B4B",
".  c #3C3C4B",
"X  c #3D3C4B",
"o  c #3D3C4C",
"O  c #3D3D4C",
"+  c #3D3E4C",
"@  c #3D3E4D",
"#  c #3E3E4D",
"$  c #3E3F4D",
"%  c #3F3F4E",
"&  c #3F404E",
"*  c #3F404F",
"=  c #40404E",
"-  c #40404F",
";  c #40414F",
":  c #414150",
">  c #414250",
",  c #414251",
"<  c #424351",
"1  c #424352",
"2  c #434352",
"3  c #424452",
"4  c #434452",
"5  c #434453",
"6  c #434553",
"7  c #444453",
"8  c #444553",
"9  c #454553",
"0  c #444654",
"q  c #454654",
"w  c #454754",
"e  c #454755",
"r  c #464654",
"t  c #464755",
"y  c #464855",
"u  c #474855",
"i  c #464856",
"p  c #474856",
"a  c #464956",
"s  c #474956",
"d  c #474957",
"f  c #474A57",
"g  c #484A57",
"h  c #484A58",
"j  c #494A58",
"k  c #484B58",
"l  c #494B58",
"z  c #494B59",
"x  c #4A4B59",
"c  c #494C59",
"v  c #4A4C59",
"b  c #4A4C5A",
"n  c #4A4D5A",
"m  c #4B4D5A",
"M  c #4B4D5B",
"N  c #4B4E5B",
"B  c #4C4E5B",
"V  c #4D4E5B",
"C  c #4B4E5C",
"Z  c #4C4E5C",
"A  c #4C4F5C",
"S  c #4D4F5C",
"D  c #4C505C",
"F  c #4C505D",
"G  c #4D505D",
"H  c #4E505D",
"J  c #4E515D",
"K  c #4E515E",
"L  c #4F515E",
"P  c #4F525E",
"I  c #4F525F",
"U  c #50525F",
"Y  c #50535F",
"T  c #505360",
"R  c #515360",
"E  c #515460",
"W  c #515461",
"Q  c #525561",
"!  c #525562",
"~  c #535562",
"^  c #535662",
"/  c #535663",
"(  c #545763",
")  c #555763",
"_  c #545864",
"`  c #555864",
"'  c #565965",
"]  c #575A66",
"[  c #585A66",
"{  c #585B67",
"}  c #595C68",
"|  c #5A5D69",
" . c #5B5D69",
".. c #5B5E69",
"X. c #5B5E6A",
"o. c #5C5F6A",
"O. c #5C5F6B",
"+. c #5D606B",
"@. c #5D606C",
"#. c #5D616C",
"$. c #5E606C",
"%. c #5E616C",
"&. c #5E616D",
"*. c #5F616D",
"=. c #5E626D",
"-. c #5F626D",
";. c #5F626E",
":. c #5F636E",
">. c #60626D",
",. c #60626E",
"<. c #60636E",
"1. c #61646F",
"2. c #62646F",
"3. c #626570",
"4. c #636570",
"5. c #636670",
"6. c #636671",
"7. c #646671",
"8. c #646771",
"9. c #646772",
"0. c #656772",
"q. c #656872",
"w. c #656873",
"e. c #666873",
"r. c #666973",
"t. c #666974",
"y. c #666A74",
"u. c #676A74",
"i. c #676A75",
"p. c #686B75",
"a. c #696C76",
"s. c #6A6D77",
"d. c #6A6D78",
"f. c #6B6E78",
"g. c #6C6F78",
"h. c #6C6F79",
"j. c #6D707A",
"k. c #6E717B",
/* pixels */
"O X % l a $ d h $ . ; b 0 & z i + X X @ i A A A z - . O O . # g h $ . ; b w O o . $ h d $ a k % q A ",
"O - 0 n z 0 c b 0 5 t M h w n z 8 6 6 8 z A A _ ) < % 8 8 6 0 v b 0 5 t M h 8 8 6 0 b c 0 z b w U ..",
"O 6 Z A A A A A A Z A A A A A A Z Z Z A A Z A &.4.q 1 Z A Z A A A A Z A A A Z Z Z A A A A A Z A ..i.",
"X 8 A A A A A A A A A A A A A A A A A A A C A -.6.q 3 A F A A A A A A A A A A A A A A A A A A A T ( ",
"4 d A A A A A A A A A A A A A A A A A A A Z A =.4.q 1 Z A A A A A A A A A A A A A A A A A A A A Q ' ",
"n N A A A A A A A A A A A A A A A A A A A Z A =.4.q 1 Z A A A A A A A A A A A A A A A A A A Z A +.s.",
"1 a A A A A A A A A A A A A A A A A A A A Z A =.4.q 1 Z A A A A A A A A A A A A A A A A A A Z A %.h.",
". 5 Z A A A A A A A A A A A A A A A A A A Z A -.6.r 1 Z A A A A A A A A A A A A A A A A A A Z A %.h.",
"+ 8 Z A A A A A A A A A A A A A A A A A A Z A %.3.q 1 Z A A A A A A A A A A A A A A A A A A Z A +.d.",
"i z A A A A A A A A A A A A A A A A A A A A A / ~ > 3 Z A A A A A A A A A A A A A A A A A A A A ^ } ",
"z n A A A A A A A A A A A A A A A A A A A A A T P 7 w A A A A A A A A A A A A A A A A A A A A A C N ",
"& w A A A A A A A A A A A A A A A A A A A Z A X.2.P b A A A A A A A A A A A A A A A A A A A A A A A ",
". 6 Z A A A A A A A A A A A D A A A A A A Z A ` ] j d A A A A A A A A A A A A A A A A A A A Z A _ o.",
"O 8 Z A A A A A A A A A A Z n M A A A A A A A I H 1 0 A A A A A A A A A A A A A A A A A A A Z A @.f.",
"o 6 Z A A A A A A A A A D n 1 q A A A A A Z A | ;.H c A A A A A A A A A A A A A A A A A A A Z A #.g.",
"5 d A A A A A A A A A A A M q 5 y M F A A C A -.e.S g A A A A A A A A A A A A A A A A A A A Z A @.f.",
"Z Z A A A A A A A A A A A A A y ; d B A A Z A =.5.r 3 Z A A A A A A A A A A A A A A A A A A Z A @.f.",
"A A A A A A A A A A A A A A A M d 4 w Z F C A ;.7.9 < Z A A A A A A A A A A A A A A A A A A Z A @.f.",
"A A A A A A A A A A A A A A A G N : % i n A A {  .s t A A A A A A A A A A A A A A A A A A A Z A @.f.",
"N Z A A A A A A A A A A A A A D M < + & d A A K P Z N A A A A A A A A A A A A A A A A A A A Z A @.f.",
"3 a A A A A A A A A A A A A A A B h y i b A A ] o.T A A A A A A A A A A A A A A A A A A A A Z A @.f.",
"X 8 A A A Z C Z A Z Z Z C Z A A Z A A A Z N A &.r.L k C Z Z Z A A Z A A Z C Z A A Z Z Z Z Z N A +.f.",
"O 6 Z A A A A A A A A A A A A A A S S S A A G -.6.u 6 A G A A A A A A A A A A A A A A A A A A G #.f.",
"O - w n / @.;.} P ' &.=.;.o.Y ^ #.-.&.%.&.&.-.p.6.9 v %.=.=.@.Q Q O.( I X.:.o.T / %.&.&.=.&.%.&.r.h.",
"O X # e ) 9.w. .A } r.7.7.;.T ' q.8.8.e.8.4.5.r.$.7 V 4.r.e.1.R U ,.` W 3.r.*.K ~ 3.e.q.6.0.r.r.r.e.",
"O O O $ p T x 2 : m I p 9 t n I R j l T v 9 r S H : = u P H r : : q z J W B 9 : > t L H u S ! Q Q Q ",
"O ; 8 6 i n e 1 6 h c 8 < 8 b A n 0 w n y < 3 f b t 4 6 z h 4 4 4 4 h A N a 3 5 4 5 z k 6 f N N N N ",
"O 8 Z A A A A Z Z A A A Z A A A A A A A A Z Z A Z n M Z A A A Z Z Z A A A A Z Z Z A A A A A A A A A ",
"O 8 A F A A A A A A A A A A A A A A A A A A A F b 4 t A A A A A A A A A A A A A A A A A A A A A Z N ",
". 6 Z A A A A A A A A A A A A A A A A A A A A A k % 4 Z A A A A A A A A A A A A A A A A A A A A ! [ ",
"# 0 A A A A A A A A A A A A A A A A A A A A A K M : 8 A A A A N N A A A A A A A A A A A A A Z A +.s.",
"g v A A A A A A A A A A A A A A A A A A A Z A { O.Z z A A F Z w 0 N A A A A A A A A A A A A C A &.j.",
"g b A A A A A A A A A A A A A A A A A A A C A -.t.L z A F M f 3 8 N A A A A A A A A A A A A Z A { 3.",
"% q A A A A A A A A A A A A A A A A A A A Z A %.3.t 4 N A i - i N A A A A A A A A A A A A A A A K Y ",
"y l A A A A A A A A A A A A A A A A A A A A A / ~ : $ 5 6 ; + s G A A A A A A A A A A A A A Z A ' #.",
"z n A A A A A A A A A A A A A A A A A A A A A T I 8 # O X @ > h A A A A A A A A A A A A A A Z A #.h.",
"& w A A A A A A A A A A A A A A A A A A A Z A X.2.I 5 O . < c Z A A A A A A A A A A A A A A Z A #.g.",
". 6 Z A A A A A A A A A A A A A A A A A A Z A ` [ l - @ 1 g A A A A A A A A A A A A A A A A Z A @.f.",
"O 8 Z A A A A A A A A A A A A A A A A A A A A I H 1 $ : z D A A A A A A A A A A A A A A A A Z A @.f.",
"O 8 Z A A A A A A A A A A A A A A A A A A Z A | ;.H h c N A A A A A A A A A A A A A A A A A Z A @.f.",
". 6 Z A A A A A A A A A A A A A A A A A A C A -.e.S h A A A A A A A A A A A A A A A A A A A Z A @.f.",
"$ 0 A A A A A A A A A A A A A A A A A A A Z A =.5.r 3 Z A A A A A A A A A A A A A A A A A A Z A @.f.",
"h b A A A A A A A A A A A A A A A A A A A Z A =.4.q 1 Z A A A A A A A A A A A A A A A A A A C A %.h.",
"f b Z h k Z A A A A A A A A A A A A A A A Z A =.4.q 1 Z A A A A A A A A A A A A A A A A A A Z A ] <.",
"# 0 b < 5 N A A A A A A A A A A A A A A A Z A =.4.q 1 Z A A A A A A A A A A A A A A A A A A A A K Y ",
"o % 1 w k Z A A A A A A A A A A A A A A A Z A =.4.q 1 Z A A A A A A A A A A A A A A A A A A Z A ' -.",
"O $ < c A Z A A Z A A Z C Z Z C Z A A Z Z N A &.4.q 1 Z A C Z A A Z C Z A Z Z Z Z Z C Z A Z N A #.h.",
"O 4 n A F A A A A A A A A A A A A A A A A A G -.4.q 1 A F A A A A A A A A A A A A A A A A A A G #.f.",
"O * s ] -.O.W E X.^ I ..%.@.@.%.o.R W O.%.+.#.y.4.q < K } &.O.W R o.=.} P ( @.#.@.@.%.] K ' #.#.q.f.",
"O   < >.k.a.` _ p.} ! u.h.f.f.h.a.( ` a.h.f.f.j.4.q , I 8.j.a.` ( a.j.9.E ..f.g.f.f.h.<.Y -.h.f.f.f."
};
