/* XPM */
static char *Walls_resized[] = {
/* columns rows colors chars-per-pixel */
"50 50 83 1 ",
"  c #242437",
". c #242438",
"X c #252438",
"o c #252538",
"O c #252638",
"+ c #262638",
"@ c #262639",
"# c #262739",
"$ c #272739",
"% c #27273A",
"& c #27283A",
"* c #28283A",
"= c #28283B",
"- c #28293B",
"; c #29293B",
": c #29293C",
"> c #292A3C",
", c #2A2A3C",
"< c #2A2B3C",
"1 c #2A2A3D",
"2 c #2A2B3D",
"3 c #2B2B3D",
"4 c #2B2C3D",
"5 c #2B2C3E",
"6 c #2C2C3E",
"7 c #2C2D3E",
"8 c #2D2D3E",
"9 c #2C2D3F",
"0 c #2D2D3F",
"q c #2D2E3F",
"w c #2E2E3F",
"e c #2D2E40",
"r c #2E2E40",
"t c #2E2F40",
"y c #2F2F40",
"u c #2E2F41",
"i c #2F2F41",
"p c #2F3041",
"a c #2F3042",
"s c #303041",
"d c #303141",
"f c #303042",
"g c #303142",
"h c #313142",
"j c #303143",
"k c #313242",
"l c #313243",
"z c #313343",
"x c #323243",
"c c #323343",
"v c #333343",
"b c #323344",
"n c #333344",
"m c #333444",
"M c #333445",
"N c #333545",
"B c #343444",
"V c #343445",
"C c #343545",
"Z c #353545",
"A c #353645",
"S c #343546",
"D c #343646",
"F c #353646",
"G c #353746",
"H c #363646",
"J c #363746",
"K c #363747",
"L c #373747",
"P c #363847",
"I c #373847",
"U c #373848",
"Y c #383848",
"T c #383948",
"R c #383949",
"E c #383A49",
"W c #393A49",
"Q c #393B49",
"! c #3A3B49",
"~ c #3A3B4A",
"^ c #3A3C4A",
"/ c #3B3C4A",
"( c #3B3C4B",
/* pixels */
"ooX                 .XooX                      Xoo",
"ooO+@@@++++++++++++++OooO+@@@@@@@@@@@@@@@@@@@@+Ooo",
"XO$-1<>;------------=%@+$;<333333333333333333<-$OX",
" +-8dgy07779999999995:$@;0gxxkkkkkkkkkkkkkkxxd8-+ ",
" @<gFJVlggggggggggjjp6*$3hJYYIIIIIIIIIIIIIUYYHd<@ ",
" @3cYWISVNVMmbzzzbMNbr-%4vR^~~~~~~~~~~~~~~~^~Tx3@ ",
" @3cR~WUIUIKSmbzbnDKFs>$3nW((~~~~~~~~~~~~~~((Rc3@ ",
" @3kIWWTTTTPSbljjbSPJh<%3cUQQWWWWWWWWWWWWWWQQIk2@ ",
" @>tmAFZZAZBxfuttpxMms3:5dVAAZZZZZZZZZZZZZZAAmy>@ ",
"XO%<8wwwwwwq74211360w07670qwwqqqqwrrrwwqqqqww0<&OX",
"oo@$*======*&%$$$%%&;3euq3-**================*$@oo",
"oo@%=------*#Oo@#%$$=6flp3*%*=---*#OO#*---=*%$@+oo",
"XO*3qyyttyt8:#O%:2114inCcr338ryyt6-@@;7tytr05,=#OX",
" @>iVHJFHJFc0*#:9ipiabHPAzfgnZHJFx6%*8cFJHZmjt3*OX",
" @3kU!!WQ~WFt-%2pbmbmFURISMCLE!~WZq*-tFW~QRPSl0;+ ",
" @3cR((^/(~Ky=%5cGKKKUWQEUKUE~((~Hw*-yK~(/~WUSp,@ ",
" @3xY~~!~~!Ht=&8MYETTEWQWRTRWQ~~QAw*-tH!~~QQWKg<@ ",
" @,sFIIPIILVt,>wmKIPLLPPPLLLLLIIKmq;:rBLIIPIIAs,@ ",
".+=6pggddddsywwysghgghhhhhggdddgdy8330idggghhs7-+.",
"oo#*;,,>>:>5pcvs6,:>,,,,,,,>>>>>>27qq62>>>,,,>=#oX",
"oo+#%&&%%$%2gHJk4*$%%$@@@$%&&%%%&,qgf0>%$$$$$#@Ooo",
"XO%;3666646tmUYVy6463;#o#;4666646whMmhq4<,:::-%@oo",
" +;qxmmmnnmCKRRPCmmmxq-#;wcmmmnnmVFKKFBcgieee91%OX",
" @2hKEETTTTREWWERTEEKg,%3kIEETTTTTREEERICzggja7-+ ",
" @3cT//~~~~~!!!!~~(/Tx<%3nE//~~~~~~!~~~TCfrpjjq;+ ",
" @3cT//~~~~~~!!~~~(/Tx<%3vE//~~~~~~~~/~Yc719ajq;+ ",
" @2hKEETTTTTTTTTTTEEKh2*3xIEETTTTTTTRERHs<=3tp9-+ ",
" +;qxmMmmmmmmmmmmmmmcy4,6pcmmmmmmmmmmmmxy735091&OX",
"XO%;367777666666666667999766666777666668tddr3;%@oo",
"oo+#%%%%$%%%%%%%%%%%=3rpe2*%%%%%%%%%%$%,pCFk3%Oooo",
"oo#=;-$oo@%&&&&&&*=;<0agu3=*;:=#oO%;>:>6kKUVr,%@oX",
".+-7yq>@+*25555456qpgkljpq60ypq;@$2tdddxAYRLms6=+.",
" @<gZv7%%2tfgffafjmAJAmzjfgbAHc6%-rVPIPITEWEYFs,@ ",
" @3vIZq&&6lMCMMMMCHIUKSMmmNGTRC0&;pL~~!!QQQ~~Yx3@ ",
" @4mTFq%*qVPUPPPPLKKJKKKKKPT!QZ0%;sI/(/~~~~//Rc3@ ",
" @3cPCq*;yFTETTTTUGVMCKYTTTEQRV8*;pJQ!QWWWW!!Uk3@ ",
" @,pMcr<3pmHJHFHHZbgakMFHHFHJAcq<3pmFHFFFFFJHVi>@ ",
"XO*3qypiyyyyyyyyyr8436wipyyttttyyyyttttttttyyq3*OX",
"oo+$-6hVmy2-=-----*%%&=-;--==;6gVmy2==-------=%@oo",
"ooO#=8nPHd2*%*======*$@O@%**&-8nPHd2*%*======*$@oo",
"XO%,0hFTUMpq0qqqqqwr0,$O%<0qqwhFTUMpq0qqqqqww8<%OX",
" @>tmKTERIFZCZZZZZAAmt;#>yMAAZJUERIFZCZZZZZAAmt>@ ",
" @2kIQ!WWWWWWWWWWWQQIh<%3xUQQWWWWWWWWWWWWWWQQIk2@ ",
" @3cR/^!!~~~~~~~~~((Rx2&4nW((~~~!!~~~~~~~~~((Rc3@ ",
" @3xT~~!!!!~~~~~~~^~Tx2%3vR^~~!!!!!!~~~~~~~^~Tx3@ ",
" @<dHYYUIIIIIIIIIUYYHd,%2hJYYIIIIIIIIIIIIIUYYHd<@ ",
" +-8dxxkkkkkkkkkkkxxd7=#;0gxxkkkkkkkkkkkkkkxxd8-+ ",
"XO$-<333333333333333<-#+$;<333333333333333333<-$OX",
"ooO+@@@@@@@@@@@@@@@@@+ooO+@@@@@@@@@@@@@@@@@@@@+Ooo",
"ooX                   XoX                      Xoo"
};
